{"glyphs":{"0":{"ha":611,"x_min":0,"x_max":0,"o":"m 243 1019 l 217 938 l 199 897 l 136 763 l 135 724 l 113 725 l 64 628 l 25 547 l 29 478 l 96 329 l 154 218 l 153 218 l 219 56 l 232 24 l 247 -18 l 369 -4 l 438 165 l 444 194 l 493 274 l 544 396 l 543 393 l 588 474 l 592 531 l 544 619 l 546 619 l 489 733 l 469 750 l 469 774 l 363 1024 l 322 1026 z m 249 307 l 222 331 l 225 347 l 151 525 l 176 583 l 175 593 l 265 775 l 265 786 l 294 844 l 303 867 l 397 642 l 418 643 l 406 621 l 458 504 l 464 493 l 458 475 l 401 353 l 401 354 l 372 282 l 378 258 l 360 261 l 318 181 l 308 157 z m 253 556 l 231 525 l 232 488 l 247 457 l 289 394 l 340 419 l 353 444 l 358 457 l 382 483 l 381 524 l 361 561 l 315 615 l 265 590 z "},"1":{"ha":407,"x_min":0,"x_max":0,"o":"m 211 601 l 236 585 l 213 569 l 206 510 l 207 464 b 214 351 208 425 213 390 l 196 76 l 196 0 l 288 0 l 339 11 l 344 67 l 342 97 l 318 113 l 335 125 l 321 471 l 333 860 l 339 986 l 246 1026 l 228 1013 l 172 957 l 161 917 l 139 926 l 75 872 l 43 853 l 13 825 l 53 757 l 86 711 l 171 793 l 208 815 l 206 646 z "},"2":{"ha":535,"x_min":0,"x_max":0,"o":"m 324 410 l 315 428 l 344 439 l 369 471 l 388 506 l 497 743 l 499 803 l 426 881 l 388 939 l 328 1017 l 240 1028 l 196 976 l 138 921 l 140 903 l 119 906 l 31 822 l 65 763 l 139 733 l 188 806 l 204 825 l 236 856 l 260 874 l 313 832 l 313 819 l 364 757 l 351 714 l 289 583 b 254 494 279 558 264 519 l 93 182 l 64 110 l 86 8 l 129 10 l 218 15 l 439 -3 l 489 11 l 493 124 l 458 151 l 404 146 l 385 124 l 367 142 l 286 133 l 218 139 l 232 178 l 257 249 l 306 361 z "},"3":{"ha":479,"x_min":0,"x_max":0,"o":"m 108 600 l 168 538 l 192 549 l 190 524 l 275 413 l 278 413 l 306 376 l 260 310 l 260 311 l 158 201 l 135 188 l 114 169 l 86 144 l 29 78 l 124 -24 l 176 13 l 247 124 l 368 257 l 443 336 l 450 433 l 397 478 l 349 539 l 264 622 l 250 653 l 264 675 l 275 710 l 439 914 l 429 1014 l 253 1018 l 161 1021 l 147 999 l 133 1018 l 110 1019 l 43 1029 l 29 958 l 38 894 l 99 893 l 213 904 l 267 903 l 278 903 l 258 883 l 211 815 l 199 790 l 204 768 l 183 765 l 108 679 z "},"4":{"ha":557,"x_min":0,"x_max":0,"o":"m 350 471 l 371 457 l 354 429 l 353 347 l 351 311 l 351 308 l 299 311 l 228 310 l 196 311 l 219 411 l 208 447 l 233 463 l 289 668 l 307 681 l 378 892 l 407 994 l 317 1029 l 268 1028 l 253 990 l 208 801 l 207 775 l 188 742 l 72 379 l 74 379 l 32 261 l 69 185 l 183 193 l 275 193 l 361 193 l 356 124 l 369 93 l 351 83 l 349 3 l 418 -7 l 489 4 l 488 104 l 482 240 l 478 360 l 489 507 l 486 575 l 351 568 z "},"5":{"ha":483,"x_min":0,"x_max":0,"o":"m 63 610 l 93 543 l 189 489 l 283 404 l 318 375 l 269 318 l 268 290 l 242 289 l 156 183 l 90 128 l 31 64 l 126 -31 l 181 -7 l 251 110 l 349 222 l 453 324 l 449 447 l 390 490 l 292 569 l 272 568 l 271 588 l 224 622 l 201 644 l 211 731 l 192 749 l 211 765 l 217 819 l 229 900 l 293 897 l 300 913 l 340 893 l 411 886 l 436 907 l 431 1021 l 379 1022 l 288 1013 l 147 1021 l 140 1021 l 113 1001 l 106 900 l 101 861 l 78 701 z "},"6":{"ha":586,"x_min":0,"x_max":0,"o":"m 324 693 l 296 708 l 353 735 l 415 861 l 451 911 l 488 982 l 353 1044 l 311 954 l 278 882 l 281 856 l 258 839 l 135 571 l 107 539 l 90 492 l 51 422 l 25 378 l 32 271 l 165 114 l 196 121 l 190 96 l 236 29 l 236 31 l 250 -3 l 303 1 l 368 4 l 481 169 l 521 221 l 572 301 l 565 397 l 490 454 l 474 453 l 472 458 l 428 506 l 365 557 l 349 557 l 282 454 l 335 419 l 397 356 l 413 342 l 435 321 l 421 292 l 378 231 l 321 158 l 313 146 l 294 174 l 246 225 l 213 268 l 158 342 l 182 389 l 193 424 z "},"7":{"ha":521,"x_min":0,"x_max":0,"o":"m 208 511 l 200 479 l 208 469 l 197 454 l 140 263 l 94 132 l 99 126 l 74 85 l 54 47 l 69 4 l 196 -19 l 210 33 l 210 60 l 221 88 l 242 182 l 239 253 l 267 265 l 314 444 l 315 479 l 336 515 l 444 842 l 483 936 l 456 1021 l 415 1019 l 339 1017 l 172 1017 l 76 1024 l 46 999 l 44 897 l 106 888 l 207 899 l 240 904 l 260 897 l 326 893 l 275 718 l 286 694 l 254 653 z "},"8":{"ha":590,"x_min":0,"x_max":0,"o":"m 215 528 l 176 476 l 101 408 l 31 329 l 31 243 l 174 90 l 246 -3 l 349 -4 l 396 58 l 438 125 l 478 163 l 563 256 l 560 347 l 526 378 l 485 417 l 417 481 l 374 529 l 422 581 l 429 603 l 482 656 l 538 717 l 528 810 l 488 842 l 374 968 l 346 1010 l 338 1025 l 243 1025 l 208 976 l 190 943 l 203 907 l 167 922 l 47 790 l 39 713 l 131 619 l 140 624 l 175 565 z m 385 351 l 403 353 l 401 336 l 436 303 l 401 250 l 340 172 l 304 139 l 296 150 l 251 201 l 217 208 l 229 229 l 164 299 l 176 318 l 185 321 l 285 435 l 292 443 z m 226 681 l 210 692 l 181 728 l 167 749 l 222 821 l 231 826 l 265 861 l 283 888 l 371 792 l 410 749 l 406 732 l 382 708 l 293 599 z "},"9":{"ha":571,"x_min":0,"x_max":0,"o":"m 293 563 l 249 596 l 211 628 l 208 639 l 153 693 l 167 717 l 183 750 l 217 783 l 279 874 l 292 861 l 363 776 l 381 779 l 376 757 l 411 718 l 424 706 l 400 654 l 375 608 l 329 503 l 344 481 l 306 453 l 236 315 l 239 303 l 222 289 l 201 229 l 125 90 l 103 49 l 229 -15 l 293 124 l 288 161 l 326 200 l 353 267 l 408 396 l 425 435 l 453 490 l 493 563 l 556 678 l 553 758 l 403 928 l 333 1022 l 289 1021 l 232 1022 l 154 907 l 121 856 l 119 832 l 81 811 l 19 719 l 24 633 l 49 611 l 65 593 l 135 533 l 192 476 l 228 464 z "}," ":{"ha":285,"x_min":0,"x_max":0,"o":""},"!":{"ha":331,"x_min":0,"x_max":0,"o":"m 114 607 l 113 422 l 111 360 l 119 336 l 179 336 l 225 353 l 231 499 l 238 640 l 218 665 l 244 714 l 249 906 l 236 933 l 254 943 l 261 1010 l 126 1015 l 82 1007 l 89 974 l 90 933 l 107 913 l 93 896 l 101 672 z m 271 118 l 240 149 l 221 149 l 206 179 l 182 214 l 158 217 l 115 167 l 61 117 l 58 90 l 118 35 l 132 31 l 135 11 l 153 -6 l 171 -8 l 219 47 l 271 94 z "},"\"":{"ha":364,"x_min":0,"x_max":0,"o":"m 218 808 l 217 725 l 276 724 l 306 731 l 313 818 l 319 917 l 326 1000 l 318 1022 l 219 1025 l 206 989 l 214 919 z m 50 811 l 44 740 l 61 722 l 119 721 l 143 735 l 146 818 l 151 908 l 163 1000 l 158 1024 l 42 1025 l 36 989 l 44 917 z "},"#":{"ha":585,"x_min":0,"x_max":0,"o":"m 110 396 l 92 399 l 46 400 l 21 399 l 10 315 l 11 274 l 49 275 l 75 275 l 101 276 l 96 210 l 96 185 l 93 154 l 74 60 l 71 31 l 69 1 l 192 -4 l 197 18 l 204 49 l 201 63 l 204 126 l 192 157 l 208 172 l 213 242 l 217 278 l 301 279 l 324 278 l 318 203 l 333 185 l 307 121 l 299 29 l 297 -1 l 336 -4 l 426 -1 l 429 31 l 432 61 l 428 143 l 433 242 l 433 240 l 436 272 l 439 272 l 510 261 l 544 261 l 554 303 l 558 389 l 521 394 l 485 389 l 447 389 l 458 571 l 458 567 l 467 640 l 526 633 l 560 635 l 569 674 l 579 756 l 563 764 l 479 758 l 488 858 l 500 939 l 514 972 l 518 1007 l 482 1021 l 385 1021 l 381 994 l 376 960 l 376 900 l 378 833 l 368 778 l 365 754 l 357 754 l 288 753 l 258 754 l 265 858 l 282 944 l 286 981 l 286 1015 l 249 1021 l 158 1017 l 154 992 l 153 956 l 153 844 l 169 824 l 153 814 l 149 757 l 121 758 l 96 764 l 74 765 l 44 763 l 35 669 l 36 638 l 108 638 l 139 646 l 135 588 l 128 561 l 118 438 l 114 396 z m 321 646 l 358 647 l 356 611 l 364 589 l 350 565 l 346 500 l 338 438 l 333 386 l 274 388 l 226 390 l 239 571 l 239 567 l 247 646 z "},"$":{"ha":510,"x_min":0,"x_max":0,"o":"m 301 744 l 300 803 l 301 869 l 358 814 l 408 778 l 489 863 l 407 933 l 369 958 l 333 994 l 313 1019 l 304 1021 l 304 1032 l 311 1079 l 310 1119 l 226 1121 l 221 1110 l 228 1078 l 231 1024 l 224 1024 l 142 915 l 107 879 l 117 864 l 94 860 l 24 782 l 24 711 l 99 621 l 119 606 l 175 533 l 201 525 l 200 503 l 217 483 l 236 454 l 233 224 l 226 146 l 168 204 l 143 199 l 151 225 l 89 290 l 22 225 l 6 190 l 106 94 l 225 -18 l 225 -42 l 215 -114 l 233 -121 l 300 -115 l 300 -76 l 292 -47 l 293 -15 l 347 56 l 406 128 l 436 165 l 436 164 l 494 242 l 496 324 l 475 350 l 311 544 l 297 567 z m 201 825 l 218 829 l 243 863 l 244 864 l 246 842 l 239 711 l 238 650 l 158 754 z m 306 358 l 306 360 l 329 336 l 372 274 l 322 197 l 294 160 l 294 185 l 293 376 z "},"%":{"ha":804,"x_min":0,"x_max":0,"o":"m 8 806 l 14 775 l 15 749 l 101 638 l 138 579 l 160 550 l 229 553 l 296 653 l 296 658 l 376 751 l 374 813 l 307 894 l 289 913 l 289 925 l 225 1013 l 158 1011 l 131 964 l 132 967 l 115 942 l 99 915 z m 154 839 l 189 896 l 235 832 l 274 775 l 224 700 l 222 692 l 203 672 l 165 718 l 158 721 l 160 725 l 115 789 l 147 826 z m 432 238 l 436 213 l 438 185 l 526 79 l 563 22 l 582 -6 l 651 -4 l 718 96 l 718 97 l 797 196 l 794 256 l 733 335 l 704 356 l 708 372 l 643 461 l 578 460 l 519 365 z m 614 343 l 660 275 l 700 217 l 646 139 l 647 140 l 628 115 l 588 165 l 578 168 l 579 175 l 538 229 l 574 282 z m 510 635 l 561 756 l 560 751 l 658 914 l 646 929 l 668 936 l 686 965 l 686 997 l 585 1032 l 560 978 l 529 904 l 475 757 l 444 707 l 363 535 l 349 511 l 300 406 l 301 406 l 213 199 l 218 181 l 199 163 l 163 108 l 144 89 l 118 32 l 197 -15 l 232 -1 l 246 25 l 271 100 l 271 99 l 315 206 l 314 206 l 443 494 l 443 493 z "},"&":{"ha":719,"x_min":0,"x_max":0,"o":"m 475 835 l 476 874 l 396 939 l 367 974 l 318 1028 l 224 1021 l 168 940 l 121 881 l 36 793 l 35 736 l 107 656 l 135 653 l 132 618 l 197 543 l 190 538 l 144 483 l 139 472 l 14 339 l 22 263 l 157 114 l 158 106 l 219 32 l 238 -1 l 281 0 l 353 -3 l 390 65 l 431 114 l 483 182 l 486 183 l 539 113 l 560 121 l 557 92 l 569 63 l 639 -21 l 724 40 l 739 83 l 624 206 l 561 285 l 606 346 l 650 399 l 685 431 l 718 479 l 640 550 l 603 547 l 550 464 l 499 392 l 488 372 l 422 449 l 393 449 l 399 482 l 222 696 l 204 717 l 168 767 l 203 814 l 196 826 l 217 833 l 278 900 l 304 872 l 318 872 l 328 847 l 364 811 l 403 771 z m 404 286 l 414 279 l 385 242 l 369 229 l 351 193 l 296 136 l 279 154 l 235 210 l 160 286 l 142 311 l 167 342 l 158 360 l 185 369 l 267 457 z "},"'":{"ha":189,"x_min":0,"x_max":0,"o":"m 44 808 l 39 738 l 56 719 l 114 718 l 138 732 l 140 815 l 146 906 l 157 997 l 153 1021 l 36 1022 l 31 986 l 39 914 z "},"(":{"ha":321,"x_min":0,"x_max":0,"o":"m 51 379 l 61 286 l 81 206 l 90 160 l 135 15 l 164 -3 l 156 -28 l 171 -74 l 193 -122 l 244 -121 l 314 -74 l 296 -28 l 222 101 l 164 340 l 165 336 l 150 515 l 153 540 l 140 578 l 158 588 l 179 722 l 196 842 l 242 929 l 239 961 l 286 993 l 326 1083 l 247 1131 l 201 1136 l 185 1118 l 106 918 l 57 704 l 44 618 l 40 514 l 39 443 z "},")":{"ha":318,"x_min":0,"x_max":0,"o":"m 279 447 l 278 518 l 274 622 l 264 708 l 210 917 l 200 940 l 172 951 l 185 978 l 128 1121 l 111 1139 l 67 1133 l -6 1086 l 43 996 l 78 928 l 118 846 l 142 726 l 160 589 l 160 590 l 168 519 l 158 375 l 176 349 l 156 329 l 96 106 l 22 -36 l 4 -81 l 74 -128 l 128 -129 l 150 -81 l 165 -19 l 153 1 l 185 19 l 229 164 l 239 210 l 260 290 l 269 383 z "},"*":{"ha":307,"x_min":0,"x_max":0,"o":"m 115 1069 l 114 1056 l 119 1021 l 124 968 l 61 982 l 36 989 l 17 988 l 15 958 l 11 914 l 29 907 l 86 907 l 106 904 l 93 886 l 64 851 l 43 821 l 50 803 l 100 781 l 110 778 l 131 813 l 146 844 l 161 868 l 197 807 l 215 778 l 232 786 l 274 818 l 276 838 l 251 863 l 218 908 l 217 910 l 253 913 l 282 915 l 296 924 l 296 960 l 289 996 l 264 996 l 214 978 l 192 972 l 200 1024 l 203 1057 l 201 1068 l 164 1074 z "},"+":{"ha":528,"x_min":0,"x_max":0,"o":"m 213 563 l 161 563 l 119 568 l 90 574 l 31 574 l 26 482 l 32 453 l 69 451 l 125 458 l 190 458 l 211 458 l 211 429 l 217 406 l 211 363 l 210 342 l 206 318 l 200 275 l 194 244 l 231 238 l 272 238 l 326 244 l 332 272 l 331 307 l 324 333 l 322 457 l 335 457 l 386 451 l 458 446 l 494 440 l 501 479 l 501 561 l 496 574 l 425 565 l 376 564 l 363 556 l 318 564 l 319 600 l 329 696 l 322 718 l 333 768 l 307 781 l 207 782 l 204 742 l 211 636 l 217 628 z "},",":{"ha":253,"x_min":0,"x_max":0,"o":"m 238 111 l 186 150 l 171 176 l 139 204 l 118 206 l 79 154 l 26 104 l 25 81 l 86 31 l 79 1 l 33 -56 l 7 -75 l -7 -100 l 67 -153 l 89 -132 l 129 -81 l 129 -60 l 157 -39 l 192 13 l 232 74 l 239 83 z "},"-":{"ha":358,"x_min":0,"x_max":0,"o":"m 110 563 l 76 569 l 57 571 l 33 568 l 22 489 l 26 443 l 46 438 l 83 440 l 114 442 l 228 447 l 308 439 l 332 454 l 333 558 l 315 576 l 275 572 l 178 558 z "},".":{"ha":242,"x_min":0,"x_max":0,"o":"m 226 115 l 196 146 l 176 146 l 161 176 l 138 211 l 114 214 l 71 164 l 17 114 l 14 88 l 74 32 l 88 28 l 90 8 l 108 -8 l 126 -11 l 175 44 l 226 92 z "},"/":{"ha":471,"x_min":0,"x_max":0,"o":"m 342 675 l 374 772 l 357 792 l 381 801 l 450 981 l 443 994 l 465 1013 l 476 1042 l 358 1078 l 336 1018 l 321 967 l 265 794 l 247 743 l 189 561 l 178 535 l 143 422 l 143 424 l 72 203 l 85 186 l 67 179 l 21 61 l 15 50 l 7 33 l -12 -26 l 71 -60 l 107 -65 l 128 -7 l 129 24 l 157 106 l 190 221 l 190 219 l 238 356 l 289 526 z "},":":{"ha":242,"x_min":0,"x_max":0,"o":"m 226 107 l 196 138 l 176 138 l 161 168 l 138 203 l 114 206 l 71 156 l 17 106 l 14 79 l 74 24 l 88 19 l 90 0 l 108 -17 l 126 -19 l 175 36 l 226 83 z m 226 576 l 196 607 l 176 607 l 161 638 l 138 672 l 114 675 l 71 625 l 17 575 l 14 549 l 74 493 l 88 489 l 90 469 l 108 453 l 126 450 l 175 506 l 226 553 z "},";":{"ha":253,"x_min":0,"x_max":0,"o":"m 231 576 l 200 607 l 181 607 l 165 638 l 142 672 l 118 675 l 75 625 l 21 575 l 18 549 l 78 493 l 92 489 l 94 469 l 113 453 l 131 450 l 179 506 l 231 553 z m 236 103 l 185 142 l 169 168 l 138 196 l 117 197 l 78 146 l 25 96 l 24 72 l 85 22 l 78 -7 l 32 -64 l 6 -83 l -8 -108 l 65 -161 l 88 -140 l 128 -89 l 128 -68 l 156 -47 l 190 4 l 231 65 l 238 75 z "},"<":{"ha":528,"x_min":0,"x_max":0,"o":"m 129 617 l 99 597 l 68 578 l 26 560 l 28 490 l 31 465 l 100 422 l 99 422 l 126 399 l 154 399 l 204 364 l 343 285 l 342 285 l 357 271 l 400 239 l 444 236 l 474 285 l 501 350 l 429 374 b 407 379 421 375 414 376 l 301 438 l 263 453 l 264 451 l 171 517 l 256 575 l 254 574 l 286 585 l 351 625 l 351 624 l 401 643 l 486 676 l 476 751 l 425 796 l 368 769 b 326 736 353 754 339 743 l 267 697 l 231 669 l 225 644 l 192 651 z "},"=":{"ha":528,"x_min":0,"x_max":0,"o":"m 101 665 l 103 665 l 42 675 l 31 615 l 32 600 l 31 547 l 74 544 l 114 547 l 146 556 l 294 549 l 331 551 l 344 568 l 368 551 l 456 542 l 499 563 l 501 668 l 440 668 l 406 657 l 361 657 l 285 649 l 257 656 z m 126 453 l 94 461 l 35 458 l 31 406 l 31 400 l 26 336 l 71 333 l 106 335 l 140 344 l 300 343 l 319 344 l 456 331 l 501 349 l 497 464 l 382 457 l 263 449 l 239 453 z "},">":{"ha":528,"x_min":0,"x_max":0,"o":"m 399 411 l 429 431 l 460 450 l 501 468 l 500 538 l 497 563 l 428 606 l 429 606 l 401 629 l 374 629 l 324 664 l 185 743 l 186 743 l 171 757 l 128 789 l 83 792 l 54 743 l 26 678 l 99 654 b 121 649 107 653 114 651 l 226 590 l 265 575 l 264 576 l 357 511 l 272 453 l 274 454 l 242 443 l 176 403 l 176 404 l 126 385 l 42 351 l 51 276 l 103 232 l 160 258 b 201 292 175 274 189 285 l 261 331 l 297 358 l 303 383 l 336 376 z "},"?":{"ha":489,"x_min":0,"x_max":0,"o":"m 301 532 l 335 582 l 457 717 l 460 799 l 375 885 l 344 897 l 350 917 l 294 1008 l 204 1021 l 176 983 l 172 978 l 89 889 l 8 814 l 31 763 l 74 721 l 114 713 l 158 796 l 186 839 l 200 851 l 215 864 l 244 842 l 263 813 l 308 794 l 296 778 l 321 739 l 307 714 l 283 685 l 243 647 l 218 613 l 201 588 l 204 590 l 172 557 l 178 482 l 174 429 l 185 381 l 174 354 l 176 321 l 299 315 l 314 368 l 308 386 l 301 400 l 308 408 l 300 528 z m 350 115 l 319 146 l 300 146 l 285 176 l 261 211 l 238 214 l 194 164 l 140 114 l 138 88 l 197 32 l 211 28 l 214 8 l 232 -8 l 250 -11 l 299 44 l 350 92 z "},"@":{"ha":779,"x_min":0,"x_max":0,"o":"m 363 925 l 340 893 l 281 825 l 228 767 l 224 744 l 204 746 l 63 610 l 56 594 l -1 546 l -3 464 l 33 431 l 149 308 l 178 297 l 197 261 l 350 99 l 371 64 l 453 64 l 533 138 l 611 214 l 613 214 l 713 289 l 738 322 l 713 367 l 665 400 l 549 297 l 549 276 l 521 269 l 451 203 l 424 181 l 268 333 l 243 335 l 251 350 l 126 485 l 113 504 l 164 561 l 279 676 l 278 701 l 313 708 l 340 736 l 417 815 l 432 803 l 511 719 l 511 721 l 511 719 l 579 653 l 607 640 l 611 622 l 639 594 l 631 585 l 579 536 l 549 574 l 500 626 l 482 624 l 485 647 l 444 693 l 389 688 l 332 621 l 289 579 l 272 564 l 222 522 l 221 478 l 244 449 l 272 421 l 306 407 l 307 388 l 389 292 l 447 288 l 517 361 l 576 411 l 569 440 l 603 431 l 753 547 l 757 594 l 756 636 l 632 742 l 621 735 l 624 750 l 469 922 z m 424 401 l 379 449 l 379 450 l 338 493 l 418 576 l 504 482 l 475 446 z "},"A":{"ha":590,"x_min":0,"x_max":0,"o":"m 388 285 l 399 239 l 411 231 l 400 217 l 406 178 l 424 3 l 447 -10 l 465 -10 l 568 24 l 553 83 l 532 106 l 540 117 l 526 204 l 492 333 l 492 353 l 425 688 l 408 700 l 418 725 l 374 938 l 368 951 l 364 963 l 365 1011 l 342 1022 l 228 1017 l 214 929 l 201 871 l 192 815 l 207 794 l 182 765 l 140 579 l 140 554 l 132 525 l 128 499 l 100 328 l 101 300 l 86 285 l 72 197 l 35 28 l 83 -3 l 169 -11 l 185 82 l 175 121 l 188 136 l 203 235 l 231 246 l 243 251 l 336 274 l 364 293 l 365 293 l 385 296 z m 260 603 l 253 625 l 267 632 l 294 801 l 315 654 l 321 629 l 326 557 l 354 407 l 315 397 l 225 369 l 226 379 l 243 469 l 242 468 z "},"B":{"ha":544,"x_min":0,"x_max":0,"o":"m 319 63 l 368 101 l 408 151 l 465 192 l 519 247 l 521 311 l 519 340 l 374 479 l 358 493 l 338 511 l 328 519 l 397 600 l 479 689 l 489 771 l 483 799 l 389 874 l 206 1036 l 89 1003 l 92 924 l 96 903 l 110 889 l 94 847 l 96 688 l 101 539 l 93 475 l 93 267 l 99 201 l 88 13 l 164 -1 l 222 -19 z m 233 468 l 296 413 l 329 378 l 349 360 l 399 297 l 346 239 l 329 228 l 292 196 l 221 121 l 222 206 l 208 219 l 221 231 l 221 476 z m 213 681 l 217 753 l 215 875 l 310 792 l 321 790 l 328 774 l 371 735 l 369 735 l 321 682 l 315 647 l 294 644 l 226 571 l 215 563 z "},"C":{"ha":431,"x_min":0,"x_max":0,"o":"m 44 411 l 94 321 l 158 261 l 147 236 l 253 72 l 256 56 l 303 -18 l 350 13 l 422 72 l 390 124 l 318 218 l 254 326 l 203 406 l 190 433 l 171 453 l 157 479 l 136 519 l 154 553 l 181 600 l 226 672 l 310 796 l 317 833 l 340 849 l 379 903 l 418 972 l 314 1042 l 265 985 l 264 974 l 186 846 l 186 840 l 151 785 l 151 751 l 101 703 l 11 550 l 13 461 z "},"D":{"ha":550,"x_min":0,"x_max":0,"o":"m 324 132 l 372 231 l 515 450 l 540 492 l 539 593 l 514 625 l 515 622 l 410 763 l 374 826 l 325 875 l 310 921 l 224 1039 l 150 1017 l 90 999 l 92 947 l 96 875 l 110 857 l 96 831 l 97 467 l 106 413 l 97 101 l 97 103 l 94 10 l 185 -3 l 231 -15 z m 221 651 l 217 853 l 225 843 l 363 622 l 390 600 l 396 567 l 421 529 l 396 489 l 350 413 l 292 300 l 303 288 l 278 275 l 217 176 l 215 174 l 217 249 l 222 524 l 200 589 z "},"E":{"ha":503,"x_min":0,"x_max":0,"o":"m 443 890 l 446 968 l 444 1022 l 307 1021 l 253 1010 l 233 1021 l 154 1021 l 89 1013 l 96 914 l 111 896 l 96 872 l 97 801 l 96 693 l 96 590 l 92 539 l 103 401 l 97 390 l 99 315 l 99 283 l 111 267 l 94 231 l 93 167 l 94 151 l 86 57 l 93 0 l 197 -1 l 208 6 l 257 6 l 336 -3 l 428 -4 l 460 10 l 465 61 l 468 131 l 399 132 l 364 121 l 253 119 l 242 122 l 229 125 l 226 260 l 225 263 l 229 275 l 221 315 l 226 458 l 249 458 l 336 456 l 404 453 l 407 510 l 415 551 l 397 586 l 326 579 l 272 576 l 221 579 l 218 633 l 204 644 l 219 669 l 226 711 l 226 849 l 229 883 l 229 899 l 242 899 l 318 896 l 340 900 l 344 901 l 378 890 z "},"F":{"ha":483,"x_min":0,"x_max":0,"o":"m 100 397 l 96 256 l 114 231 l 94 171 l 88 7 l 186 -3 l 242 0 l 242 68 l 235 88 l 238 131 l 232 189 l 228 250 l 229 367 l 225 425 l 225 451 l 333 449 l 340 453 l 363 443 l 410 443 l 421 489 l 425 524 l 417 582 l 328 576 l 308 576 l 228 574 l 225 746 l 204 767 l 221 776 l 224 844 l 228 894 l 238 894 l 257 899 l 306 901 l 388 888 l 442 889 l 454 951 l 454 1022 l 306 1021 l 290 1004 l 254 1018 l 161 1021 l 90 1019 l 94 932 l 92 864 l 100 839 l 100 831 l 106 592 l 103 581 l 103 549 z "},"G":{"ha":521,"x_min":0,"x_max":0,"o":"m 326 576 l 328 461 l 333 444 l 336 433 l 328 214 l 326 206 l 279 308 l 257 306 l 256 349 l 174 483 l 149 524 l 167 551 l 199 613 l 253 701 l 358 850 l 357 869 l 406 911 l 438 965 l 401 999 l 386 1010 l 333 1040 l 268 950 l 271 935 l 197 846 l 183 808 l 78 647 l 51 597 l 44 588 l 24 574 l 21 471 l 88 369 l 129 313 l 161 251 l 163 250 l 231 128 l 279 54 l 296 21 l 314 -15 l 446 -1 l 444 61 l 432 81 l 444 89 l 451 433 l 447 442 l 464 540 l 447 582 z "},"H":{"ha":651,"x_min":0,"x_max":0,"o":"m 94 232 l 97 144 l 117 124 l 94 97 l 90 4 l 178 -4 l 235 -1 l 236 50 l 232 113 l 224 186 l 225 190 l 232 432 l 340 478 l 342 478 l 422 496 l 421 471 l 425 451 l 422 238 l 443 215 l 429 203 l 419 47 l 438 -1 l 518 -1 l 569 1 l 567 78 l 557 113 l 554 290 l 551 539 l 549 567 l 544 629 l 551 760 l 539 800 l 553 818 l 554 871 l 554 869 l 563 949 l 567 1018 l 488 1021 l 436 1022 l 415 982 l 422 926 l 425 801 l 429 675 l 424 638 l 408 631 l 382 618 l 325 593 l 313 578 l 290 586 l 232 565 l 229 564 l 217 699 l 222 790 l 207 803 l 224 829 l 231 914 l 236 1014 l 117 1029 l 83 1007 l 93 921 l 89 893 l 93 801 l 103 715 l 97 579 l 107 422 z "},"I":{"ha":336,"x_min":0,"x_max":0,"o":"m 115 604 l 111 528 l 107 485 l 107 225 l 107 175 l 124 151 l 107 124 l 88 0 l 151 -1 l 181 -3 l 242 17 l 243 68 l 240 94 l 238 115 l 238 500 l 222 510 l 235 539 l 232 574 l 226 628 l 231 699 l 235 881 l 242 915 l 249 1017 l 158 1022 l 93 1018 l 100 949 l 113 942 l 101 917 l 106 639 z "},"J":{"ha":388,"x_min":0,"x_max":0,"o":"m 165 601 l 158 525 l 160 439 l 161 419 l 161 365 l 156 214 l 158 201 l 138 172 l 76 132 l 15 107 l 15 35 l 92 -22 l 194 61 l 193 89 l 231 94 l 275 133 l 297 172 l 281 411 l 269 453 l 285 464 l 279 851 l 296 974 l 278 1022 l 146 1019 l 146 942 l 171 928 l 153 906 l 157 671 z "},"K":{"ha":581,"x_min":0,"x_max":0,"o":"m 82 1014 l 97 915 l 94 804 l 101 629 l 114 554 l 106 254 l 106 246 l 103 224 l 119 204 l 96 149 l 97 143 l 93 142 l 92 -3 l 165 -4 l 239 -1 l 240 69 l 235 96 l 233 111 l 232 179 l 226 246 l 226 474 l 282 358 l 281 356 l 328 279 l 321 261 l 394 96 l 435 -7 l 469 -8 l 569 47 l 529 138 l 510 142 l 517 161 l 469 240 l 421 347 l 339 535 l 332 546 l 432 736 l 428 740 l 432 747 l 517 888 l 557 961 l 514 994 l 429 1028 l 386 926 l 392 892 l 353 853 l 329 793 l 274 660 l 250 622 l 229 568 l 225 557 l 225 599 l 222 665 l 236 1010 l 183 1028 z "},"L":{"ha":461,"x_min":0,"x_max":0,"o":"m 338 125 l 232 122 l 232 163 l 226 260 l 228 261 l 224 357 l 221 442 l 204 460 l 219 483 l 219 551 l 228 704 l 232 860 l 238 907 l 240 997 l 204 1029 l 158 1018 l 86 1018 l 96 867 l 118 860 l 100 836 l 103 383 l 93 154 l 106 119 l 88 94 l 90 0 l 153 -3 l 214 8 l 226 0 l 286 0 l 306 1 l 411 -6 l 432 21 l 438 108 l 433 138 l 368 135 z "},"M":{"ha":685,"x_min":0,"x_max":0,"o":"m 258 901 l 196 1028 l 144 1021 l 85 1017 l 86 939 l 88 925 l 100 907 l 101 900 l 90 881 l 94 813 l 99 744 l 97 619 l 119 604 l 97 581 l 89 199 l 89 163 l 89 135 l 101 101 l 101 103 l 83 50 l 94 -3 l 225 0 l 225 60 l 222 264 l 213 461 l 222 485 l 222 676 l 221 678 l 221 679 l 224 772 l 253 715 l 263 693 l 268 682 l 301 617 l 339 615 l 389 625 l 408 675 l 426 708 l 426 722 l 450 753 l 463 775 l 468 724 l 458 421 l 464 357 l 479 343 l 463 318 l 463 169 l 453 78 l 457 18 l 490 -3 l 606 3 l 597 90 l 594 135 l 585 211 l 592 299 l 581 746 l 567 765 l 583 797 l 593 1003 l 556 1019 l 488 1032 l 415 911 l 426 888 l 406 881 l 361 800 l 338 764 l 336 765 z "},"N":{"ha":647,"x_min":0,"x_max":0,"o":"m 554 122 l 554 167 l 544 471 l 529 517 l 540 575 l 554 917 l 557 1011 l 500 1021 l 419 1019 l 419 908 l 433 889 l 419 846 l 419 726 l 374 801 l 363 807 l 328 863 l 203 1035 l 93 1004 l 93 932 l 99 788 l 104 708 l 99 419 l 111 392 l 100 351 l 92 154 l 92 131 l 96 118 l 86 7 l 146 -4 l 228 -1 l 231 88 l 226 107 l 228 251 l 215 304 l 222 354 l 225 671 l 208 689 l 207 692 l 226 742 l 226 817 l 263 767 l 319 688 l 360 639 l 379 608 l 399 588 l 421 550 l 422 406 l 426 379 l 422 372 l 421 239 l 422 107 l 421 -1 l 468 -4 l 544 -3 l 563 44 z "},"O":{"ha":578,"x_min":0,"x_max":0,"o":"m 288 1024 l 275 1022 l 224 1022 l 221 1013 l 213 971 l 207 963 l 132 775 l 139 760 l 114 742 l 39 560 l 28 553 l 31 465 l 64 394 l 114 276 l 156 190 l 171 190 l 167 167 l 215 46 l 217 0 l 343 -1 l 346 14 l 363 58 l 438 236 l 469 303 l 471 325 l 482 339 l 550 476 l 554 553 l 507 656 l 469 739 l 456 739 l 449 776 l 378 950 l 350 1026 z m 290 176 l 229 336 l 201 393 l 174 413 l 188 429 l 175 469 l 157 515 l 156 532 l 201 651 l 192 674 l 211 679 l 288 881 l 296 854 l 328 769 l 353 754 l 340 738 l 394 597 l 411 550 l 422 515 l 354 349 l 356 324 l 357 324 l 340 307 l 296 161 z "},"P":{"ha":519,"x_min":0,"x_max":0,"o":"m 415 535 l 460 578 l 503 631 l 506 726 l 361 879 l 332 889 l 326 913 l 201 1042 l 157 1025 l 90 996 l 93 903 l 100 846 l 100 618 l 97 611 l 96 264 l 113 246 l 100 203 l 85 4 l 165 -4 l 235 0 l 226 172 l 204 192 l 226 225 l 224 321 l 236 335 l 329 440 z m 225 629 l 210 657 l 224 700 l 222 767 l 224 865 l 304 775 l 317 767 l 326 747 l 386 681 l 364 649 l 350 614 l 335 618 l 265 536 l 225 493 z "},"Q":{"ha":581,"x_min":0,"x_max":0,"o":"m 276 1022 l 240 1025 l 129 764 l 138 718 l 103 697 l 28 560 l 26 488 l 64 403 l 125 264 l 151 243 l 150 243 l 147 214 l 239 21 l 258 -33 l 279 -57 l 274 -75 l 318 -203 l 361 -219 l 465 -161 l 450 -126 l 386 1 l 369 35 l 371 42 l 375 56 l 386 78 l 438 207 l 435 239 l 433 239 l 460 249 l 490 326 l 504 363 l 506 363 l 563 474 l 574 543 l 506 694 l 500 694 l 458 781 l 356 1032 z m 217 381 l 181 482 l 164 531 l 196 633 l 231 693 l 229 711 l 301 878 l 368 685 l 393 669 l 400 614 l 424 557 l 442 511 l 301 163 l 299 168 z "},"R":{"ha":568,"x_min":0,"x_max":0,"o":"m 231 428 l 286 315 l 299 283 l 350 186 l 367 178 l 365 154 l 414 43 l 447 -11 l 560 51 l 561 92 l 515 140 l 490 193 l 490 192 l 471 232 l 463 236 l 463 254 l 407 349 b 378 382 397 363 389 369 l 378 406 b 343 465 369 422 353 446 l 382 518 l 406 547 l 450 600 l 514 678 l 524 761 l 457 822 b 432 817 456 822 433 815 l 424 851 l 203 1043 l 93 999 l 99 879 l 106 614 l 94 586 l 97 514 l 103 351 l 103 297 l 115 279 l 94 225 l 86 4 l 178 -4 l 233 18 l 232 133 l 228 146 l 224 285 l 222 436 z m 225 558 l 219 682 l 217 697 l 214 706 l 208 731 l 219 757 l 219 771 l 222 878 l 350 751 l 360 744 l 388 710 l 372 690 b 301 599 354 665 321 622 l 232 513 l 222 507 z "},"S":{"ha":438,"x_min":0,"x_max":0,"o":"m 199 247 l 201 232 l 163 214 b 139 174 154 200 147 188 b 103 119 126 154 117 139 l 76 96 l 56 44 l 169 -26 l 207 19 l 222 64 l 221 58 b 235 88 225 67 229 78 l 290 163 l 365 254 l 415 336 l 413 444 l 375 472 l 246 593 l 224 607 l 197 644 l 171 676 l 213 732 l 215 742 l 229 761 l 308 854 l 321 879 l 357 915 l 394 971 l 313 1036 l 271 1040 l 238 985 b 239 968 236 981 242 974 l 211 950 l 175 901 l 178 886 l 107 804 l 39 707 l 40 619 l 107 554 l 214 456 l 242 443 l 289 386 z "},"T":{"ha":483,"x_min":0,"x_max":0,"o":"m 336 1019 l 272 1015 b 214 1017 253 1015 235 1015 b 182 1007 203 1017 190 1007 l 156 1018 l 21 1025 l 17 911 l 33 894 l 118 897 b 140 901 122 897 131 899 l 147 908 l 178 904 l 186 847 l 181 758 l 189 693 l 182 410 l 175 214 l 188 200 l 167 113 l 167 6 l 240 -6 l 279 1 l 319 24 l 308 122 l 308 383 l 292 410 l 293 411 l 306 494 l 304 601 l 304 625 b 303 658 304 635 303 647 b 301 714 301 667 301 701 l 304 817 l 299 847 l 307 906 l 350 906 l 392 903 l 406 899 l 468 899 l 472 964 l 464 1022 z "},"U":{"ha":646,"x_min":0,"x_max":0,"o":"m 110 242 l 124 226 l 104 201 l 100 136 l 101 67 l 185 -6 l 272 -7 l 317 17 l 422 71 l 425 61 l 436 -14 l 571 8 l 551 117 l 543 279 l 546 588 l 539 628 l 525 642 l 539 665 l 540 685 l 543 761 l 553 851 l 539 867 l 554 875 l 558 950 l 550 1018 l 486 1019 l 417 1018 l 414 919 l 419 744 l 419 629 l 428 460 l 424 283 l 418 193 l 304 144 l 258 128 l 247 129 l 232 142 l 231 163 l 221 325 l 231 489 l 228 593 l 226 644 l 225 692 l 235 744 l 221 775 l 219 800 l 233 850 l 238 894 l 239 1018 l 114 1021 l 96 969 l 104 746 l 111 703 l 100 674 l 99 575 l 108 424 z "},"V":{"ha":597,"x_min":0,"x_max":0,"o":"m 253 544 l 221 751 l 214 763 l 215 768 l 193 869 l 171 1028 l 90 1022 l 28 994 l 79 818 l 90 724 b 113 640 96 699 104 668 l 129 617 l 124 569 l 139 515 l 139 519 l 181 247 l 197 239 l 190 206 l 215 53 l 239 -8 l 294 -7 l 368 -4 l 394 113 l 411 210 l 397 239 l 417 258 l 463 469 l 463 478 b 461 488 463 481 461 486 b 460 490 460 490 460 488 l 478 525 l 510 758 b 518 797 511 774 514 785 l 531 844 b 553 931 538 874 546 906 l 569 1007 l 449 1028 l 425 1001 l 404 857 l 413 833 l 414 824 l 393 810 l 369 658 l 356 524 l 342 482 l 321 344 l 322 346 l 304 196 l 289 346 z "},"W":{"ha":707,"x_min":0,"x_max":0,"o":"m 488 274 l 486 264 l 436 514 l 428 529 l 428 567 l 418 596 l 354 608 l 300 600 l 228 268 l 215 661 l 215 660 l 211 782 l 200 858 l 218 1010 l 175 1031 l 129 1022 l 132 1024 l 63 1018 l 74 833 l 82 824 l 93 507 l 110 493 l 104 467 l 110 339 l 119 111 l 124 68 l 124 4 l 194 -6 l 203 -6 l 260 -4 l 260 39 l 303 181 l 303 201 l 358 390 l 404 197 l 426 190 l 419 151 b 444 57 429 115 435 94 l 451 -4 l 515 -3 l 588 0 l 588 90 l 589 94 l 603 269 l 606 313 l 592 329 l 607 351 l 633 750 l 622 763 l 633 782 l 650 1004 l 608 1024 l 510 1026 l 507 949 l 515 825 l 515 774 l 508 760 b 497 540 506 692 500 608 z "},"X":{"ha":576,"x_min":0,"x_max":0,"o":"m 56 103 l 26 26 l 111 -1 l 161 -10 l 183 36 l 224 175 l 224 174 l 250 258 l 249 257 l 288 394 l 364 165 l 363 153 l 396 64 l 396 43 l 428 -17 l 550 21 l 540 88 l 532 97 l 504 99 l 522 113 l 475 229 l 461 247 l 424 364 l 386 469 l 364 540 l 381 585 l 381 582 l 442 721 l 442 719 l 492 839 l 481 863 l 503 878 l 558 992 l 468 1032 l 454 1032 l 414 1029 l 389 919 l 397 913 l 385 906 l 349 810 l 335 764 l 300 675 l 296 658 l 275 718 l 258 761 l 253 775 l 242 832 l 211 901 l 213 896 l 172 1035 l 97 1022 l 35 989 l 101 829 l 132 828 l 111 804 l 172 668 l 172 669 l 188 628 l 194 617 l 204 594 l 225 551 l 178 424 l 181 413 l 146 333 l 121 271 l 97 210 l 101 178 l 82 171 z "},"Y":{"ha":556,"x_min":0,"x_max":0,"o":"m 310 -4 l 350 24 l 340 114 l 342 174 l 336 197 l 342 297 l 325 311 l 340 353 l 339 393 l 343 408 l 342 449 l 382 561 l 436 719 l 457 781 l 478 824 l 488 843 l 472 856 l 504 869 l 543 969 l 500 1000 l 471 1010 l 408 1028 l 396 960 l 379 919 l 356 825 l 335 779 l 314 697 l 289 610 l 283 603 l 268 653 l 253 675 l 257 686 l 246 736 l 219 790 l 190 894 l 179 928 l 179 951 l 151 1026 l 106 1015 l 29 992 l 26 947 l 58 890 l 85 879 l 76 835 l 100 771 l 119 724 l 119 725 l 174 588 l 203 503 l 217 436 l 214 376 l 219 197 l 233 179 l 217 146 l 207 78 l 204 -1 z "},"Z":{"ha":501,"x_min":0,"x_max":0,"o":"m 268 1015 l 206 1017 l 175 999 l 169 1019 l 57 1021 l 47 908 l 71 883 l 124 886 l 174 892 l 247 896 l 297 896 l 294 865 l 256 749 l 281 736 l 249 710 l 204 569 l 154 425 l 94 282 l 94 249 l 36 100 l 64 0 l 142 0 l 221 18 l 233 4 l 282 3 l 375 3 l 443 -6 l 454 74 l 454 121 l 433 142 l 325 129 l 268 128 l 192 126 l 225 254 l 211 271 l 239 303 l 271 422 l 269 419 l 342 600 l 364 686 l 394 794 l 393 789 l 436 897 l 451 899 l 449 964 l 438 1022 l 390 1021 z "},"[":{"ha":339,"x_min":0,"x_max":0,"o":"m 101 542 l 101 300 b 103 219 101 269 103 240 l 96 104 l 101 -4 l 97 -32 l 94 -89 l 132 -100 b 158 -99 138 -100 151 -100 l 172 -99 l 335 -103 l 336 -26 l 325 3 l 271 0 l 233 -6 l 210 -6 l 215 138 l 210 189 l 192 200 l 210 218 l 210 311 l 211 403 l 215 524 l 210 547 l 215 738 l 210 782 l 211 994 l 211 1017 l 272 1011 l 331 1011 l 333 1083 l 319 1114 l 272 1114 l 244 1113 l 167 1114 l 104 1113 l 92 1078 l 96 1042 b 100 908 97 1004 99 956 l 124 893 l 101 871 b 103 817 101 851 103 833 l 96 703 z "},"\\":{"ha":471,"x_min":0,"x_max":0,"o":"m 175 526 l 226 356 l 274 219 l 274 221 l 307 106 l 335 24 l 336 -7 l 357 -65 l 393 -60 l 476 -26 l 457 33 l 449 50 l 443 61 l 397 179 l 379 186 l 392 203 l 321 424 l 321 422 l 286 535 l 275 561 l 217 743 l 199 794 l 143 967 l 128 1018 l 106 1078 l -12 1042 l -1 1013 l 21 994 l 14 981 l 83 801 l 107 792 l 90 772 l 122 675 z "},"]":{"ha":335,"x_min":0,"x_max":0,"o":"m 235 469 l 235 711 l 233 792 l 240 907 l 235 1015 l 239 1043 l 242 1100 l 204 1111 l 178 1110 l 164 1110 l 8 1114 l 3 1038 l 14 1008 l 65 1011 l 103 1017 l 126 1017 l 121 874 l 126 822 l 144 811 l 126 793 l 126 700 l 125 608 l 121 488 l 126 464 l 121 274 l 126 229 l 125 17 l 125 -6 l 64 0 l 3 0 l -1 -72 l 13 -103 l 64 -103 l 92 -101 l 169 -103 l 232 -101 l 244 -67 l 240 -31 l 236 103 l 213 118 l 235 140 l 233 194 l 240 308 z "},"^":{"ha":636,"x_min":0,"x_max":0,"o":"m 99 -3 l 138 3 l 154 0 l 232 0 l 244 1 l 514 -4 l 575 -1 l 576 22 l 578 115 l 563 128 l 572 163 l 568 667 l 576 901 l 572 946 l 581 978 l 578 1025 l 558 1028 l 492 1022 l 478 1025 l 344 1025 l 332 1024 l 60 1028 l 67 1008 l 57 1006 l 60 910 l 69 897 l 60 863 l 64 372 l 57 125 l 65 81 l 54 47 l 54 0 l 69 -3 l 92 0 z m 110 131 l 108 126 l 108 236 l 92 244 l 108 267 l 104 340 l 104 347 l 103 468 l 101 486 l 101 556 l 110 724 l 115 890 l 117 900 l 118 976 l 526 978 l 525 886 l 524 803 l 540 779 l 524 772 l 528 699 l 528 692 l 529 571 l 531 553 l 531 483 l 522 315 l 521 150 l 515 49 l 492 49 l 106 46 z "},"_":{"ha":694,"x_min":0,"x_max":0,"o":"m 106 -14 l 69 -10 l 50 -8 l 26 -11 l 18 -87 l 22 -133 l 42 -139 l 79 -136 l 110 -135 l 246 -133 l 251 -118 l 296 -133 l 571 -129 l 651 -137 l 675 -122 l 676 -25 l 658 -7 l 618 -11 l 521 -18 l 479 -32 l 447 -17 z "},"`":{"ha":267,"x_min":0,"x_max":0,"o":"m 122 1089 l 143 1060 l 156 1051 l 210 1067 l 239 1088 l 204 1131 l 150 1210 l 129 1229 l 54 1200 l 28 1179 l 68 1139 z "},"a":{"ha":590,"x_min":0,"x_max":0,"o":"m 388 285 l 399 239 l 411 231 l 400 217 l 406 178 l 424 3 l 447 -10 l 465 -10 l 568 24 l 553 83 l 532 106 l 540 117 l 526 204 l 492 333 l 492 353 l 425 688 l 408 700 l 418 725 l 374 938 l 368 951 l 364 963 l 365 1011 l 342 1022 l 228 1017 l 214 929 l 201 871 l 192 815 l 207 794 l 182 765 l 140 579 l 140 554 l 132 525 l 128 499 l 100 328 l 101 300 l 86 285 l 72 197 l 35 28 l 83 -3 l 169 -11 l 185 82 l 175 121 l 188 136 l 203 235 l 231 246 l 243 251 l 336 274 l 364 293 l 365 293 l 385 296 z m 260 603 l 253 625 l 267 632 l 294 801 l 315 654 l 321 629 l 326 557 l 354 407 l 315 397 l 225 369 l 226 379 l 243 469 l 242 468 z "},"b":{"ha":544,"x_min":0,"x_max":0,"o":"m 319 63 l 368 101 l 408 151 l 465 192 l 519 247 l 521 311 l 519 340 l 374 479 l 358 493 l 338 511 l 328 519 l 397 600 l 479 689 l 489 771 l 483 799 l 389 874 l 206 1036 l 89 1003 l 92 924 l 96 903 l 110 889 l 94 847 l 96 688 l 101 539 l 93 475 l 93 267 l 99 201 l 88 13 l 164 -1 l 222 -19 z m 233 468 l 296 413 l 329 378 l 349 360 l 399 297 l 346 239 l 329 228 l 292 196 l 221 121 l 222 206 l 208 219 l 221 231 l 221 476 z m 213 681 l 217 753 l 215 875 l 310 792 l 321 790 l 328 774 l 371 735 l 369 735 l 321 682 l 315 647 l 294 644 l 226 571 l 215 563 z "},"d":{"ha":550,"x_min":0,"x_max":0,"o":"m 324 132 l 372 231 l 515 450 l 540 492 l 539 593 l 514 625 l 515 622 l 410 763 l 374 826 l 325 875 l 310 921 l 224 1039 l 150 1017 l 90 999 l 92 947 l 96 875 l 110 857 l 96 831 l 97 467 l 106 413 l 97 101 l 97 103 l 94 10 l 185 -3 l 231 -15 z m 221 651 l 217 853 l 225 843 l 363 622 l 390 600 l 396 567 l 421 529 l 396 489 l 350 413 l 292 300 l 303 288 l 278 275 l 217 176 l 215 174 l 217 249 l 222 524 l 200 589 z "},"e":{"ha":503,"x_min":0,"x_max":0,"o":"m 443 890 l 446 968 l 444 1022 l 307 1021 l 253 1010 l 233 1021 l 154 1021 l 89 1013 l 96 914 l 111 896 l 96 872 l 97 801 l 96 693 l 96 590 l 92 539 l 103 401 l 97 390 l 99 315 l 99 283 l 111 267 l 94 231 l 93 167 l 94 151 l 86 57 l 93 0 l 197 -1 l 208 6 l 257 6 l 336 -3 l 428 -4 l 460 10 l 465 61 l 468 131 l 399 132 l 364 121 l 253 119 l 242 122 l 229 125 l 226 260 l 225 263 l 229 275 l 221 315 l 226 458 l 249 458 l 336 456 l 404 453 l 407 510 l 415 551 l 397 586 l 326 579 l 272 576 l 221 579 l 218 633 l 204 644 l 219 669 l 226 711 l 226 849 l 229 883 l 229 899 l 242 899 l 318 896 l 340 900 l 344 901 l 378 890 z "},"f":{"ha":483,"x_min":0,"x_max":0,"o":"m 100 397 l 96 256 l 114 231 l 94 171 l 88 7 l 186 -3 l 242 0 l 242 68 l 235 88 l 238 131 l 232 189 l 228 250 l 229 367 l 225 425 l 225 451 l 333 449 l 340 453 l 363 443 l 410 443 l 421 489 l 425 524 l 417 582 l 328 576 l 308 576 l 228 574 l 225 746 l 204 767 l 221 776 l 224 844 l 228 894 l 238 894 l 257 899 l 306 901 l 388 888 l 442 889 l 454 951 l 454 1022 l 306 1021 l 290 1004 l 254 1018 l 161 1021 l 90 1019 l 94 932 l 92 864 l 100 839 l 100 831 l 106 592 l 103 581 l 103 549 z "},"i":{"ha":336,"x_min":0,"x_max":0,"o":"m 115 604 l 111 528 l 107 485 l 107 225 l 107 175 l 124 151 l 107 124 l 88 0 l 151 -1 l 181 -3 l 242 17 l 243 68 l 240 94 l 238 115 l 238 500 l 222 510 l 235 539 l 232 574 l 226 628 l 231 699 l 235 881 l 242 915 l 249 1017 l 158 1022 l 93 1018 l 100 949 l 113 942 l 101 917 l 106 639 z "},"m":{"ha":685,"x_min":0,"x_max":0,"o":"m 258 901 l 196 1028 l 144 1021 l 85 1017 l 86 939 l 88 925 l 100 907 l 101 900 l 90 881 l 94 813 l 99 744 l 97 619 l 119 604 l 97 581 l 89 199 l 89 163 l 89 135 l 101 101 l 101 103 l 83 50 l 94 -3 l 225 0 l 225 60 l 222 264 l 213 461 l 222 485 l 222 676 l 221 678 l 221 679 l 224 772 l 253 715 l 263 693 l 268 682 l 301 617 l 339 615 l 389 625 l 408 675 l 426 708 l 426 722 l 450 753 l 463 775 l 468 724 l 458 421 l 464 357 l 479 343 l 463 318 l 463 169 l 453 78 l 457 18 l 490 -3 l 606 3 l 597 90 l 594 135 l 585 211 l 592 299 l 581 746 l 567 765 l 583 797 l 593 1003 l 556 1019 l 488 1032 l 415 911 l 426 888 l 406 881 l 361 800 l 338 764 l 336 765 z "},"n":{"ha":647,"x_min":0,"x_max":0,"o":"m 554 122 l 554 167 l 544 471 l 529 517 l 540 575 l 554 917 l 557 1011 l 500 1021 l 419 1019 l 419 908 l 433 889 l 419 846 l 419 726 l 374 801 l 363 807 l 328 863 l 203 1035 l 93 1004 l 93 932 l 99 788 l 104 708 l 99 419 l 111 392 l 100 351 l 92 154 l 92 131 l 96 118 l 86 7 l 146 -4 l 228 -1 l 231 88 l 226 107 l 228 251 l 215 304 l 222 354 l 225 671 l 208 689 l 207 692 l 226 742 l 226 817 l 263 767 l 319 688 l 360 639 l 379 608 l 399 588 l 421 550 l 422 406 l 426 379 l 422 372 l 421 239 l 422 107 l 421 -1 l 468 -4 l 544 -3 l 563 44 z "},"o":{"ha":578,"x_min":0,"x_max":0,"o":"m 288 1024 l 275 1022 l 224 1022 l 221 1013 l 213 971 l 207 963 l 132 775 l 139 760 l 114 742 l 39 560 l 28 553 l 31 465 l 64 394 l 114 276 l 156 190 l 171 190 l 167 167 l 215 46 l 217 0 l 343 -1 l 346 14 l 363 58 l 438 236 l 469 303 l 471 325 l 482 339 l 550 476 l 554 553 l 507 656 l 469 739 l 456 739 l 449 776 l 378 950 l 350 1026 z m 290 176 l 229 336 l 201 393 l 174 413 l 188 429 l 175 469 l 157 515 l 156 532 l 201 651 l 192 674 l 211 679 l 288 881 l 296 854 l 328 769 l 353 754 l 340 738 l 394 597 l 411 550 l 422 515 l 354 349 l 356 324 l 357 324 l 340 307 l 296 161 z "},"p":{"ha":519,"x_min":0,"x_max":0,"o":"m 415 535 l 460 578 l 503 631 l 506 726 l 361 879 l 332 889 l 326 913 l 201 1042 l 157 1025 l 90 996 l 93 903 l 100 846 l 100 618 l 97 611 l 96 264 l 113 246 l 100 203 l 85 4 l 165 -4 l 235 0 l 226 172 l 204 192 l 226 225 l 224 321 l 236 335 l 329 440 z m 225 629 l 210 657 l 224 700 l 222 767 l 224 865 l 304 775 l 317 767 l 326 747 l 386 681 l 364 649 l 350 614 l 335 618 l 265 536 l 225 493 z "},"q":{"ha":581,"x_min":0,"x_max":0,"o":"m 276 1022 l 240 1025 l 129 764 l 138 718 l 103 697 l 28 560 l 26 488 l 64 403 l 125 264 l 151 243 l 150 243 l 147 214 l 239 21 l 258 -33 l 279 -57 l 274 -75 l 318 -203 l 361 -219 l 465 -161 l 450 -126 l 386 1 l 369 35 l 371 42 l 375 56 l 386 78 l 438 207 l 435 239 l 433 239 l 460 249 l 490 326 l 504 363 l 506 363 l 563 474 l 574 543 l 506 694 l 500 694 l 458 781 l 356 1032 z m 217 381 l 181 482 l 164 531 l 196 633 l 231 693 l 229 711 l 301 878 l 368 685 l 393 669 l 400 614 l 424 557 l 442 511 l 301 163 l 299 168 z "},"u":{"ha":646,"x_min":0,"x_max":0,"o":"m 110 242 l 124 226 l 104 201 l 100 136 l 101 67 l 185 -6 l 272 -7 l 317 17 l 422 71 l 425 61 l 436 -14 l 571 8 l 551 117 l 543 279 l 546 588 l 539 628 l 525 642 l 539 665 l 540 685 l 543 761 l 553 851 l 539 867 l 554 875 l 558 950 l 550 1018 l 486 1019 l 417 1018 l 414 919 l 419 744 l 419 629 l 428 460 l 424 283 l 418 193 l 304 144 l 258 128 l 247 129 l 232 142 l 231 163 l 221 325 l 231 489 l 228 593 l 226 644 l 225 692 l 235 744 l 221 775 l 219 800 l 233 850 l 238 894 l 239 1018 l 114 1021 l 96 969 l 104 746 l 111 703 l 100 674 l 99 575 l 108 424 z "},"v":{"ha":597,"x_min":0,"x_max":0,"o":"m 253 544 l 221 751 l 214 763 l 215 768 l 193 869 l 171 1028 l 90 1022 l 28 994 l 79 818 l 90 724 b 113 640 96 699 104 668 l 129 617 l 124 569 l 139 515 l 139 519 l 181 247 l 197 239 l 190 206 l 215 53 l 239 -8 l 294 -7 l 368 -4 l 394 113 l 411 210 l 397 239 l 417 258 l 463 469 l 463 478 b 461 488 463 481 461 486 b 460 490 460 490 460 488 l 478 525 l 510 758 b 518 797 511 774 514 785 l 531 844 b 553 931 538 874 546 906 l 569 1007 l 449 1028 l 425 1001 l 404 857 l 413 833 l 414 824 l 393 810 l 369 658 l 356 524 l 342 482 l 321 344 l 322 346 l 304 196 l 289 346 z "},"x":{"ha":576,"x_min":0,"x_max":0,"o":"m 56 103 l 26 26 l 111 -1 l 161 -10 l 183 36 l 224 175 l 224 174 l 250 258 l 249 257 l 288 394 l 364 165 l 363 153 l 396 64 l 396 43 l 428 -17 l 550 21 l 540 88 l 532 97 l 504 99 l 522 113 l 475 229 l 461 247 l 424 364 l 386 469 l 364 540 l 381 585 l 381 582 l 442 721 l 442 719 l 492 839 l 481 863 l 503 878 l 558 992 l 468 1032 l 454 1032 l 414 1029 l 389 919 l 397 913 l 385 906 l 349 810 l 335 764 l 300 675 l 296 658 l 275 718 l 258 761 l 253 775 l 242 832 l 211 901 l 213 896 l 172 1035 l 97 1022 l 35 989 l 101 829 l 132 828 l 111 804 l 172 668 l 172 669 l 188 628 l 194 617 l 204 594 l 225 551 l 178 424 l 181 413 l 146 333 l 121 271 l 97 210 l 101 178 l 82 171 z "},"y":{"ha":556,"x_min":0,"x_max":0,"o":"m 310 -4 l 350 24 l 340 114 l 342 174 l 336 197 l 342 297 l 325 311 l 340 353 l 339 393 l 343 408 l 342 449 l 382 561 l 436 719 l 457 781 l 478 824 l 488 843 l 472 856 l 504 869 l 543 969 l 500 1000 l 471 1010 l 408 1028 l 396 960 l 379 919 l 356 825 l 335 779 l 314 697 l 289 610 l 283 603 l 268 653 l 253 675 l 257 686 l 246 736 l 219 790 l 190 894 l 179 928 l 179 951 l 151 1026 l 106 1015 l 29 992 l 26 947 l 58 890 l 85 879 l 76 835 l 100 771 l 119 724 l 119 725 l 174 588 l 203 503 l 217 436 l 214 376 l 219 197 l 233 179 l 217 146 l 207 78 l 204 -1 z "},"z":{"ha":501,"x_min":0,"x_max":0,"o":"m 268 1015 l 206 1017 l 175 999 l 169 1019 l 57 1021 l 47 908 l 71 883 l 124 886 l 174 892 l 247 896 l 297 896 l 294 865 l 256 749 l 281 736 l 249 710 l 204 569 l 154 425 l 94 282 l 94 249 l 36 100 l 64 0 l 142 0 l 221 18 l 233 4 l 282 3 l 375 3 l 443 -6 l 454 74 l 454 121 l 433 142 l 325 129 l 268 128 l 192 126 l 225 254 l 211 271 l 239 303 l 271 422 l 269 419 l 342 600 l 364 686 l 394 794 l 393 789 l 436 897 l 451 899 l 449 964 l 438 1022 l 390 1021 z "},"{":{"ha":343,"x_min":0,"x_max":0,"o":"m 132 631 l 78 594 l 14 564 l 13 472 l 96 424 l 136 399 l 89 113 l 82 76 l 75 43 l 89 4 l 153 -19 l 304 -125 l 356 -39 l 340 -10 l 206 65 l 206 76 l 217 186 l 197 208 l 225 240 l 267 438 l 207 476 b 142 517 188 488 163 504 l 258 588 l 253 628 l 247 660 l 242 678 l 207 925 l 207 950 l 247 974 l 349 1025 l 315 1113 l 282 1124 l 224 1081 l 99 1017 l 78 974 l 99 857 l 121 854 l 101 831 z "},"|":{"ha":322,"x_min":0,"x_max":0,"o":"m 221 631 l 226 942 l 204 982 l 228 1001 l 231 1088 l 178 1099 l 92 1093 l 97 967 l 104 932 l 107 751 l 111 617 l 106 556 l 104 518 l 124 500 l 101 488 l 101 81 l 124 69 l 103 60 l 101 -37 b 99 -62 101 -44 99 -56 l 93 -86 l 96 -129 l 139 -149 l 182 -144 l 178 -144 l 231 -143 l 219 -31 l 219 471 l 215 514 l 210 588 z "},"}":{"ha":346,"x_min":0,"x_max":0,"o":"m 208 397 l 260 431 l 329 467 l 331 554 l 246 603 l 207 631 l 254 915 l 260 950 l 265 978 l 256 1019 l 192 1049 l 46 1138 l 0 1051 l 13 1024 l 138 964 l 139 956 l 128 857 l 144 815 l 118 789 l 76 589 l 135 550 l 201 510 l 85 440 l 90 392 l 104 335 l 136 69 l 135 51 l 135 42 l 86 8 l -7 -31 l 13 -110 l 57 -137 l 125 -86 l 240 -21 l 261 19 l 242 149 l 225 151 l 239 167 z "},"~":{"ha":636,"x_min":0,"x_max":0,"o":"m 99 -3 l 138 3 l 154 0 l 232 0 l 244 1 l 514 -4 l 575 -1 l 576 22 l 578 115 l 563 128 l 572 163 l 568 667 l 576 901 l 572 946 l 581 978 l 578 1025 l 558 1028 l 492 1022 l 478 1025 l 344 1025 l 332 1024 l 60 1028 l 67 1008 l 57 1006 l 60 910 l 69 897 l 60 863 l 64 372 l 57 125 l 65 81 l 54 47 l 54 0 l 69 -3 l 92 0 z m 110 131 l 108 126 l 108 236 l 92 244 l 108 267 l 104 340 l 104 347 l 103 468 l 101 486 l 101 556 l 110 724 l 115 890 l 117 900 l 118 976 l 526 978 l 525 886 l 524 803 l 540 779 l 524 772 l 528 699 l 528 692 l 529 571 l 531 553 l 531 483 l 522 315 l 521 150 l 515 49 l 492 49 l 106 46 z "},"€":{"ha":511,"x_min":0,"x_max":0,"o":"m 311 379 b 322 376 317 379 318 378 b 394 368 332 372 349 368 b 400 394 397 372 396 388 l 411 424 b 408 429 411 424 410 428 l 413 468 l 368 481 l 332 478 b 308 475 322 476 314 475 l 257 475 b 219 476 242 475 233 476 l 218 507 l 218 549 l 361 546 l 403 563 l 418 657 l 326 649 l 250 646 l 315 742 l 314 740 l 389 861 l 381 881 l 417 892 l 468 963 l 440 1010 l 343 1031 l 315 985 l 315 978 l 236 835 b 235 829 236 833 235 832 l 131 667 l 133 669 b 111 644 126 660 119 654 l 86 646 b 57 647 76 646 68 646 b 1 650 46 649 60 650 l -1 608 l -1 604 b 0 600 -1 603 0 601 l 3 588 l 0 542 l 36 538 b 64 544 47 538 53 542 l 85 550 l 92 550 l 92 538 b 93 500 92 533 93 506 b 90 478 93 493 90 486 l 39 483 l -6 476 l 1 372 l 74 376 b 117 378 88 376 101 378 l 157 313 l 206 253 l 226 244 l 222 222 l 322 75 l 343 33 l 371 -15 l 415 -17 l 494 36 l 476 79 l 385 186 l 314 292 l 283 333 b 257 371 275 340 265 354 l 254 381 z "},"‚":{"ha":253,"x_min":0,"x_max":0,"o":"m 238 111 l 186 150 l 171 176 l 139 204 l 118 206 l 79 154 l 26 104 l 25 81 l 86 31 l 79 1 l 33 -56 l 7 -75 l -7 -100 l 67 -153 l 89 -132 l 129 -81 l 129 -60 l 157 -39 l 192 13 l 232 74 l 239 83 z "},"ƒ":{"ha":636,"x_min":0,"x_max":0,"o":"m 99 -3 l 138 3 l 154 0 l 232 0 l 244 1 l 514 -4 l 575 -1 l 576 22 l 578 115 l 563 128 l 572 163 l 568 667 l 576 901 l 572 946 l 581 978 l 578 1025 l 558 1028 l 492 1022 l 478 1025 l 344 1025 l 332 1024 l 60 1028 l 67 1008 l 57 1006 l 60 910 l 69 897 l 60 863 l 64 372 l 57 125 l 65 81 l 54 47 l 54 0 l 69 -3 l 92 0 z m 110 131 l 108 126 l 108 236 l 92 244 l 108 267 l 104 340 l 104 347 l 103 468 l 101 486 l 101 556 l 110 724 l 115 890 l 117 900 l 118 976 l 526 978 l 525 886 l 524 803 l 540 779 l 524 772 l 528 699 l 528 692 l 529 571 l 531 553 l 531 483 l 522 315 l 521 150 l 515 49 l 492 49 l 106 46 z "},"„":{"ha":493,"x_min":0,"x_max":0,"o":"m 478 114 l 428 153 l 413 178 l 381 206 l 361 207 l 322 157 l 271 107 l 269 83 l 329 35 l 322 6 l 278 -50 l 251 -69 l 238 -94 l 310 -146 l 332 -125 l 371 -75 l 371 -54 l 399 -33 l 433 17 l 472 76 l 479 86 z m 238 111 l 186 150 l 171 176 l 139 204 l 118 206 l 79 154 l 26 104 l 25 81 l 86 31 l 79 1 l 33 -56 l 7 -75 l -7 -100 l 67 -153 l 89 -132 l 129 -81 l 129 -60 l 157 -39 l 192 13 l 232 74 l 239 83 z "},"…":{"ha":728,"x_min":0,"x_max":0,"o":"m 222 115 l 192 146 l 172 146 l 157 176 l 133 211 l 110 214 l 67 164 l 13 114 l 10 88 l 69 32 l 83 28 l 86 8 l 104 -8 l 122 -11 l 171 44 l 222 92 z m 469 115 l 439 146 l 419 146 l 404 176 l 381 211 l 357 214 l 314 164 l 260 114 l 257 88 l 317 32 l 331 28 l 333 8 l 351 -8 l 369 -11 l 418 44 l 469 92 z m 717 115 l 686 146 l 667 146 l 651 176 l 628 211 l 604 214 l 561 164 l 507 114 l 504 88 l 564 32 l 578 28 l 581 8 l 599 -8 l 617 -11 l 665 44 l 717 92 z "},"†":{"ha":490,"x_min":0,"x_max":0,"o":"m 167 754 l 25 786 l 8 708 l 15 688 l 18 644 l 79 642 l 169 657 l 194 657 l 192 513 l 201 503 l 192 499 l 192 383 l 189 276 l 189 278 l 183 161 l 204 140 l 181 124 l 179 90 l 189 53 l 235 -33 l 264 -32 l 308 54 l 315 94 l 306 311 l 296 357 l 303 418 l 303 653 l 394 644 l 478 646 l 485 719 l 475 779 l 318 754 l 303 753 l 303 758 l 303 818 l 315 906 l 318 960 l 317 1028 l 186 1028 l 174 993 l 176 954 l 185 889 l 183 851 l 206 843 l 188 832 l 192 753 z "},"‡":{"ha":490,"x_min":0,"x_max":0,"o":"m 167 754 l 25 786 l 8 708 l 15 688 l 18 644 l 79 642 l 169 657 l 194 657 l 192 513 l 201 503 l 192 499 l 192 389 l 169 388 l 82 406 l 28 403 l 18 365 l 19 354 l 11 338 l 26 274 l 165 289 l 189 292 l 189 282 l 183 161 l 204 140 l 181 124 l 179 90 l 189 53 l 235 -33 l 264 -32 l 308 54 l 315 94 l 307 290 l 321 289 l 463 272 l 476 322 l 469 406 l 388 396 l 303 389 l 299 389 l 303 422 l 303 653 l 394 644 l 478 646 l 485 719 l 475 779 l 318 754 l 303 753 l 303 813 l 315 906 l 318 964 l 317 1028 l 186 1028 l 174 997 l 176 958 l 185 889 l 183 851 l 206 843 l 188 832 l 192 753 z "},"ˆ":{"ha":361,"x_min":0,"x_max":0,"o":"m 311 1072 l 333 1097 l 331 1124 l 286 1154 l 244 1190 l 211 1228 l 165 1232 l 132 1200 l 28 1101 l 46 1058 l 119 1058 l 136 1099 l 135 1099 l 161 1133 l 169 1140 l 172 1139 l 217 1097 l 228 1092 l 226 1086 l 260 1047 z "},"‰":{"ha":1213,"x_min":0,"x_max":0,"o":"m 8 806 l 14 775 l 15 749 l 101 638 l 138 579 l 160 550 l 229 553 l 296 653 l 296 658 l 376 751 l 374 813 l 307 894 l 289 913 l 289 925 l 225 1013 l 158 1011 l 131 964 l 132 967 l 115 942 l 99 915 z m 154 839 l 189 896 l 235 832 l 274 775 l 224 700 l 222 692 l 203 672 l 165 718 l 158 721 l 160 725 l 115 789 l 147 826 z m 432 238 l 436 213 l 438 185 l 526 79 l 563 22 l 581 -4 l 650 -3 l 718 96 l 718 97 l 797 196 l 794 256 l 733 335 l 704 356 l 708 372 l 643 461 l 578 460 l 519 365 z m 614 343 l 660 275 l 700 217 l 646 139 l 647 140 l 628 115 l 588 165 l 578 168 l 579 175 l 538 229 l 574 282 z m 510 635 l 561 756 l 560 751 l 658 914 l 646 929 l 668 936 l 686 965 l 686 997 l 585 1032 l 560 978 l 529 904 l 475 757 l 444 707 l 363 535 l 349 511 l 300 406 l 301 406 l 213 199 l 218 181 l 199 163 l 163 108 l 144 89 l 118 32 l 197 -15 l 232 -1 l 246 25 l 271 100 l 271 99 l 315 206 l 314 206 l 443 494 l 443 493 z m 1192 213 l 1192 238 l 1193 265 l 1104 372 l 1068 429 l 1049 458 l 979 457 l 913 357 l 913 356 l 833 257 l 836 197 l 897 118 l 926 97 l 922 81 l 986 -6 l 1053 -6 l 1111 88 z m 1019 111 l 971 178 l 931 236 l 985 314 l 983 313 l 1007 344 l 1047 294 l 1057 292 l 1056 285 l 1096 225 l 1058 171 z "},"Š":{"ha":438,"x_min":0,"x_max":0,"o":"m 199 247 l 201 232 l 163 214 b 139 174 154 200 147 188 b 103 119 126 154 117 139 l 76 96 l 56 44 l 169 -26 l 207 19 l 222 64 l 221 58 b 235 88 225 67 229 78 l 290 163 l 365 254 l 415 336 l 413 444 l 375 472 l 246 593 l 224 607 l 197 644 l 171 676 l 213 732 l 215 742 l 229 761 l 308 854 l 321 879 l 357 915 l 394 971 l 313 1036 l 271 1040 l 238 985 b 239 968 236 981 242 974 l 211 950 l 175 901 l 178 886 l 107 804 l 39 707 l 40 619 l 107 554 l 214 456 l 242 443 l 289 386 z m 150 1207 l 128 1181 l 131 1153 l 176 1122 l 175 1122 l 214 1086 l 247 1050 l 300 1042 l 333 1078 l 438 1178 l 413 1219 l 340 1219 l 329 1179 l 303 1144 l 292 1138 l 288 1140 l 239 1188 l 208 1232 z "},"‹":{"ha":343,"x_min":0,"x_max":0,"o":"m 90 590 l 92 574 l 67 569 l 15 528 l 14 443 l 25 436 l 100 367 l 108 367 l 139 326 l 174 310 l 185 271 l 233 219 l 286 257 l 311 311 l 263 342 l 264 347 l 200 410 l 188 419 l 128 489 l 186 553 l 221 589 l 242 606 l 307 669 l 285 708 l 226 749 l 172 685 l 118 622 z "},"Œ":{"ha":719,"x_min":0,"x_max":0,"o":"m 681 928 l 679 982 l 668 1025 l 617 1022 l 565 1022 l 478 1019 l 457 1021 l 443 1018 l 331 1022 l 290 1021 l 158 781 l 143 769 l 135 740 l 139 721 l 114 713 l 18 551 l 17 510 l 15 464 l 29 447 l 29 449 l 46 414 l 79 372 l 144 247 l 182 186 l 229 168 l 215 140 l 243 76 l 269 31 l 268 32 l 283 -1 l 438 -3 l 447 4 l 496 1 l 671 -3 l 688 46 l 690 71 l 682 131 l 633 129 l 603 122 l 476 122 l 464 118 l 467 179 l 461 240 l 461 406 l 463 439 l 463 463 l 482 463 l 597 457 l 628 463 l 633 513 l 635 556 l 628 582 l 572 581 l 513 572 l 492 575 l 467 575 l 471 736 l 465 768 l 468 851 l 468 901 l 474 903 l 568 900 l 589 906 l 671 894 z m 268 296 l 235 358 l 169 489 l 156 513 l 165 531 l 181 568 l 219 649 l 218 649 l 278 761 l 325 838 l 339 863 l 339 860 l 339 808 l 342 597 l 336 556 l 338 433 l 353 415 l 335 394 l 335 163 l 335 161 z "},"Ž":{"ha":501,"x_min":0,"x_max":0,"o":"m 268 1015 l 206 1017 l 175 999 l 169 1019 l 57 1021 l 47 908 l 71 883 l 124 886 l 174 892 l 247 896 l 297 896 l 294 865 l 256 749 l 281 736 l 249 710 l 204 569 l 154 425 l 94 282 l 94 249 l 36 100 l 64 0 l 142 0 l 221 18 l 233 4 l 282 3 l 375 3 l 443 -6 l 454 74 l 454 121 l 433 142 l 325 129 l 268 128 l 192 126 l 225 254 l 211 271 l 239 303 l 271 422 l 269 419 l 342 600 l 364 686 l 394 794 l 393 789 l 436 897 l 451 899 l 449 964 l 438 1022 l 390 1021 z m 129 1207 l 107 1181 l 110 1153 l 156 1122 l 154 1122 l 193 1086 l 226 1050 l 279 1042 l 313 1078 l 417 1178 l 392 1219 l 319 1219 l 308 1179 l 282 1144 l 271 1138 l 267 1140 l 218 1188 l 188 1232 z "},"‘":{"ha":253,"x_min":0,"x_max":0,"o":"m 15 768 l 67 729 l 82 703 l 114 675 l 135 674 l 174 725 l 226 775 l 228 799 l 167 849 l 174 878 l 219 935 l 246 954 l 260 979 l 186 1032 l 164 1011 l 124 960 l 124 939 l 96 918 l 61 867 l 21 806 l 14 796 z "},"’":{"ha":253,"x_min":0,"x_max":0,"o":"m 238 936 l 186 975 l 171 1001 l 139 1029 l 118 1031 l 79 979 l 26 929 l 25 906 l 86 856 l 79 826 l 33 769 l 7 750 l -7 725 l 67 672 l 89 693 l 129 744 l 129 765 l 157 786 l 192 838 l 232 899 l 239 908 z "},"“":{"ha":493,"x_min":0,"x_max":0,"o":"m 15 765 l 65 726 l 81 701 l 113 674 l 132 672 l 171 722 l 222 772 l 224 796 l 164 844 l 171 874 l 215 929 l 242 949 l 256 974 l 183 1025 l 161 1004 l 122 954 l 122 933 l 94 913 l 60 863 l 21 803 l 14 793 z m 256 768 l 307 729 l 322 703 l 354 675 l 375 674 l 414 725 l 467 775 l 468 799 l 407 849 l 414 878 l 460 935 l 486 954 l 500 979 l 426 1032 l 404 1011 l 364 960 l 364 939 l 336 918 l 301 867 l 261 806 l 254 796 z "},"”":{"ha":493,"x_min":0,"x_max":0,"o":"m 478 939 l 428 978 l 413 1003 l 381 1031 l 361 1032 l 322 982 l 271 932 l 269 908 l 329 860 l 322 831 l 278 775 l 251 756 l 238 731 l 310 679 l 332 700 l 371 750 l 371 771 l 399 792 l 433 842 l 472 901 l 479 911 z m 238 936 l 186 975 l 171 1001 l 139 1029 l 118 1031 l 79 979 l 26 929 l 25 906 l 86 856 l 79 826 l 33 769 l 7 750 l -7 725 l 67 672 l 89 693 l 129 744 l 129 765 l 157 786 l 192 838 l 232 899 l 239 908 z "},"•":{"ha":458,"x_min":0,"x_max":0,"o":"m 28 525 l 26 507 l 31 486 l 143 400 l 140 383 l 182 328 l 214 293 l 250 300 l 322 372 l 325 404 l 340 400 l 431 493 l 431 535 l 349 610 l 325 628 l 324 640 l 250 724 l 214 724 l 179 678 l 154 660 l 135 631 l 128 606 l 100 596 z "},"–":{"ha":694,"x_min":0,"x_max":0,"o":"m 106 563 l 69 567 l 50 568 l 26 565 l 18 489 l 22 443 l 42 438 l 79 440 l 110 442 l 246 443 l 251 458 l 296 443 l 571 447 l 651 439 l 675 454 l 676 551 l 658 569 l 618 565 l 521 558 l 479 544 l 447 560 z "},"—":{"ha":1389,"x_min":0,"x_max":0,"o":"m 107 563 l 71 567 l 51 568 l 28 565 l 19 489 l 24 443 l 43 438 l 81 440 l 111 442 l 215 443 l 228 468 l 268 444 l 560 443 l 1219 447 l 1342 439 l 1365 454 l 1367 551 l 1349 569 l 1294 565 l 1169 558 l 1128 544 l 1096 560 l 769 561 l 722 547 l 707 561 z "},"˜":{"ha":399,"x_min":0,"x_max":0,"o":"m 294 1074 l 371 1183 l 357 1210 l 299 1210 l 290 1185 l 269 1160 b 258 1157 265 1158 260 1157 l 172 1217 l 117 1217 l 92 1190 l 28 1115 l 42 1082 l 104 1082 l 108 1119 l 125 1136 b 142 1133 128 1135 138 1133 l 238 1068 z "},"™":{"ha":693,"x_min":0,"x_max":0,"o":"m 221 1022 l 213 1022 l 175 1021 l 139 1021 l 119 1011 l 106 1022 l 22 1028 l 13 943 l 47 931 l 90 936 l 111 940 l 114 940 l 118 913 l 115 858 l 121 819 l 114 743 l 115 729 l 111 668 l 111 617 l 156 614 l 179 617 l 201 629 l 200 679 l 196 765 l 196 764 l 194 835 l 197 911 l 199 933 l 200 942 l 217 942 l 247 935 l 261 932 l 296 933 l 297 982 l 294 1024 l 257 1024 z m 447 960 l 449 958 l 407 1032 l 374 1024 l 328 1017 l 328 972 l 332 951 l 335 947 l 331 935 l 336 853 l 336 763 l 331 729 l 331 689 l 340 675 l 332 668 l 328 639 l 331 614 l 421 617 l 424 639 l 419 703 l 417 865 l 442 821 l 440 825 l 457 788 l 497 779 l 522 788 l 542 832 l 568 875 l 572 839 l 572 808 l 571 772 l 569 706 l 565 649 l 565 617 l 633 615 l 656 622 l 650 686 l 643 857 l 629 871 l 644 883 l 651 999 l 625 1025 l 581 1035 l 561 997 l 540 957 l 532 942 l 497 882 l 494 875 z "},"š":{"ha":438,"x_min":0,"x_max":0,"o":"m 199 247 l 201 232 l 163 214 b 139 174 154 200 147 188 b 103 119 126 154 117 139 l 76 96 l 56 44 l 169 -26 l 207 19 l 222 64 l 221 58 b 235 88 225 67 229 78 l 290 163 l 365 254 l 415 336 l 413 444 l 375 472 l 246 593 l 224 607 l 197 644 l 171 676 l 213 732 l 215 742 l 229 761 l 308 854 l 321 879 l 357 915 l 394 971 l 313 1036 l 271 1040 l 238 985 b 239 968 236 981 242 974 l 211 950 l 175 901 l 178 886 l 107 804 l 39 707 l 40 619 l 107 554 l 214 456 l 242 443 l 289 386 z m 150 1207 l 128 1181 l 131 1153 l 176 1122 l 175 1122 l 214 1086 l 247 1050 l 300 1042 l 333 1078 l 438 1178 l 413 1219 l 340 1219 l 329 1179 l 303 1144 l 292 1138 l 288 1140 l 239 1188 l 208 1232 z "},"›":{"ha":343,"x_min":0,"x_max":0,"o":"m 224 622 l 169 685 l 115 749 l 57 708 l 35 669 l 100 606 l 121 589 l 156 553 l 214 489 l 154 419 l 142 410 l 78 347 l 79 342 l 31 311 l 56 257 l 108 219 l 157 271 l 168 310 l 203 326 l 233 367 l 242 367 l 317 436 l 328 443 l 326 528 l 275 569 l 250 574 l 251 590 z "},"œ":{"ha":719,"x_min":0,"x_max":0,"o":"m 681 928 l 679 982 l 668 1025 l 617 1022 l 565 1022 l 478 1019 l 457 1021 l 443 1018 l 331 1022 l 290 1021 l 158 781 l 143 769 l 135 740 l 139 721 l 114 713 l 18 551 l 17 510 l 15 464 l 29 447 l 29 449 l 46 414 l 79 372 l 144 247 l 182 186 l 229 168 l 215 140 l 243 76 l 269 31 l 268 32 l 283 -1 l 438 -3 l 447 4 l 496 1 l 671 -3 l 688 46 l 690 71 l 682 131 l 633 129 l 603 122 l 476 122 l 464 118 l 467 179 l 461 240 l 461 406 l 463 439 l 463 463 l 482 463 l 597 457 l 628 463 l 633 513 l 635 556 l 628 582 l 572 581 l 513 572 l 492 575 l 467 575 l 471 736 l 465 768 l 468 851 l 468 901 l 474 903 l 568 900 l 589 906 l 671 894 z m 268 296 l 235 358 l 169 489 l 156 513 l 165 531 l 181 568 l 219 649 l 218 649 l 278 761 l 325 838 l 339 863 l 339 860 l 339 808 l 342 597 l 336 556 l 338 433 l 353 415 l 335 394 l 335 163 l 335 161 z "},"ž":{"ha":501,"x_min":0,"x_max":0,"o":"m 268 1015 l 206 1017 l 175 999 l 169 1019 l 57 1021 l 47 908 l 71 883 l 124 886 l 174 892 l 247 896 l 297 896 l 294 865 l 256 749 l 281 736 l 249 710 l 204 569 l 154 425 l 94 282 l 94 249 l 36 100 l 64 0 l 142 0 l 221 18 l 233 4 l 282 3 l 375 3 l 443 -6 l 454 74 l 454 121 l 433 142 l 325 129 l 268 128 l 192 126 l 225 254 l 211 271 l 239 303 l 271 422 l 269 419 l 342 600 l 364 686 l 394 794 l 393 789 l 436 897 l 451 899 l 449 964 l 438 1022 l 390 1021 z m 129 1207 l 107 1181 l 110 1153 l 156 1122 l 154 1122 l 193 1086 l 226 1050 l 279 1042 l 313 1078 l 417 1178 l 392 1219 l 319 1219 l 308 1179 l 282 1144 l 271 1138 l 267 1140 l 218 1188 l 188 1232 z "},"Ÿ":{"ha":556,"x_min":0,"x_max":0,"o":"m 310 -4 l 350 24 l 340 114 l 342 174 l 336 197 l 342 297 l 325 311 l 340 353 l 339 393 l 343 408 l 342 449 l 382 561 l 436 719 l 457 781 l 478 824 l 488 843 l 472 856 l 504 869 l 543 969 l 500 1000 l 471 1010 l 408 1028 l 396 960 l 379 919 l 356 825 l 335 779 l 314 697 l 289 610 l 283 603 l 268 653 l 253 675 l 257 686 l 246 736 l 219 790 l 190 894 l 179 928 l 179 951 l 151 1026 l 106 1015 l 29 992 l 26 947 l 58 890 l 85 879 l 76 835 l 100 771 l 119 724 l 119 725 l 174 588 l 203 503 l 217 436 l 214 376 l 219 197 l 233 179 l 217 146 l 207 78 l 204 -1 z m 261 1158 l 213 1204 l 186 1206 l 128 1144 l 126 1119 l 156 1096 l 181 1078 l 189 1065 l 207 1060 l 235 1092 l 276 1131 z m 301 1115 l 346 1067 l 378 1064 l 438 1119 l 440 1147 l 410 1176 l 388 1200 l 363 1207 l 331 1169 l 331 1172 l 290 1135 z "}," ":{"ha":285,"x_min":0,"x_max":0,"o":""},"¡":{"ha":331,"x_min":0,"x_max":0,"o":"m 215 400 l 217 585 l 218 647 l 210 671 l 150 671 l 104 654 l 99 508 l 92 367 l 111 342 l 85 293 l 81 101 l 93 74 l 75 64 l 68 -3 l 203 -8 l 247 0 l 240 33 l 239 74 l 222 94 l 236 111 l 228 335 z m 58 889 l 89 858 l 108 858 l 124 828 l 147 793 l 171 790 l 214 840 l 268 890 l 271 917 l 211 972 l 197 976 l 194 996 l 176 1013 l 158 1015 l 110 960 l 58 913 z "},"¢":{"ha":488,"x_min":0,"x_max":0,"o":"m 453 643 l 471 679 l 383 738 l 331 789 l 335 936 l 340 1017 l 289 1026 l 199 1024 l 204 939 l 224 921 l 210 904 l 214 782 l 214 772 l 76 614 l 11 556 l 10 465 l 153 308 l 218 225 l 218 163 l 218 83 l 235 67 l 213 44 l 213 1 l 261 -11 l 304 -6 l 354 -6 l 342 90 l 342 228 l 363 251 l 428 296 l 456 335 l 408 389 l 383 417 l 318 350 l 290 336 l 267 354 l 222 411 l 192 417 l 199 442 l 140 508 l 157 551 l 185 574 l 228 626 l 275 681 l 282 681 l 297 668 l 388 583 l 413 600 z "},"£":{"ha":497,"x_min":0,"x_max":0,"o":"m 90 579 l 76 579 l 36 579 l 33 517 l 32 468 l 82 468 l 125 472 l 138 472 b 139 383 138 433 139 421 l 136 163 l 136 160 l 107 164 l 51 133 l 6 93 l 28 49 l 74 -17 l 143 42 l 192 42 l 315 1 l 335 14 l 340 -1 l 385 -1 l 460 35 l 490 61 l 467 125 l 449 169 l 376 119 l 351 115 l 263 135 l 263 168 l 256 258 l 235 264 l 256 282 l 251 353 l 251 358 l 253 469 l 353 461 l 397 469 l 406 550 l 386 585 l 315 579 b 251 576 293 579 274 578 l 257 717 l 261 813 l 322 896 l 376 900 l 433 881 l 460 928 l 454 1017 l 367 1024 l 289 1021 l 224 954 l 231 932 l 203 932 l 169 892 l 140 838 b 138 576 140 751 138 661 l 124 576 z "},"¤":{"ha":636,"x_min":0,"x_max":0,"o":"m 99 -3 l 138 3 l 154 0 l 232 0 l 244 1 l 514 -4 l 575 -1 l 576 22 l 578 115 l 563 128 l 572 163 l 568 667 l 576 901 l 572 946 l 581 978 l 578 1025 l 558 1028 l 492 1022 l 478 1025 l 344 1025 l 332 1024 l 60 1028 l 67 1008 l 57 1006 l 60 910 l 69 897 l 60 863 l 64 372 l 57 125 l 65 81 l 54 47 l 54 0 l 69 -3 l 92 0 z m 110 131 l 108 126 l 108 236 l 92 244 l 108 267 l 104 340 l 104 347 l 103 468 l 101 486 l 101 556 l 110 724 l 115 890 l 117 900 l 118 976 l 526 978 l 525 886 l 524 803 l 540 779 l 524 772 l 528 699 l 528 692 l 529 571 l 531 553 l 531 483 l 522 315 l 521 150 l 515 49 l 492 49 l 106 46 z "},"¥":{"ha":558,"x_min":0,"x_max":0,"o":"m 128 503 l 129 503 l 72 511 l 63 461 l 64 447 l 63 403 l 101 400 l 139 403 l 171 410 l 217 407 l 215 376 l 217 322 l 150 322 l 121 329 l 67 328 l 63 283 l 63 278 l 56 224 l 100 222 l 131 224 l 163 232 l 219 231 l 221 197 l 235 179 l 218 146 l 208 78 l 206 -1 l 311 -4 l 351 24 l 342 114 l 343 174 l 338 197 l 339 231 l 460 219 l 501 235 l 497 332 l 389 326 l 331 322 l 342 353 l 340 393 l 344 408 l 344 411 l 354 421 l 375 407 l 460 399 l 499 417 l 504 506 l 446 506 l 413 496 l 371 496 l 360 494 l 383 561 l 438 719 l 458 781 l 479 824 l 489 843 l 474 856 l 506 869 l 544 969 l 501 1000 l 472 1010 l 410 1028 l 397 960 l 381 919 l 357 825 l 336 779 l 315 697 l 290 610 l 285 603 l 269 653 l 254 675 l 258 686 l 247 736 l 221 790 l 192 894 l 181 928 l 181 951 l 153 1026 l 107 1015 l 31 992 l 28 947 l 60 890 l 86 879 l 78 835 l 101 771 l 121 724 l 121 725 l 175 588 l 204 503 l 204 499 z "},"¦":{"ha":322,"x_min":0,"x_max":0,"o":"m 101 447 l 104 381 l 108 317 l 101 74 l 107 69 l 103 60 l 101 -37 l 99 -62 l 93 -86 l 90 -129 l 139 -146 l 183 -144 l 179 -144 l 228 -142 l 219 -35 l 213 257 l 192 275 l 211 290 l 215 368 l 213 372 l 217 381 l 224 440 l 178 454 z m 214 582 l 217 624 l 213 664 l 217 749 l 226 988 l 231 1089 l 178 1099 l 92 1093 l 97 985 l 118 967 l 104 947 l 104 949 l 113 751 l 110 651 l 104 590 l 150 571 z "},"§":{"ha":636,"x_min":0,"x_max":0,"o":"m 99 -3 l 138 3 l 154 0 l 232 0 l 244 1 l 514 -4 l 575 -1 l 576 22 l 578 115 l 563 128 l 572 163 l 568 667 l 576 901 l 572 946 l 581 978 l 578 1025 l 558 1028 l 492 1022 l 478 1025 l 344 1025 l 332 1024 l 60 1028 l 67 1008 l 57 1006 l 60 910 l 69 897 l 60 863 l 64 372 l 57 125 l 65 81 l 54 47 l 54 0 l 69 -3 l 92 0 z m 110 131 l 108 126 l 108 236 l 92 244 l 108 267 l 104 340 l 104 347 l 103 468 l 101 486 l 101 556 l 110 724 l 115 890 l 117 900 l 118 976 l 526 978 l 525 886 l 524 803 l 540 779 l 524 772 l 528 699 l 528 692 l 529 571 l 531 553 l 531 483 l 522 315 l 521 150 l 515 49 l 492 49 l 106 46 z "},"¨":{"ha":369,"x_min":0,"x_max":0,"o":"m 163 1158 l 114 1204 l 88 1206 l 29 1144 l 28 1119 l 57 1096 l 82 1078 l 90 1065 l 108 1060 l 136 1092 l 178 1131 z m 203 1115 l 247 1067 l 279 1064 l 339 1119 l 342 1147 l 311 1176 l 289 1200 l 264 1207 l 232 1169 l 232 1172 l 192 1135 z "},"©":{"ha":636,"x_min":0,"x_max":0,"o":"m 99 -3 l 138 3 l 154 0 l 232 0 l 244 1 l 514 -4 l 575 -1 l 576 22 l 578 115 l 563 128 l 572 163 l 568 667 l 576 901 l 572 946 l 581 978 l 578 1025 l 558 1028 l 492 1022 l 478 1025 l 344 1025 l 332 1024 l 60 1028 l 67 1008 l 57 1006 l 60 910 l 69 897 l 60 863 l 64 372 l 57 125 l 65 81 l 54 47 l 54 0 l 69 -3 l 92 0 z m 110 131 l 108 126 l 108 236 l 92 244 l 108 267 l 104 340 l 104 347 l 103 468 l 101 486 l 101 556 l 110 724 l 115 890 l 117 900 l 118 976 l 526 978 l 525 886 l 524 803 l 540 779 l 524 772 l 528 699 l 528 692 l 529 571 l 531 553 l 531 483 l 522 315 l 521 150 l 515 49 l 492 49 l 106 46 z "},"ª":{"ha":636,"x_min":0,"x_max":0,"o":"m 99 -3 l 138 3 l 154 0 l 232 0 l 244 1 l 514 -4 l 575 -1 l 576 22 l 578 115 l 563 128 l 572 163 l 568 667 l 576 901 l 572 946 l 581 978 l 578 1025 l 558 1028 l 492 1022 l 478 1025 l 344 1025 l 332 1024 l 60 1028 l 67 1008 l 57 1006 l 60 910 l 69 897 l 60 863 l 64 372 l 57 125 l 65 81 l 54 47 l 54 0 l 69 -3 l 92 0 z m 110 131 l 108 126 l 108 236 l 92 244 l 108 267 l 104 340 l 104 347 l 103 468 l 101 486 l 101 556 l 110 724 l 115 890 l 117 900 l 118 976 l 526 978 l 525 886 l 524 803 l 540 779 l 524 772 l 528 699 l 528 692 l 529 571 l 531 553 l 531 483 l 522 315 l 521 150 l 515 49 l 492 49 l 106 46 z "},"«":{"ha":585,"x_min":0,"x_max":0,"o":"m 86 590 l 88 574 l 63 569 l 11 528 l 10 443 l 21 436 l 96 367 l 104 367 l 135 326 l 169 310 l 181 271 l 229 219 l 282 257 l 307 311 l 258 342 l 260 347 l 196 410 l 183 419 l 124 489 l 182 553 l 217 589 l 238 606 l 303 669 l 281 708 l 222 749 l 168 685 l 114 622 z m 335 590 l 336 574 l 311 569 l 260 528 l 258 443 l 269 436 l 344 367 l 353 367 l 383 326 l 418 310 l 429 271 l 478 219 l 531 257 l 556 311 l 507 342 l 508 347 l 444 410 l 432 419 l 372 489 l 431 553 l 465 589 l 486 606 l 551 669 l 529 708 l 471 749 l 417 685 l 363 622 z "},"¬":{"ha":528,"x_min":0,"x_max":0,"o":"m 100 563 l 64 567 l 44 568 l 21 565 l 13 489 l 17 443 l 36 438 l 74 440 l 104 442 l 315 447 l 388 443 l 382 392 l 400 367 l 381 332 l 381 272 l 468 269 l 500 281 l 500 318 l 497 433 l 499 551 l 475 568 l 386 564 l 265 558 l 224 544 l 192 560 z "},"­":{"ha":358,"x_min":0,"x_max":0,"o":"m 110 563 l 76 569 l 57 571 l 33 568 l 22 489 l 26 443 l 46 438 l 83 440 l 114 442 l 228 447 l 308 439 l 332 454 l 333 558 l 315 576 l 275 572 l 178 558 z "},"®":{"ha":636,"x_min":0,"x_max":0,"o":"m 99 -3 l 138 3 l 154 0 l 232 0 l 244 1 l 514 -4 l 575 -1 l 576 22 l 578 115 l 563 128 l 572 163 l 568 667 l 576 901 l 572 946 l 581 978 l 578 1025 l 558 1028 l 492 1022 l 478 1025 l 344 1025 l 332 1024 l 60 1028 l 67 1008 l 57 1006 l 60 910 l 69 897 l 60 863 l 64 372 l 57 125 l 65 81 l 54 47 l 54 0 l 69 -3 l 92 0 z m 110 131 l 108 126 l 108 236 l 92 244 l 108 267 l 104 340 l 104 347 l 103 468 l 101 486 l 101 556 l 110 724 l 115 890 l 117 900 l 118 976 l 526 978 l 525 886 l 524 803 l 540 779 l 524 772 l 528 699 l 528 692 l 529 571 l 531 553 l 531 483 l 522 315 l 521 150 l 515 49 l 492 49 l 106 46 z "},"°":{"ha":294,"x_min":0,"x_max":0,"o":"m 6 924 l 7 904 l 7 888 l 79 818 l 108 785 l 132 760 l 163 760 l 222 821 l 215 831 l 238 838 l 289 894 l 288 926 l 232 979 l 218 990 l 217 1001 l 163 1053 l 126 1053 l 106 1025 l 92 1013 l 75 994 z m 114 938 l 147 974 l 183 935 l 207 910 l 207 906 l 172 871 l 149 844 l 122 868 l 110 863 l 113 878 l 83 907 l 106 928 z "},"±":{"ha":528,"x_min":0,"x_max":0,"o":"m 203 563 l 151 563 l 110 568 l 81 574 l 21 574 l 17 482 l 22 453 l 60 451 l 115 458 l 181 458 l 201 458 l 201 429 l 207 406 l 201 363 l 200 342 l 196 318 l 190 275 l 185 244 l 221 238 l 263 238 l 317 244 l 322 272 l 321 307 l 314 333 l 313 457 l 325 457 l 376 451 l 449 446 l 485 440 l 492 479 l 492 561 l 486 574 l 415 565 l 367 564 l 353 556 l 308 564 l 310 600 l 319 696 l 313 718 l 324 768 l 297 781 l 197 782 l 194 742 l 201 636 l 207 628 z m 111 126 l 75 131 l 56 132 l 32 129 l 24 53 l 28 7 l 47 1 l 85 4 l 115 6 l 321 11 l 479 3 l 503 18 l 504 115 l 486 133 l 446 129 l 274 122 l 235 108 l 203 124 z "},"²":{"ha":636,"x_min":0,"x_max":0,"o":"m 99 -3 l 138 3 l 154 0 l 232 0 l 244 1 l 514 -4 l 575 -1 l 576 22 l 578 115 l 563 128 l 572 163 l 568 667 l 576 901 l 572 946 l 581 978 l 578 1025 l 558 1028 l 492 1022 l 478 1025 l 344 1025 l 332 1024 l 60 1028 l 67 1008 l 57 1006 l 60 910 l 69 897 l 60 863 l 64 372 l 57 125 l 65 81 l 54 47 l 54 0 l 69 -3 l 92 0 z m 110 131 l 108 126 l 108 236 l 92 244 l 108 267 l 104 340 l 104 347 l 103 468 l 101 486 l 101 556 l 110 724 l 115 890 l 117 900 l 118 976 l 526 978 l 525 886 l 524 803 l 540 779 l 524 772 l 528 699 l 528 692 l 529 571 l 531 553 l 531 483 l 522 315 l 521 150 l 515 49 l 492 49 l 106 46 z "},"³":{"ha":636,"x_min":0,"x_max":0,"o":"m 99 -3 l 138 3 l 154 0 l 232 0 l 244 1 l 514 -4 l 575 -1 l 576 22 l 578 115 l 563 128 l 572 163 l 568 667 l 576 901 l 572 946 l 581 978 l 578 1025 l 558 1028 l 492 1022 l 478 1025 l 344 1025 l 332 1024 l 60 1028 l 67 1008 l 57 1006 l 60 910 l 69 897 l 60 863 l 64 372 l 57 125 l 65 81 l 54 47 l 54 0 l 69 -3 l 92 0 z m 110 131 l 108 126 l 108 236 l 92 244 l 108 267 l 104 340 l 104 347 l 103 468 l 101 486 l 101 556 l 110 724 l 115 890 l 117 900 l 118 976 l 526 978 l 525 886 l 524 803 l 540 779 l 524 772 l 528 699 l 528 692 l 529 571 l 531 553 l 531 483 l 522 315 l 521 150 l 515 49 l 492 49 l 106 46 z "},"´":{"ha":278,"x_min":0,"x_max":0,"o":"m 193 1122 l 250 1179 l 226 1200 l 138 1229 l 117 1201 l 67 1131 l 28 1079 l 53 1063 l 118 1046 l 143 1072 l 143 1097 z "},"µ":{"ha":636,"x_min":0,"x_max":0,"o":"m 99 -3 l 138 3 l 154 0 l 232 0 l 244 1 l 514 -4 l 575 -1 l 576 22 l 578 115 l 563 128 l 572 163 l 568 667 l 576 901 l 572 946 l 581 978 l 578 1025 l 558 1028 l 492 1022 l 478 1025 l 344 1025 l 332 1024 l 60 1028 l 67 1008 l 57 1006 l 60 910 l 69 897 l 60 863 l 64 372 l 57 125 l 65 81 l 54 47 l 54 0 l 69 -3 l 92 0 z m 110 131 l 108 126 l 108 236 l 92 244 l 108 267 l 104 340 l 104 347 l 103 468 l 101 486 l 101 556 l 110 724 l 115 890 l 117 900 l 118 976 l 526 978 l 525 886 l 524 803 l 540 779 l 524 772 l 528 699 l 528 692 l 529 571 l 531 553 l 531 483 l 522 315 l 521 150 l 515 49 l 492 49 l 106 46 z "},"¶":{"ha":636,"x_min":0,"x_max":0,"o":"m 99 -3 l 138 3 l 154 0 l 232 0 l 244 1 l 514 -4 l 575 -1 l 576 22 l 578 115 l 563 128 l 572 163 l 568 667 l 576 901 l 572 946 l 581 978 l 578 1025 l 558 1028 l 492 1022 l 478 1025 l 344 1025 l 332 1024 l 60 1028 l 67 1008 l 57 1006 l 60 910 l 69 897 l 60 863 l 64 372 l 57 125 l 65 81 l 54 47 l 54 0 l 69 -3 l 92 0 z m 110 131 l 108 126 l 108 236 l 92 244 l 108 267 l 104 340 l 104 347 l 103 468 l 101 486 l 101 556 l 110 724 l 115 890 l 117 900 l 118 976 l 526 978 l 525 886 l 524 803 l 540 779 l 524 772 l 528 699 l 528 692 l 529 571 l 531 553 l 531 483 l 522 315 l 521 150 l 515 49 l 492 49 l 106 46 z "},"·":{"ha":242,"x_min":0,"x_max":0,"o":"m 226 524 l 196 554 l 176 554 l 161 585 l 138 619 l 114 622 l 71 572 l 17 522 l 14 496 l 74 440 l 88 436 l 90 417 l 108 400 l 126 397 l 175 453 l 226 500 z "},"¸":{"ha":221,"x_min":0,"x_max":0,"o":"m 46 -208 l 64 -228 l 93 -228 l 131 -190 l 144 -175 l 182 -143 l 193 -103 l 160 -72 l 118 -35 l 135 -18 l 171 22 l 124 60 l 40 -12 l 35 -61 l 74 -92 l 100 -115 l 99 -115 l 71 -139 l 28 -167 z "},"¹":{"ha":636,"x_min":0,"x_max":0,"o":"m 99 -3 l 138 3 l 154 0 l 232 0 l 244 1 l 514 -4 l 575 -1 l 576 22 l 578 115 l 563 128 l 572 163 l 568 667 l 576 901 l 572 946 l 581 978 l 578 1025 l 558 1028 l 492 1022 l 478 1025 l 344 1025 l 332 1024 l 60 1028 l 67 1008 l 57 1006 l 60 910 l 69 897 l 60 863 l 64 372 l 57 125 l 65 81 l 54 47 l 54 0 l 69 -3 l 92 0 z m 110 131 l 108 126 l 108 236 l 92 244 l 108 267 l 104 340 l 104 347 l 103 468 l 101 486 l 101 556 l 110 724 l 115 890 l 117 900 l 118 976 l 526 978 l 525 886 l 524 803 l 540 779 l 524 772 l 528 699 l 528 692 l 529 571 l 531 553 l 531 483 l 522 315 l 521 150 l 515 49 l 492 49 l 106 46 z "},"º":{"ha":636,"x_min":0,"x_max":0,"o":"m 99 -3 l 138 3 l 154 0 l 232 0 l 244 1 l 514 -4 l 575 -1 l 576 22 l 578 115 l 563 128 l 572 163 l 568 667 l 576 901 l 572 946 l 581 978 l 578 1025 l 558 1028 l 492 1022 l 478 1025 l 344 1025 l 332 1024 l 60 1028 l 67 1008 l 57 1006 l 60 910 l 69 897 l 60 863 l 64 372 l 57 125 l 65 81 l 54 47 l 54 0 l 69 -3 l 92 0 z m 110 131 l 108 126 l 108 236 l 92 244 l 108 267 l 104 340 l 104 347 l 103 468 l 101 486 l 101 556 l 110 724 l 115 890 l 117 900 l 118 976 l 526 978 l 525 886 l 524 803 l 540 779 l 524 772 l 528 699 l 528 692 l 529 571 l 531 553 l 531 483 l 522 315 l 521 150 l 515 49 l 492 49 l 106 46 z "},"»":{"ha":585,"x_min":0,"x_max":0,"o":"m 463 636 l 408 699 l 354 763 l 296 722 l 274 683 l 339 619 l 360 603 l 394 567 l 453 503 l 393 433 l 381 424 l 317 361 l 318 356 l 269 325 l 294 271 l 347 233 l 396 285 l 407 324 l 442 340 l 472 381 l 481 381 l 556 450 l 567 457 l 565 542 l 514 583 l 489 588 l 490 604 z m 214 636 l 160 699 l 106 763 l 47 722 l 25 683 l 90 619 l 111 603 l 146 567 l 204 503 l 144 433 l 132 424 l 68 361 l 69 356 l 21 325 l 46 271 l 99 233 l 147 285 l 158 324 l 193 340 l 224 381 l 232 381 l 307 450 l 318 457 l 317 542 l 265 583 l 240 588 l 242 604 z "},"¼":{"ha":636,"x_min":0,"x_max":0,"o":"m 99 -3 l 138 3 l 154 0 l 232 0 l 244 1 l 514 -4 l 575 -1 l 576 22 l 578 115 l 563 128 l 572 163 l 568 667 l 576 901 l 572 946 l 581 978 l 578 1025 l 558 1028 l 492 1022 l 478 1025 l 344 1025 l 332 1024 l 60 1028 l 67 1008 l 57 1006 l 60 910 l 69 897 l 60 863 l 64 372 l 57 125 l 65 81 l 54 47 l 54 0 l 69 -3 l 92 0 z m 110 131 l 108 126 l 108 236 l 92 244 l 108 267 l 104 340 l 104 347 l 103 468 l 101 486 l 101 556 l 110 724 l 115 890 l 117 900 l 118 976 l 526 978 l 525 886 l 524 803 l 540 779 l 524 772 l 528 699 l 528 692 l 529 571 l 531 553 l 531 483 l 522 315 l 521 150 l 515 49 l 492 49 l 106 46 z "},"½":{"ha":636,"x_min":0,"x_max":0,"o":"m 99 -3 l 138 3 l 154 0 l 232 0 l 244 1 l 514 -4 l 575 -1 l 576 22 l 578 115 l 563 128 l 572 163 l 568 667 l 576 901 l 572 946 l 581 978 l 578 1025 l 558 1028 l 492 1022 l 478 1025 l 344 1025 l 332 1024 l 60 1028 l 67 1008 l 57 1006 l 60 910 l 69 897 l 60 863 l 64 372 l 57 125 l 65 81 l 54 47 l 54 0 l 69 -3 l 92 0 z m 110 131 l 108 126 l 108 236 l 92 244 l 108 267 l 104 340 l 104 347 l 103 468 l 101 486 l 101 556 l 110 724 l 115 890 l 117 900 l 118 976 l 526 978 l 525 886 l 524 803 l 540 779 l 524 772 l 528 699 l 528 692 l 529 571 l 531 553 l 531 483 l 522 315 l 521 150 l 515 49 l 492 49 l 106 46 z "},"¾":{"ha":636,"x_min":0,"x_max":0,"o":"m 99 -3 l 138 3 l 154 0 l 232 0 l 244 1 l 514 -4 l 575 -1 l 576 22 l 578 115 l 563 128 l 572 163 l 568 667 l 576 901 l 572 946 l 581 978 l 578 1025 l 558 1028 l 492 1022 l 478 1025 l 344 1025 l 332 1024 l 60 1028 l 67 1008 l 57 1006 l 60 910 l 69 897 l 60 863 l 64 372 l 57 125 l 65 81 l 54 47 l 54 0 l 69 -3 l 92 0 z m 110 131 l 108 126 l 108 236 l 92 244 l 108 267 l 104 340 l 104 347 l 103 468 l 101 486 l 101 556 l 110 724 l 115 890 l 117 900 l 118 976 l 526 978 l 525 886 l 524 803 l 540 779 l 524 772 l 528 699 l 528 692 l 529 571 l 531 553 l 531 483 l 522 315 l 521 150 l 515 49 l 492 49 l 106 46 z "},"¿":{"ha":489,"x_min":0,"x_max":0,"o":"m 188 478 l 154 428 l 32 293 l 29 211 l 114 125 l 144 113 l 139 93 l 194 1 l 285 -11 l 313 26 l 317 32 l 400 121 l 481 196 l 458 247 l 415 289 l 375 297 l 331 214 l 303 171 l 289 158 l 274 146 l 244 168 l 226 197 l 181 215 l 193 232 l 168 271 l 182 296 l 206 325 l 246 363 l 271 397 l 288 422 l 285 419 l 317 453 l 311 528 l 315 581 l 304 629 l 315 656 l 313 689 l 190 694 l 175 642 l 181 624 l 188 610 l 181 601 l 189 482 z m 139 894 l 169 864 l 189 864 l 204 833 l 228 799 l 251 796 l 294 846 l 349 896 l 351 922 l 292 978 l 278 982 l 275 1001 l 257 1018 l 239 1021 l 190 965 l 139 918 z "},"À":{"ha":590,"x_min":0,"x_max":0,"o":"m 388 285 l 399 239 l 411 231 l 400 217 l 406 178 l 424 3 l 447 -10 l 465 -10 l 568 24 l 553 83 l 532 106 l 540 117 l 526 204 l 492 333 l 492 353 l 425 688 l 408 700 l 418 725 l 374 938 l 368 951 l 364 963 l 365 1011 l 342 1022 l 228 1017 l 214 929 l 201 871 l 192 815 l 207 794 l 182 765 l 140 579 l 140 554 l 132 525 l 128 499 l 100 328 l 101 300 l 86 285 l 72 197 l 35 28 l 83 -3 l 169 -11 l 185 82 l 175 121 l 188 136 l 203 235 l 231 246 l 243 251 l 336 274 l 364 293 l 365 293 l 385 296 z m 260 603 l 253 625 l 267 632 l 294 801 l 315 654 l 321 629 l 326 557 l 354 407 l 315 397 l 225 369 l 226 379 l 243 469 l 242 468 z m 256 1089 l 276 1060 l 289 1051 l 343 1067 l 372 1088 l 338 1131 l 283 1210 l 263 1229 l 188 1200 l 161 1179 l 201 1139 z "},"Á":{"ha":590,"x_min":0,"x_max":0,"o":"m 388 285 l 399 239 l 411 231 l 400 217 l 406 178 l 424 3 l 447 -10 l 465 -10 l 568 24 l 553 83 l 532 106 l 540 117 l 526 204 l 492 333 l 492 353 l 425 688 l 408 700 l 418 725 l 374 938 l 368 951 l 364 963 l 365 1011 l 342 1022 l 228 1017 l 214 929 l 201 871 l 192 815 l 207 794 l 182 765 l 140 579 l 140 554 l 132 525 l 128 499 l 100 328 l 101 300 l 86 285 l 72 197 l 35 28 l 83 -3 l 169 -11 l 185 82 l 175 121 l 188 136 l 203 235 l 231 246 l 243 251 l 336 274 l 364 293 l 365 293 l 385 296 z m 260 603 l 253 625 l 267 632 l 294 801 l 315 654 l 321 629 l 326 557 l 354 407 l 315 397 l 225 369 l 226 379 l 243 469 l 242 468 z m 393 1122 l 450 1179 l 426 1200 l 338 1229 l 317 1201 l 267 1131 l 228 1079 l 253 1063 l 318 1046 l 343 1072 l 343 1097 z "},"Â":{"ha":590,"x_min":0,"x_max":0,"o":"m 388 285 l 399 239 l 411 231 l 400 217 l 406 178 l 424 3 l 447 -10 l 465 -10 l 568 24 l 553 83 l 532 106 l 540 117 l 526 204 l 492 333 l 492 353 l 425 688 l 408 700 l 418 725 l 374 938 l 368 951 l 364 963 l 365 1011 l 342 1022 l 228 1017 l 214 929 l 201 871 l 192 815 l 207 794 l 182 765 l 140 579 l 140 554 l 132 525 l 128 499 l 100 328 l 101 300 l 86 285 l 72 197 l 35 28 l 83 -3 l 169 -11 l 185 82 l 175 121 l 188 136 l 203 235 l 231 246 l 243 251 l 336 274 l 364 293 l 365 293 l 385 296 z m 260 603 l 253 625 l 267 632 l 294 801 l 315 654 l 321 629 l 326 557 l 354 407 l 315 397 l 225 369 l 226 379 l 243 469 l 242 468 z m 428 1072 l 450 1097 l 447 1124 l 403 1154 l 361 1190 l 328 1228 l 282 1232 l 249 1200 l 144 1101 l 163 1058 l 236 1058 l 253 1099 l 251 1099 l 278 1133 l 286 1140 l 289 1139 l 333 1097 l 344 1092 l 343 1086 l 376 1047 z "},"Ã":{"ha":590,"x_min":0,"x_max":0,"o":"m 388 285 l 399 239 l 411 231 l 400 217 l 406 178 l 424 3 l 447 -10 l 465 -10 l 568 24 l 553 83 l 532 106 l 540 117 l 526 204 l 492 333 l 492 353 l 425 688 l 408 700 l 418 725 l 374 938 l 368 951 l 364 963 l 365 1011 l 342 1022 l 228 1017 l 214 929 l 201 871 l 192 815 l 207 794 l 182 765 l 140 579 l 140 554 l 132 525 l 128 499 l 100 328 l 101 300 l 86 285 l 72 197 l 35 28 l 83 -3 l 169 -11 l 185 82 l 175 121 l 188 136 l 203 235 l 231 246 l 243 251 l 336 274 l 364 293 l 365 293 l 385 296 z m 260 603 l 253 625 l 267 632 l 294 801 l 315 654 l 321 629 l 326 557 l 354 407 l 315 397 l 225 369 l 226 379 l 243 469 l 242 468 z m 392 1074 l 468 1183 l 454 1210 l 396 1210 l 388 1185 l 367 1160 b 356 1157 363 1158 357 1157 l 269 1217 l 214 1217 l 189 1190 l 125 1115 l 139 1082 l 201 1082 l 206 1119 l 222 1136 b 239 1133 225 1135 235 1133 l 335 1068 z "},"Ä":{"ha":590,"x_min":0,"x_max":0,"o":"m 388 285 l 399 239 l 411 231 l 400 217 l 406 178 l 424 3 l 447 -10 l 465 -10 l 568 24 l 553 83 l 532 106 l 540 117 l 526 204 l 492 333 l 492 353 l 425 688 l 408 700 l 418 725 l 374 938 l 368 951 l 364 963 l 365 1011 l 342 1022 l 228 1017 l 214 929 l 201 871 l 192 815 l 207 794 l 182 765 l 140 579 l 140 554 l 132 525 l 128 499 l 100 328 l 101 300 l 86 285 l 72 197 l 35 28 l 83 -3 l 169 -11 l 185 82 l 175 121 l 188 136 l 203 235 l 231 246 l 243 251 l 336 274 l 364 293 l 365 293 l 385 296 z m 260 603 l 253 625 l 267 632 l 294 801 l 315 654 l 321 629 l 326 557 l 354 407 l 315 397 l 225 369 l 226 379 l 243 469 l 242 468 z m 274 1158 l 225 1204 l 199 1206 l 140 1144 l 139 1119 l 168 1096 l 193 1078 l 201 1065 l 219 1060 l 247 1092 l 289 1131 z m 314 1115 l 358 1067 l 390 1064 l 450 1119 l 453 1147 l 422 1176 l 400 1200 l 375 1207 l 343 1169 l 343 1172 l 303 1135 z "},"Å":{"ha":590,"x_min":0,"x_max":0,"o":"m 388 285 l 399 239 l 411 231 l 400 217 l 406 178 l 424 3 l 447 -10 l 465 -10 l 568 24 l 553 83 l 532 106 l 540 117 l 526 204 l 492 333 l 492 353 l 425 688 l 408 700 l 418 725 l 374 938 l 368 951 l 364 963 l 360 1006 l 365 1011 l 428 1065 l 426 1104 l 374 1156 l 363 1164 l 361 1169 l 311 1226 l 267 1226 l 244 1193 l 229 1175 l 221 1161 l 221 1163 l 154 1107 l 156 1083 l 157 1064 l 224 997 l 224 999 l 225 997 l 214 929 l 201 871 l 192 815 l 207 794 l 182 765 l 140 579 l 140 554 l 132 525 l 128 499 l 100 328 l 101 300 l 86 285 l 72 197 l 35 28 l 83 -3 l 169 -11 l 185 82 l 175 121 l 188 136 l 203 235 l 231 246 l 243 251 l 336 274 l 364 293 l 365 293 l 385 296 z m 260 603 l 253 625 l 267 632 l 294 801 l 315 654 l 321 629 l 326 557 l 354 407 l 315 397 l 225 369 l 226 379 l 243 469 l 242 468 z m 261 1125 l 274 1138 l 286 1147 l 321 1108 l 346 1078 l 297 1022 l 267 1053 l 235 1092 l 257 1115 z "},"Æ":{"ha":757,"x_min":0,"x_max":0,"o":"m 707 894 l 714 969 l 713 1022 l 590 1021 l 540 1017 l 521 1021 l 439 1021 l 393 1017 l 339 1018 l 311 924 l 292 865 l 272 801 l 286 797 l 257 769 l 199 590 l 185 561 l 183 524 l 168 499 l 111 326 l 110 317 l 119 303 l 92 283 l 68 203 l -1 32 l 49 0 l 133 -15 l 160 56 l 165 107 l 172 128 l 208 235 l 203 235 l 208 236 l 244 242 l 288 249 l 379 263 l 381 254 l 381 249 l 375 221 l 372 158 l 378 131 l 369 104 l 364 50 l 374 0 l 476 -1 l 490 4 l 490 6 l 543 6 l 608 -3 l 701 -4 l 724 21 l 728 128 l 675 129 l 636 119 l 538 118 l 522 118 l 503 122 l 507 122 l 504 250 l 499 256 l 489 256 l 507 283 l 496 317 l 504 460 l 608 456 l 678 453 l 686 506 l 686 569 l 657 575 l 553 568 l 525 568 l 499 569 l 494 639 l 494 667 l 493 701 l 492 701 l 503 718 l 500 843 l 501 879 l 501 907 l 507 906 l 521 906 l 589 903 l 610 913 l 647 894 z m 240 349 l 246 372 l 272 461 l 324 600 l 324 606 l 322 613 l 321 613 l 338 632 l 376 788 l 376 593 l 372 540 l 382 394 l 378 386 l 378 369 l 239 343 z "},"Ç":{"ha":431,"x_min":0,"x_max":0,"o":"m 44 411 l 94 321 l 158 261 l 147 236 l 253 72 l 256 56 l 267 38 l 208 -12 l 203 -61 l 242 -92 l 268 -115 l 267 -115 l 239 -139 l 196 -167 l 214 -208 l 232 -228 l 261 -228 l 299 -190 l 313 -175 l 350 -143 l 361 -103 l 328 -72 l 286 -35 l 303 -18 l 350 13 l 422 72 l 390 124 l 318 218 l 254 326 l 203 406 l 190 433 l 171 453 l 157 479 l 136 519 l 154 553 l 181 600 l 226 672 l 310 796 l 317 833 l 340 849 l 379 903 l 418 972 l 314 1042 l 265 985 l 264 974 l 186 846 l 186 840 l 151 785 l 151 751 l 101 703 l 11 550 l 13 461 z "},"È":{"ha":503,"x_min":0,"x_max":0,"o":"m 443 890 l 446 968 l 444 1022 l 307 1021 l 253 1010 l 233 1021 l 154 1021 l 89 1013 l 96 914 l 111 896 l 96 872 l 97 801 l 96 693 l 96 590 l 92 539 l 103 401 l 97 390 l 99 315 l 99 283 l 111 267 l 94 231 l 93 167 l 94 151 l 86 57 l 93 0 l 197 -1 l 208 6 l 257 6 l 336 -3 l 428 -4 l 460 10 l 465 61 l 468 131 l 399 132 l 364 121 l 253 119 l 242 122 l 229 125 l 226 260 l 225 263 l 229 275 l 221 315 l 226 458 l 249 458 l 336 456 l 404 453 l 407 510 l 415 551 l 397 586 l 326 579 l 272 576 l 221 579 l 218 633 l 204 644 l 219 669 l 226 711 l 226 849 l 229 883 l 229 899 l 242 899 l 318 896 l 340 900 l 344 901 l 378 890 z m 244 1089 l 265 1060 l 278 1051 l 332 1067 l 361 1088 l 326 1131 l 272 1210 l 251 1229 l 176 1200 l 150 1179 l 190 1139 z "},"É":{"ha":503,"x_min":0,"x_max":0,"o":"m 443 890 l 446 968 l 444 1022 l 307 1021 l 253 1010 l 233 1021 l 154 1021 l 89 1013 l 96 914 l 111 896 l 96 872 l 97 801 l 96 693 l 96 590 l 92 539 l 103 401 l 97 390 l 99 315 l 99 283 l 111 267 l 94 231 l 93 167 l 94 151 l 86 57 l 93 0 l 197 -1 l 208 6 l 257 6 l 336 -3 l 428 -4 l 460 10 l 465 61 l 468 131 l 399 132 l 364 121 l 253 119 l 242 122 l 229 125 l 226 260 l 225 263 l 229 275 l 221 315 l 226 458 l 249 458 l 336 456 l 404 453 l 407 510 l 415 551 l 397 586 l 326 579 l 272 576 l 221 579 l 218 633 l 204 644 l 219 669 l 226 711 l 226 849 l 229 883 l 229 899 l 242 899 l 318 896 l 340 900 l 344 901 l 378 890 z m 382 1122 l 439 1179 l 415 1200 l 326 1229 l 306 1201 l 256 1131 l 217 1079 l 242 1063 l 307 1046 l 332 1072 l 332 1097 z "},"Ê":{"ha":503,"x_min":0,"x_max":0,"o":"m 443 890 l 446 968 l 444 1022 l 307 1021 l 253 1010 l 233 1021 l 154 1021 l 89 1013 l 96 914 l 111 896 l 96 872 l 97 801 l 96 693 l 96 590 l 92 539 l 103 401 l 97 390 l 99 315 l 99 283 l 111 267 l 94 231 l 93 167 l 94 151 l 86 57 l 93 0 l 197 -1 l 208 6 l 257 6 l 336 -3 l 428 -4 l 460 10 l 465 61 l 468 131 l 399 132 l 364 121 l 253 119 l 242 122 l 229 125 l 226 260 l 225 263 l 229 275 l 221 315 l 226 458 l 249 458 l 336 456 l 404 453 l 407 510 l 415 551 l 397 586 l 326 579 l 272 576 l 221 579 l 218 633 l 204 644 l 219 669 l 226 711 l 226 849 l 229 883 l 229 899 l 242 899 l 318 896 l 340 900 l 344 901 l 378 890 z m 417 1072 l 439 1097 l 436 1124 l 392 1154 l 350 1190 l 317 1228 l 271 1232 l 238 1200 l 133 1101 l 151 1058 l 225 1058 l 242 1099 l 240 1099 l 267 1133 l 275 1140 l 278 1139 l 322 1097 l 333 1092 l 332 1086 l 365 1047 z "},"Ë":{"ha":503,"x_min":0,"x_max":0,"o":"m 443 890 l 446 968 l 444 1022 l 307 1021 l 253 1010 l 233 1021 l 154 1021 l 89 1013 l 96 914 l 111 896 l 96 872 l 97 801 l 96 693 l 96 590 l 92 539 l 103 401 l 97 390 l 99 315 l 99 283 l 111 267 l 94 231 l 93 167 l 94 151 l 86 57 l 93 0 l 197 -1 l 208 6 l 257 6 l 336 -3 l 428 -4 l 460 10 l 465 61 l 468 131 l 399 132 l 364 121 l 253 119 l 242 122 l 229 125 l 226 260 l 225 263 l 229 275 l 221 315 l 226 458 l 249 458 l 336 456 l 404 453 l 407 510 l 415 551 l 397 586 l 326 579 l 272 576 l 221 579 l 218 633 l 204 644 l 219 669 l 226 711 l 226 849 l 229 883 l 229 899 l 242 899 l 318 896 l 340 900 l 344 901 l 378 890 z m 263 1158 l 214 1204 l 188 1206 l 129 1144 l 128 1119 l 157 1096 l 182 1078 l 190 1065 l 208 1060 l 236 1092 l 278 1131 z m 303 1115 l 347 1067 l 379 1064 l 439 1119 l 442 1147 l 411 1176 l 389 1200 l 364 1207 l 332 1169 l 332 1172 l 292 1135 z "},"Ì":{"ha":336,"x_min":0,"x_max":0,"o":"m 115 604 l 111 528 l 107 485 l 107 225 l 107 175 l 124 151 l 107 124 l 88 0 l 151 -1 l 181 -3 l 242 17 l 243 68 l 240 94 l 238 115 l 238 500 l 222 510 l 235 539 l 232 574 l 226 628 l 231 699 l 235 881 l 242 915 l 249 1017 l 158 1022 l 93 1018 l 100 949 l 113 942 l 101 917 l 106 639 z m 136 1089 l 157 1060 l 169 1051 l 224 1067 l 253 1088 l 218 1131 l 164 1210 l 143 1229 l 68 1200 l 42 1179 l 82 1139 z "},"Í":{"ha":336,"x_min":0,"x_max":0,"o":"m 115 604 l 111 528 l 107 485 l 107 225 l 107 175 l 124 151 l 107 124 l 88 0 l 151 -1 l 181 -3 l 242 17 l 243 68 l 240 94 l 238 115 l 238 500 l 222 510 l 235 539 l 232 574 l 226 628 l 231 699 l 235 881 l 242 915 l 249 1017 l 158 1022 l 93 1018 l 100 949 l 113 942 l 101 917 l 106 639 z m 274 1122 l 331 1179 l 307 1200 l 218 1229 l 197 1201 l 147 1131 l 108 1079 l 133 1063 l 199 1046 l 224 1072 l 224 1097 z "},"Î":{"ha":336,"x_min":0,"x_max":0,"o":"m 115 604 l 111 528 l 107 485 l 107 225 l 107 175 l 124 151 l 107 124 l 88 0 l 151 -1 l 181 -3 l 242 17 l 243 68 l 240 94 l 238 115 l 238 500 l 222 510 l 235 539 l 232 574 l 226 628 l 231 699 l 235 881 l 242 915 l 249 1017 l 158 1022 l 93 1018 l 100 949 l 113 942 l 101 917 l 106 639 z m 308 1072 l 331 1097 l 328 1124 l 283 1154 l 242 1190 l 208 1228 l 163 1232 l 129 1200 l 25 1101 l 43 1058 l 117 1058 l 133 1099 l 132 1099 l 158 1133 l 167 1140 l 169 1139 l 214 1097 l 225 1092 l 224 1086 l 257 1047 z "},"Ï":{"ha":336,"x_min":0,"x_max":0,"o":"m 115 604 l 111 528 l 107 485 l 107 225 l 107 175 l 124 151 l 107 124 l 88 0 l 151 -1 l 181 -3 l 242 17 l 243 68 l 240 94 l 238 115 l 238 500 l 222 510 l 235 539 l 232 574 l 226 628 l 231 699 l 235 881 l 242 915 l 249 1017 l 158 1022 l 93 1018 l 100 949 l 113 942 l 101 917 l 106 639 z m 154 1158 l 106 1204 l 79 1206 l 21 1144 l 19 1119 l 49 1096 l 74 1078 l 82 1065 l 100 1060 l 128 1092 l 169 1131 z m 194 1115 l 239 1067 l 271 1064 l 331 1119 l 333 1147 l 303 1176 l 281 1200 l 256 1207 l 224 1169 l 224 1172 l 183 1135 z "},"Ð":{"ha":550,"x_min":0,"x_max":0,"o":"m 324 132 l 372 231 l 515 450 l 540 492 l 539 593 l 514 625 l 515 622 l 410 763 l 374 829 l 325 878 l 310 924 l 224 1042 l 150 1019 l 90 1001 l 92 950 l 96 878 l 110 860 l 96 833 l 96 568 l 67 567 l 47 568 l 24 568 l 13 497 l 14 453 l 33 447 l 68 450 l 100 450 l 106 413 l 97 101 l 97 103 l 94 10 l 185 -3 l 231 -15 z m 221 651 l 217 856 l 225 846 l 363 622 l 390 600 l 396 567 l 421 529 l 396 489 l 350 413 l 292 300 l 303 288 l 278 275 l 217 176 l 215 174 l 217 249 l 221 454 l 297 450 l 321 465 l 322 554 l 304 572 l 264 569 l 207 568 l 200 589 z "},"Ñ":{"ha":647,"x_min":0,"x_max":0,"o":"m 554 122 l 554 167 l 544 471 l 529 517 l 540 575 l 554 917 l 557 1011 l 500 1021 l 419 1019 l 419 908 l 433 889 l 419 846 l 419 726 l 374 801 l 363 807 l 328 863 l 203 1035 l 93 1004 l 93 932 l 99 788 l 104 708 l 99 419 l 111 392 l 100 351 l 92 154 l 92 131 l 96 118 l 86 7 l 146 -4 l 228 -1 l 231 88 l 226 107 l 228 251 l 215 304 l 222 354 l 225 671 l 208 689 l 207 692 l 226 742 l 226 817 l 263 767 l 319 688 l 360 639 l 379 608 l 399 588 l 421 550 l 422 406 l 426 379 l 422 372 l 421 239 l 422 107 l 421 -1 l 468 -4 l 544 -3 l 563 44 z m 428 1074 l 504 1183 l 490 1210 l 432 1210 l 424 1185 l 403 1160 b 392 1157 399 1158 393 1157 l 306 1217 l 250 1217 l 225 1190 l 161 1115 l 175 1082 l 238 1082 l 242 1119 l 258 1136 b 275 1133 261 1135 271 1133 l 371 1068 z "},"Ò":{"ha":578,"x_min":0,"x_max":0,"o":"m 288 1024 l 275 1022 l 224 1022 l 221 1013 l 213 971 l 207 963 l 132 775 l 139 760 l 114 742 l 39 560 l 28 553 l 31 465 l 64 394 l 114 276 l 156 190 l 171 190 l 167 167 l 215 46 l 217 0 l 343 -1 l 346 14 l 363 58 l 438 236 l 469 303 l 471 325 l 482 339 l 550 476 l 554 553 l 507 656 l 469 739 l 456 739 l 449 776 l 378 950 l 350 1026 z m 290 176 l 229 336 l 201 393 l 174 413 l 188 429 l 175 469 l 157 515 l 156 532 l 201 651 l 192 674 l 211 679 l 288 881 l 296 854 l 328 769 l 353 754 l 340 738 l 394 597 l 411 550 l 422 515 l 354 349 l 356 324 l 357 324 l 340 307 l 296 161 z m 251 1089 l 272 1060 l 285 1051 l 339 1067 l 368 1088 l 333 1131 l 279 1210 l 258 1229 l 183 1200 l 157 1179 l 197 1139 z "},"Ó":{"ha":578,"x_min":0,"x_max":0,"o":"m 288 1024 l 275 1022 l 224 1022 l 221 1013 l 213 971 l 207 963 l 132 775 l 139 760 l 114 742 l 39 560 l 28 553 l 31 465 l 64 394 l 114 276 l 156 190 l 171 190 l 167 167 l 215 46 l 217 0 l 343 -1 l 346 14 l 363 58 l 438 236 l 469 303 l 471 325 l 482 339 l 550 476 l 554 553 l 507 656 l 469 739 l 456 739 l 449 776 l 378 950 l 350 1026 z m 290 176 l 229 336 l 201 393 l 174 413 l 188 429 l 175 469 l 157 515 l 156 532 l 201 651 l 192 674 l 211 679 l 288 881 l 296 854 l 328 769 l 353 754 l 340 738 l 394 597 l 411 550 l 422 515 l 354 349 l 356 324 l 357 324 l 340 307 l 296 161 z m 389 1122 l 446 1179 l 422 1200 l 333 1229 l 313 1201 l 263 1131 l 224 1079 l 249 1063 l 314 1046 l 339 1072 l 339 1097 z "},"Ô":{"ha":578,"x_min":0,"x_max":0,"o":"m 288 1024 l 275 1022 l 224 1022 l 221 1013 l 213 971 l 207 963 l 132 775 l 139 760 l 114 742 l 39 560 l 28 553 l 31 465 l 64 394 l 114 276 l 156 190 l 171 190 l 167 167 l 215 46 l 217 0 l 343 -1 l 346 14 l 363 58 l 438 236 l 469 303 l 471 325 l 482 339 l 550 476 l 554 553 l 507 656 l 469 739 l 456 739 l 449 776 l 378 950 l 350 1026 z m 290 176 l 229 336 l 201 393 l 174 413 l 188 429 l 175 469 l 157 515 l 156 532 l 201 651 l 192 674 l 211 679 l 288 881 l 296 854 l 328 769 l 353 754 l 340 738 l 394 597 l 411 550 l 422 515 l 354 349 l 356 324 l 357 324 l 340 307 l 296 161 z m 424 1072 l 446 1097 l 443 1124 l 399 1154 l 357 1190 l 324 1228 l 278 1232 l 244 1200 l 140 1101 l 158 1058 l 232 1058 l 249 1099 l 247 1099 l 274 1133 l 282 1140 l 285 1139 l 329 1097 l 340 1092 l 339 1086 l 372 1047 z "},"Õ":{"ha":578,"x_min":0,"x_max":0,"o":"m 288 1024 l 275 1022 l 224 1022 l 221 1013 l 213 971 l 207 963 l 132 775 l 139 760 l 114 742 l 39 560 l 28 553 l 31 465 l 64 394 l 114 276 l 156 190 l 171 190 l 167 167 l 215 46 l 217 0 l 343 -1 l 346 14 l 363 58 l 438 236 l 469 303 l 471 325 l 482 339 l 550 476 l 554 553 l 507 656 l 469 739 l 456 739 l 449 776 l 378 950 l 350 1026 z m 290 176 l 229 336 l 201 393 l 174 413 l 188 429 l 175 469 l 157 515 l 156 532 l 201 651 l 192 674 l 211 679 l 288 881 l 296 854 l 328 769 l 353 754 l 340 738 l 394 597 l 411 550 l 422 515 l 354 349 l 356 324 l 357 324 l 340 307 l 296 161 z m 388 1074 l 464 1183 l 450 1210 l 392 1210 l 383 1185 l 363 1160 b 351 1157 358 1158 353 1157 l 265 1217 l 210 1217 l 185 1190 l 121 1115 l 135 1082 l 197 1082 l 201 1119 l 218 1136 b 235 1133 221 1135 231 1133 l 331 1068 z "},"Ö":{"ha":578,"x_min":0,"x_max":0,"o":"m 288 1024 l 275 1022 l 224 1022 l 221 1013 l 213 971 l 207 963 l 132 775 l 139 760 l 114 742 l 39 560 l 28 553 l 31 465 l 64 394 l 114 276 l 156 190 l 171 190 l 167 167 l 215 46 l 217 0 l 343 -1 l 346 14 l 363 58 l 438 236 l 469 303 l 471 325 l 482 339 l 550 476 l 554 553 l 507 656 l 469 739 l 456 739 l 449 776 l 378 950 l 350 1026 z m 290 176 l 229 336 l 201 393 l 174 413 l 188 429 l 175 469 l 157 515 l 156 532 l 201 651 l 192 674 l 211 679 l 288 881 l 296 854 l 328 769 l 353 754 l 340 738 l 394 597 l 411 550 l 422 515 l 354 349 l 356 324 l 357 324 l 340 307 l 296 161 z m 269 1158 l 221 1204 l 194 1206 l 136 1144 l 135 1119 l 164 1096 l 189 1078 l 197 1065 l 215 1060 l 243 1092 l 285 1131 z m 310 1115 l 354 1067 l 386 1064 l 446 1119 l 449 1147 l 418 1176 l 396 1200 l 371 1207 l 339 1169 l 339 1172 l 299 1135 z "},"×":{"ha":528,"x_min":0,"x_max":0,"o":"m 160 460 l 124 422 l 90 394 l 71 378 l 18 340 l 38 300 l 65 281 l 64 282 l 106 247 l 149 281 l 163 301 l 176 332 l 263 431 l 357 333 l 369 319 l 392 278 l 429 251 l 468 283 l 496 314 l 508 344 l 465 381 l 436 382 l 436 403 l 332 506 l 368 539 l 418 593 l 489 650 l 492 692 l 435 749 l 400 754 l 360 688 l 331 654 l 332 656 l 267 579 l 218 639 l 197 643 l 200 660 l 178 689 l 110 758 l 42 700 l 28 664 l 89 617 l 132 576 l 164 549 l 200 506 z "},"Ø":{"ha":578,"x_min":0,"x_max":0,"o":"m 288 1025 l 275 1024 l 224 1024 l 221 1014 l 213 972 l 207 964 l 132 776 l 139 761 l 114 743 l 39 561 l 28 554 l 31 467 l 64 396 l 114 278 l 121 264 l 79 188 l 75 179 l 67 168 l 49 128 l 93 92 l 113 88 l 138 140 l 142 161 l 160 192 l 171 192 l 167 168 l 215 47 l 217 1 l 343 0 l 346 15 l 363 60 l 438 238 l 469 304 l 471 326 l 482 340 l 550 478 l 554 554 l 507 657 l 469 740 l 456 740 l 449 778 l 447 779 l 503 883 l 499 892 l 514 903 l 521 921 l 458 964 l 435 914 l 418 878 l 413 865 l 378 951 l 350 1028 z m 297 618 l 246 504 l 236 488 l 199 417 l 190 401 l 174 414 l 188 431 l 175 471 l 157 517 l 156 533 l 201 653 l 192 675 l 211 681 l 288 882 l 296 856 l 347 721 l 315 651 z m 290 178 l 229 336 l 246 369 l 297 478 l 346 568 l 376 633 l 378 639 l 394 599 l 411 551 l 422 517 l 354 350 l 356 325 l 357 325 l 340 308 l 296 163 z "},"Ù":{"ha":646,"x_min":0,"x_max":0,"o":"m 110 242 l 124 226 l 104 201 l 100 136 l 101 67 l 185 -6 l 272 -7 l 317 17 l 422 71 l 425 61 l 436 -14 l 571 8 l 551 117 l 543 279 l 546 588 l 539 628 l 525 642 l 539 665 l 540 685 l 543 761 l 553 851 l 539 867 l 554 875 l 558 950 l 550 1018 l 486 1019 l 417 1018 l 414 919 l 419 744 l 419 629 l 428 460 l 424 283 l 418 193 l 304 144 l 258 128 l 247 129 l 232 142 l 231 163 l 221 325 l 231 489 l 228 593 l 226 644 l 225 692 l 235 744 l 221 775 l 219 800 l 233 850 l 238 894 l 239 1018 l 114 1021 l 96 969 l 104 746 l 111 703 l 100 674 l 99 575 l 108 424 z m 288 1089 l 308 1060 l 321 1051 l 375 1067 l 404 1088 l 369 1131 l 315 1210 l 294 1229 l 219 1200 l 193 1179 l 233 1139 z "},"Ú":{"ha":646,"x_min":0,"x_max":0,"o":"m 110 242 l 124 226 l 104 201 l 100 136 l 101 67 l 185 -6 l 272 -7 l 317 17 l 422 71 l 425 61 l 436 -14 l 571 8 l 551 117 l 543 279 l 546 588 l 539 628 l 525 642 l 539 665 l 540 685 l 543 761 l 553 851 l 539 867 l 554 875 l 558 950 l 550 1018 l 486 1019 l 417 1018 l 414 919 l 419 744 l 419 629 l 428 460 l 424 283 l 418 193 l 304 144 l 258 128 l 247 129 l 232 142 l 231 163 l 221 325 l 231 489 l 228 593 l 226 644 l 225 692 l 235 744 l 221 775 l 219 800 l 233 850 l 238 894 l 239 1018 l 114 1021 l 96 969 l 104 746 l 111 703 l 100 674 l 99 575 l 108 424 z m 425 1122 l 482 1179 l 458 1200 l 369 1229 l 349 1201 l 299 1131 l 260 1079 l 285 1063 l 350 1046 l 375 1072 l 375 1097 z "},"Û":{"ha":646,"x_min":0,"x_max":0,"o":"m 110 242 l 124 226 l 104 201 l 100 136 l 101 67 l 185 -6 l 272 -7 l 317 17 l 422 71 l 425 61 l 436 -14 l 571 8 l 551 117 l 543 279 l 546 588 l 539 628 l 525 642 l 539 665 l 540 685 l 543 761 l 553 851 l 539 867 l 554 875 l 558 950 l 550 1018 l 486 1019 l 417 1018 l 414 919 l 419 744 l 419 629 l 428 460 l 424 283 l 418 193 l 304 144 l 258 128 l 247 129 l 232 142 l 231 163 l 221 325 l 231 489 l 228 593 l 226 644 l 225 692 l 235 744 l 221 775 l 219 800 l 233 850 l 238 894 l 239 1018 l 114 1021 l 96 969 l 104 746 l 111 703 l 100 674 l 99 575 l 108 424 z m 460 1072 l 482 1097 l 479 1124 l 435 1154 l 393 1190 l 360 1228 l 314 1232 l 281 1200 l 176 1101 l 194 1058 l 268 1058 l 285 1099 l 283 1099 l 310 1133 l 318 1140 l 321 1139 l 365 1097 l 376 1092 l 375 1086 l 408 1047 z "},"Ü":{"ha":646,"x_min":0,"x_max":0,"o":"m 110 242 l 124 226 l 104 201 l 100 136 l 101 67 l 185 -6 l 272 -7 l 317 17 l 422 71 l 425 61 l 436 -14 l 571 8 l 551 117 l 543 279 l 546 588 l 539 628 l 525 642 l 539 665 l 540 685 l 543 761 l 553 851 l 539 867 l 554 875 l 558 950 l 550 1018 l 486 1019 l 417 1018 l 414 919 l 419 744 l 419 629 l 428 460 l 424 283 l 418 193 l 304 144 l 258 128 l 247 129 l 232 142 l 231 163 l 221 325 l 231 489 l 228 593 l 226 644 l 225 692 l 235 744 l 221 775 l 219 800 l 233 850 l 238 894 l 239 1018 l 114 1021 l 96 969 l 104 746 l 111 703 l 100 674 l 99 575 l 108 424 z m 306 1158 l 257 1204 l 231 1206 l 172 1144 l 171 1119 l 200 1096 l 225 1078 l 233 1065 l 251 1060 l 279 1092 l 321 1131 z m 346 1115 l 390 1067 l 422 1064 l 482 1119 l 485 1147 l 454 1176 l 432 1200 l 407 1207 l 375 1169 l 375 1172 l 335 1135 z "},"Ý":{"ha":556,"x_min":0,"x_max":0,"o":"m 310 -4 l 350 24 l 340 114 l 342 174 l 336 197 l 342 297 l 325 311 l 340 353 l 339 393 l 343 408 l 342 449 l 382 561 l 436 719 l 457 781 l 478 824 l 488 843 l 472 856 l 504 869 l 543 969 l 500 1000 l 471 1010 l 408 1028 l 396 960 l 379 919 l 356 825 l 335 779 l 314 697 l 289 610 l 283 603 l 268 653 l 253 675 l 257 686 l 246 736 l 219 790 l 190 894 l 179 928 l 179 951 l 151 1026 l 106 1015 l 29 992 l 26 947 l 58 890 l 85 879 l 76 835 l 100 771 l 119 724 l 119 725 l 174 588 l 203 503 l 217 436 l 214 376 l 219 197 l 233 179 l 217 146 l 207 78 l 204 -1 z m 381 1122 l 438 1179 l 414 1200 l 325 1229 l 304 1201 l 254 1131 l 215 1079 l 240 1063 l 306 1046 l 331 1072 l 331 1097 z "},"Þ":{"ha":504,"x_min":0,"x_max":0,"o":"m 371 375 l 422 415 l 467 458 l 500 482 l 501 572 l 399 651 l 360 681 l 322 694 l 321 713 l 246 781 l 201 822 l 201 885 l 208 919 l 213 1014 l 133 1021 l 69 1015 l 75 956 l 93 935 l 76 918 l 82 693 l 88 490 l 107 454 l 86 451 l 85 281 l 88 147 l 64 0 l 147 -7 l 210 -4 l 204 92 l 203 133 l 199 171 l 207 213 l 276 282 z m 203 371 l 199 565 l 203 660 l 313 569 l 338 540 l 365 518 l 318 472 l 276 431 l 276 414 l 260 414 l 221 376 l 203 365 z "},"ß":{"ha":586,"x_min":0,"x_max":0,"o":"m 381 -25 l 443 69 l 433 103 l 464 99 l 542 207 l 586 274 l 588 338 l 524 393 l 444 461 l 447 458 l 422 486 l 388 522 l 440 599 l 439 599 l 549 733 l 549 793 l 444 893 l 411 936 l 356 1015 l 265 1024 l 226 961 l 225 958 l 225 960 l 125 847 l 82 794 l 93 657 l 89 589 l 101 565 l 92 547 l 89 260 l 92 222 l 94 189 l 75 10 l 131 0 l 200 0 l 225 15 l 221 107 l 222 197 l 203 235 l 217 239 l 211 422 l 208 496 l 204 572 l 211 711 l 207 736 l 204 754 l 206 758 l 279 840 l 306 878 l 308 881 l 335 843 l 363 810 l 415 751 l 346 660 l 357 625 l 339 631 l 269 538 l 267 475 l 310 439 l 439 308 l 454 296 l 449 285 l 378 178 l 308 107 l 294 88 l 268 49 z m 228 963 l 226 961 l 225 960 z "},"à":{"ha":590,"x_min":0,"x_max":0,"o":"m 388 285 l 399 239 l 411 231 l 400 217 l 406 178 l 424 3 l 447 -10 l 465 -10 l 568 24 l 553 83 l 532 106 l 540 117 l 526 204 l 492 333 l 492 353 l 425 688 l 408 700 l 418 725 l 374 938 l 368 951 l 364 963 l 365 1011 l 342 1022 l 228 1017 l 214 929 l 201 871 l 192 815 l 207 794 l 182 765 l 140 579 l 140 554 l 132 525 l 128 499 l 100 328 l 101 300 l 86 285 l 72 197 l 35 28 l 83 -3 l 169 -11 l 185 82 l 175 121 l 188 136 l 203 235 l 231 246 l 243 251 l 336 274 l 364 293 l 365 293 l 385 296 z m 260 603 l 253 625 l 267 632 l 294 801 l 315 654 l 321 629 l 326 557 l 354 407 l 315 397 l 225 369 l 226 379 l 243 469 l 242 468 z m 256 1089 l 276 1060 l 289 1051 l 343 1067 l 372 1088 l 338 1131 l 283 1210 l 263 1229 l 188 1200 l 161 1179 l 201 1139 z "},"á":{"ha":590,"x_min":0,"x_max":0,"o":"m 388 285 l 399 239 l 411 231 l 400 217 l 406 178 l 424 3 l 447 -10 l 465 -10 l 568 24 l 553 83 l 532 106 l 540 117 l 526 204 l 492 333 l 492 353 l 425 688 l 408 700 l 418 725 l 374 938 l 368 951 l 364 963 l 365 1011 l 342 1022 l 228 1017 l 214 929 l 201 871 l 192 815 l 207 794 l 182 765 l 140 579 l 140 554 l 132 525 l 128 499 l 100 328 l 101 300 l 86 285 l 72 197 l 35 28 l 83 -3 l 169 -11 l 185 82 l 175 121 l 188 136 l 203 235 l 231 246 l 243 251 l 336 274 l 364 293 l 365 293 l 385 296 z m 260 603 l 253 625 l 267 632 l 294 801 l 315 654 l 321 629 l 326 557 l 354 407 l 315 397 l 225 369 l 226 379 l 243 469 l 242 468 z m 393 1122 l 450 1179 l 426 1200 l 338 1229 l 317 1201 l 267 1131 l 228 1079 l 253 1063 l 318 1046 l 343 1072 l 343 1097 z "},"â":{"ha":590,"x_min":0,"x_max":0,"o":"m 388 285 l 399 239 l 411 231 l 400 217 l 406 178 l 424 3 l 447 -10 l 465 -10 l 568 24 l 553 83 l 532 106 l 540 117 l 526 204 l 492 333 l 492 353 l 425 688 l 408 700 l 418 725 l 374 938 l 368 951 l 364 963 l 365 1011 l 342 1022 l 228 1017 l 214 929 l 201 871 l 192 815 l 207 794 l 182 765 l 140 579 l 140 554 l 132 525 l 128 499 l 100 328 l 101 300 l 86 285 l 72 197 l 35 28 l 83 -3 l 169 -11 l 185 82 l 175 121 l 188 136 l 203 235 l 231 246 l 243 251 l 336 274 l 364 293 l 365 293 l 385 296 z m 260 603 l 253 625 l 267 632 l 294 801 l 315 654 l 321 629 l 326 557 l 354 407 l 315 397 l 225 369 l 226 379 l 243 469 l 242 468 z m 428 1072 l 450 1097 l 447 1124 l 403 1154 l 361 1190 l 328 1228 l 282 1232 l 249 1200 l 144 1101 l 163 1058 l 236 1058 l 253 1099 l 251 1099 l 278 1133 l 286 1140 l 289 1139 l 333 1097 l 344 1092 l 343 1086 l 376 1047 z "},"ã":{"ha":590,"x_min":0,"x_max":0,"o":"m 388 285 l 399 239 l 411 231 l 400 217 l 406 178 l 424 3 l 447 -10 l 465 -10 l 568 24 l 553 83 l 532 106 l 540 117 l 526 204 l 492 333 l 492 353 l 425 688 l 408 700 l 418 725 l 374 938 l 368 951 l 364 963 l 365 1011 l 342 1022 l 228 1017 l 214 929 l 201 871 l 192 815 l 207 794 l 182 765 l 140 579 l 140 554 l 132 525 l 128 499 l 100 328 l 101 300 l 86 285 l 72 197 l 35 28 l 83 -3 l 169 -11 l 185 82 l 175 121 l 188 136 l 203 235 l 231 246 l 243 251 l 336 274 l 364 293 l 365 293 l 385 296 z m 260 603 l 253 625 l 267 632 l 294 801 l 315 654 l 321 629 l 326 557 l 354 407 l 315 397 l 225 369 l 226 379 l 243 469 l 242 468 z m 392 1074 l 468 1183 l 454 1210 l 396 1210 l 388 1185 l 367 1160 b 356 1157 363 1158 357 1157 l 269 1217 l 214 1217 l 189 1190 l 125 1115 l 139 1082 l 201 1082 l 206 1119 l 222 1136 b 239 1133 225 1135 235 1133 l 335 1068 z "},"ä":{"ha":590,"x_min":0,"x_max":0,"o":"m 388 285 l 399 239 l 411 231 l 400 217 l 406 178 l 424 3 l 447 -10 l 465 -10 l 568 24 l 553 83 l 532 106 l 540 117 l 526 204 l 492 333 l 492 353 l 425 688 l 408 700 l 418 725 l 374 938 l 368 951 l 364 963 l 365 1011 l 342 1022 l 228 1017 l 214 929 l 201 871 l 192 815 l 207 794 l 182 765 l 140 579 l 140 554 l 132 525 l 128 499 l 100 328 l 101 300 l 86 285 l 72 197 l 35 28 l 83 -3 l 169 -11 l 185 82 l 175 121 l 188 136 l 203 235 l 231 246 l 243 251 l 336 274 l 364 293 l 365 293 l 385 296 z m 260 603 l 253 625 l 267 632 l 294 801 l 315 654 l 321 629 l 326 557 l 354 407 l 315 397 l 225 369 l 226 379 l 243 469 l 242 468 z m 274 1158 l 225 1204 l 199 1206 l 140 1144 l 139 1119 l 168 1096 l 193 1078 l 201 1065 l 219 1060 l 247 1092 l 289 1131 z m 314 1115 l 358 1067 l 390 1064 l 450 1119 l 453 1147 l 422 1176 l 400 1200 l 375 1207 l 343 1169 l 343 1172 l 303 1135 z "},"å":{"ha":590,"x_min":0,"x_max":0,"o":"m 388 285 l 399 239 l 411 231 l 400 217 l 406 178 l 424 3 l 447 -10 l 465 -10 l 568 24 l 553 83 l 532 106 l 540 117 l 526 204 l 492 333 l 492 353 l 425 688 l 408 700 l 418 725 l 374 938 l 368 951 l 364 963 l 360 1006 l 365 1011 l 428 1065 l 426 1104 l 374 1156 l 363 1164 l 361 1169 l 311 1226 l 267 1226 l 244 1193 l 229 1175 l 221 1161 l 221 1163 l 154 1107 l 156 1083 l 157 1064 l 224 997 l 224 999 l 225 997 l 214 929 l 201 871 l 192 815 l 207 794 l 182 765 l 140 579 l 140 554 l 132 525 l 128 499 l 100 328 l 101 300 l 86 285 l 72 197 l 35 28 l 83 -3 l 169 -11 l 185 82 l 175 121 l 188 136 l 203 235 l 231 246 l 243 251 l 336 274 l 364 293 l 365 293 l 385 296 z m 260 603 l 253 625 l 267 632 l 294 801 l 315 654 l 321 629 l 326 557 l 354 407 l 315 397 l 225 369 l 226 379 l 243 469 l 242 468 z m 261 1125 l 274 1138 l 286 1147 l 321 1108 l 346 1078 l 297 1022 l 267 1053 l 235 1092 l 257 1115 z "},"æ":{"ha":757,"x_min":0,"x_max":0,"o":"m 707 894 l 714 969 l 713 1022 l 590 1021 l 540 1017 l 521 1021 l 439 1021 l 393 1017 l 339 1018 l 311 924 l 292 865 l 272 801 l 286 797 l 257 769 l 199 590 l 185 561 l 183 524 l 168 499 l 111 326 l 110 317 l 119 303 l 92 283 l 68 203 l -1 32 l 49 0 l 133 -15 l 160 56 l 165 107 l 172 128 l 208 235 l 203 235 l 208 236 l 244 242 l 288 249 l 379 263 l 381 254 l 381 249 l 375 221 l 372 158 l 378 131 l 369 104 l 364 50 l 374 0 l 476 -1 l 490 4 l 490 6 l 543 6 l 608 -3 l 701 -4 l 724 21 l 728 128 l 675 129 l 636 119 l 538 118 l 522 118 l 503 122 l 507 122 l 504 250 l 499 256 l 489 256 l 507 283 l 496 317 l 504 460 l 608 456 l 678 453 l 686 506 l 686 569 l 657 575 l 553 568 l 525 568 l 499 569 l 494 639 l 494 667 l 493 701 l 492 701 l 503 718 l 500 843 l 501 879 l 501 907 l 507 906 l 521 906 l 589 903 l 610 913 l 647 894 z m 240 349 l 246 372 l 272 461 l 324 600 l 324 606 l 322 613 l 321 613 l 338 632 l 376 788 l 376 593 l 372 540 l 382 394 l 378 386 l 378 369 l 239 343 z "},"ç":{"ha":431,"x_min":0,"x_max":0,"o":"m 44 411 l 94 321 l 158 261 l 147 236 l 253 72 l 256 56 l 267 38 l 208 -12 l 203 -61 l 242 -92 l 268 -115 l 267 -115 l 239 -139 l 196 -167 l 214 -208 l 232 -228 l 261 -228 l 299 -190 l 313 -175 l 350 -143 l 361 -103 l 328 -72 l 286 -35 l 303 -18 l 350 13 l 422 72 l 390 124 l 318 218 l 254 326 l 203 406 l 190 433 l 171 453 l 157 479 l 136 519 l 154 553 l 181 600 l 226 672 l 310 796 l 317 833 l 340 849 l 379 903 l 418 972 l 314 1042 l 265 985 l 264 974 l 186 846 l 186 840 l 151 785 l 151 751 l 101 703 l 11 550 l 13 461 z "},"è":{"ha":503,"x_min":0,"x_max":0,"o":"m 443 890 l 446 968 l 444 1022 l 307 1021 l 253 1010 l 233 1021 l 154 1021 l 89 1013 l 96 914 l 111 896 l 96 872 l 97 801 l 96 693 l 96 590 l 92 539 l 103 401 l 97 390 l 99 315 l 99 283 l 111 267 l 94 231 l 93 167 l 94 151 l 86 57 l 93 0 l 197 -1 l 208 6 l 257 6 l 336 -3 l 428 -4 l 460 10 l 465 61 l 468 131 l 399 132 l 364 121 l 253 119 l 242 122 l 229 125 l 226 260 l 225 263 l 229 275 l 221 315 l 226 458 l 249 458 l 336 456 l 404 453 l 407 510 l 415 551 l 397 586 l 326 579 l 272 576 l 221 579 l 218 633 l 204 644 l 219 669 l 226 711 l 226 849 l 229 883 l 229 899 l 242 899 l 318 896 l 340 900 l 344 901 l 378 890 z m 244 1089 l 265 1060 l 278 1051 l 332 1067 l 361 1088 l 326 1131 l 272 1210 l 251 1229 l 176 1200 l 150 1179 l 190 1139 z "},"é":{"ha":503,"x_min":0,"x_max":0,"o":"m 443 890 l 446 968 l 444 1022 l 307 1021 l 253 1010 l 233 1021 l 154 1021 l 89 1013 l 96 914 l 111 896 l 96 872 l 97 801 l 96 693 l 96 590 l 92 539 l 103 401 l 97 390 l 99 315 l 99 283 l 111 267 l 94 231 l 93 167 l 94 151 l 86 57 l 93 0 l 197 -1 l 208 6 l 257 6 l 336 -3 l 428 -4 l 460 10 l 465 61 l 468 131 l 399 132 l 364 121 l 253 119 l 242 122 l 229 125 l 226 260 l 225 263 l 229 275 l 221 315 l 226 458 l 249 458 l 336 456 l 404 453 l 407 510 l 415 551 l 397 586 l 326 579 l 272 576 l 221 579 l 218 633 l 204 644 l 219 669 l 226 711 l 226 849 l 229 883 l 229 899 l 242 899 l 318 896 l 340 900 l 344 901 l 378 890 z m 382 1122 l 439 1179 l 415 1200 l 326 1229 l 306 1201 l 256 1131 l 217 1079 l 242 1063 l 307 1046 l 332 1072 l 332 1097 z "},"ê":{"ha":503,"x_min":0,"x_max":0,"o":"m 443 890 l 446 968 l 444 1022 l 307 1021 l 253 1010 l 233 1021 l 154 1021 l 89 1013 l 96 914 l 111 896 l 96 872 l 97 801 l 96 693 l 96 590 l 92 539 l 103 401 l 97 390 l 99 315 l 99 283 l 111 267 l 94 231 l 93 167 l 94 151 l 86 57 l 93 0 l 197 -1 l 208 6 l 257 6 l 336 -3 l 428 -4 l 460 10 l 465 61 l 468 131 l 399 132 l 364 121 l 253 119 l 242 122 l 229 125 l 226 260 l 225 263 l 229 275 l 221 315 l 226 458 l 249 458 l 336 456 l 404 453 l 407 510 l 415 551 l 397 586 l 326 579 l 272 576 l 221 579 l 218 633 l 204 644 l 219 669 l 226 711 l 226 849 l 229 883 l 229 899 l 242 899 l 318 896 l 340 900 l 344 901 l 378 890 z m 417 1072 l 439 1097 l 436 1124 l 392 1154 l 350 1190 l 317 1228 l 271 1232 l 238 1200 l 133 1101 l 151 1058 l 225 1058 l 242 1099 l 240 1099 l 267 1133 l 275 1140 l 278 1139 l 322 1097 l 333 1092 l 332 1086 l 365 1047 z "},"ë":{"ha":503,"x_min":0,"x_max":0,"o":"m 443 890 l 446 968 l 444 1022 l 307 1021 l 253 1010 l 233 1021 l 154 1021 l 89 1013 l 96 914 l 111 896 l 96 872 l 97 801 l 96 693 l 96 590 l 92 539 l 103 401 l 97 390 l 99 315 l 99 283 l 111 267 l 94 231 l 93 167 l 94 151 l 86 57 l 93 0 l 197 -1 l 208 6 l 257 6 l 336 -3 l 428 -4 l 460 10 l 465 61 l 468 131 l 399 132 l 364 121 l 253 119 l 242 122 l 229 125 l 226 260 l 225 263 l 229 275 l 221 315 l 226 458 l 249 458 l 336 456 l 404 453 l 407 510 l 415 551 l 397 586 l 326 579 l 272 576 l 221 579 l 218 633 l 204 644 l 219 669 l 226 711 l 226 849 l 229 883 l 229 899 l 242 899 l 318 896 l 340 900 l 344 901 l 378 890 z m 263 1158 l 214 1204 l 188 1206 l 129 1144 l 128 1119 l 157 1096 l 182 1078 l 190 1065 l 208 1060 l 236 1092 l 278 1131 z m 303 1115 l 347 1067 l 379 1064 l 439 1119 l 442 1147 l 411 1176 l 389 1200 l 364 1207 l 332 1169 l 332 1172 l 292 1135 z "},"ì":{"ha":336,"x_min":0,"x_max":0,"o":"m 115 604 l 111 528 l 107 485 l 107 225 l 107 175 l 124 151 l 107 124 l 88 0 l 151 -1 l 181 -3 l 242 17 l 243 68 l 240 94 l 238 115 l 238 500 l 222 510 l 235 539 l 232 574 l 226 628 l 231 699 l 235 881 l 242 915 l 249 1017 l 158 1022 l 93 1018 l 100 949 l 113 942 l 101 917 l 106 639 z m 157 1089 l 178 1060 l 190 1051 l 244 1067 l 274 1088 l 239 1131 l 185 1210 l 164 1229 l 89 1200 l 63 1179 l 103 1139 z "},"í":{"ha":336,"x_min":0,"x_max":0,"o":"m 115 604 l 111 528 l 107 485 l 107 225 l 107 175 l 124 151 l 107 124 l 88 0 l 151 -1 l 181 -3 l 242 17 l 243 68 l 240 94 l 238 115 l 238 500 l 222 510 l 235 539 l 232 574 l 226 628 l 231 699 l 235 881 l 242 915 l 249 1017 l 158 1022 l 93 1018 l 100 949 l 113 942 l 101 917 l 106 639 z m 222 1122 l 279 1179 l 256 1200 l 167 1229 l 146 1201 l 96 1131 l 57 1079 l 82 1063 l 147 1046 l 172 1072 l 172 1097 z "},"î":{"ha":336,"x_min":0,"x_max":0,"o":"m 115 604 l 111 528 l 107 485 l 107 225 l 107 175 l 124 151 l 107 124 l 88 0 l 151 -1 l 181 -3 l 242 17 l 243 68 l 240 94 l 238 115 l 238 500 l 222 510 l 235 539 l 232 574 l 226 628 l 231 699 l 235 881 l 242 915 l 249 1017 l 158 1022 l 93 1018 l 100 949 l 113 942 l 101 917 l 106 639 z m 299 1072 l 321 1097 l 318 1124 l 274 1154 l 232 1190 l 199 1228 l 153 1232 l 119 1200 l 15 1101 l 33 1058 l 107 1058 l 124 1099 l 122 1099 l 149 1133 l 157 1140 l 160 1139 l 204 1097 l 215 1092 l 214 1086 l 247 1047 z "},"ï":{"ha":336,"x_min":0,"x_max":0,"o":"m 115 604 l 111 528 l 107 485 l 107 225 l 107 175 l 124 151 l 107 124 l 88 0 l 151 -1 l 181 -3 l 242 17 l 243 68 l 240 94 l 238 115 l 238 500 l 222 510 l 235 539 l 232 574 l 226 628 l 231 699 l 235 881 l 242 915 l 249 1017 l 158 1022 l 93 1018 l 100 949 l 113 942 l 101 917 l 106 639 z m 146 1158 l 97 1204 l 71 1206 l 13 1144 l 11 1119 l 40 1096 l 65 1078 l 74 1065 l 92 1060 l 119 1092 l 161 1131 z m 186 1115 l 231 1067 l 263 1064 l 322 1119 l 325 1147 l 294 1176 l 272 1200 l 247 1207 l 215 1169 l 215 1172 l 175 1135 z "},"ð":{"ha":550,"x_min":0,"x_max":0,"o":"m 324 132 l 372 231 l 515 450 l 540 492 l 539 593 l 514 625 l 515 622 l 410 763 l 374 829 l 325 878 l 310 924 l 224 1042 l 150 1019 l 90 1001 l 92 950 l 96 878 l 110 860 l 96 833 l 96 568 l 67 567 l 47 568 l 24 568 l 13 497 l 14 453 l 33 447 l 68 450 l 100 450 l 106 413 l 97 101 l 97 103 l 94 10 l 185 -3 l 231 -15 z m 221 651 l 217 856 l 225 846 l 363 622 l 390 600 l 396 567 l 421 529 l 396 489 l 350 413 l 292 300 l 303 288 l 278 275 l 217 176 l 215 174 l 217 249 l 221 454 l 297 450 l 321 465 l 322 554 l 304 572 l 264 569 l 207 568 l 200 589 z "},"ñ":{"ha":647,"x_min":0,"x_max":0,"o":"m 554 122 l 554 167 l 544 471 l 529 517 l 540 575 l 554 917 l 557 1011 l 500 1021 l 419 1019 l 419 908 l 433 889 l 419 846 l 419 726 l 374 801 l 363 807 l 328 863 l 203 1035 l 93 1004 l 93 932 l 99 788 l 104 708 l 99 419 l 111 392 l 100 351 l 92 154 l 92 131 l 96 118 l 86 7 l 146 -4 l 228 -1 l 231 88 l 226 107 l 228 251 l 215 304 l 222 354 l 225 671 l 208 689 l 207 692 l 226 742 l 226 817 l 263 767 l 319 688 l 360 639 l 379 608 l 399 588 l 421 550 l 422 406 l 426 379 l 422 372 l 421 239 l 422 107 l 421 -1 l 468 -4 l 544 -3 l 563 44 z m 428 1074 l 504 1183 l 490 1210 l 432 1210 l 424 1185 l 403 1160 b 392 1157 399 1158 393 1157 l 306 1217 l 250 1217 l 225 1190 l 161 1115 l 175 1082 l 238 1082 l 242 1119 l 258 1136 b 275 1133 261 1135 271 1133 l 371 1068 z "},"ò":{"ha":578,"x_min":0,"x_max":0,"o":"m 288 1024 l 275 1022 l 224 1022 l 221 1013 l 213 971 l 207 963 l 132 775 l 139 760 l 114 742 l 39 560 l 28 553 l 31 465 l 64 394 l 114 276 l 156 190 l 171 190 l 167 167 l 215 46 l 217 0 l 343 -1 l 346 14 l 363 58 l 438 236 l 469 303 l 471 325 l 482 339 l 550 476 l 554 553 l 507 656 l 469 739 l 456 739 l 449 776 l 378 950 l 350 1026 z m 290 176 l 229 336 l 201 393 l 174 413 l 188 429 l 175 469 l 157 515 l 156 532 l 201 651 l 192 674 l 211 679 l 288 881 l 296 854 l 328 769 l 353 754 l 340 738 l 394 597 l 411 550 l 422 515 l 354 349 l 356 324 l 357 324 l 340 307 l 296 161 z m 251 1089 l 272 1060 l 285 1051 l 339 1067 l 368 1088 l 333 1131 l 279 1210 l 258 1229 l 183 1200 l 157 1179 l 197 1139 z "},"ó":{"ha":578,"x_min":0,"x_max":0,"o":"m 288 1024 l 275 1022 l 224 1022 l 221 1013 l 213 971 l 207 963 l 132 775 l 139 760 l 114 742 l 39 560 l 28 553 l 31 465 l 64 394 l 114 276 l 156 190 l 171 190 l 167 167 l 215 46 l 217 0 l 343 -1 l 346 14 l 363 58 l 438 236 l 469 303 l 471 325 l 482 339 l 550 476 l 554 553 l 507 656 l 469 739 l 456 739 l 449 776 l 378 950 l 350 1026 z m 290 176 l 229 336 l 201 393 l 174 413 l 188 429 l 175 469 l 157 515 l 156 532 l 201 651 l 192 674 l 211 679 l 288 881 l 296 854 l 328 769 l 353 754 l 340 738 l 394 597 l 411 550 l 422 515 l 354 349 l 356 324 l 357 324 l 340 307 l 296 161 z m 389 1122 l 446 1179 l 422 1200 l 333 1229 l 313 1201 l 263 1131 l 224 1079 l 249 1063 l 314 1046 l 339 1072 l 339 1097 z "},"ô":{"ha":578,"x_min":0,"x_max":0,"o":"m 288 1024 l 275 1022 l 224 1022 l 221 1013 l 213 971 l 207 963 l 132 775 l 139 760 l 114 742 l 39 560 l 28 553 l 31 465 l 64 394 l 114 276 l 156 190 l 171 190 l 167 167 l 215 46 l 217 0 l 343 -1 l 346 14 l 363 58 l 438 236 l 469 303 l 471 325 l 482 339 l 550 476 l 554 553 l 507 656 l 469 739 l 456 739 l 449 776 l 378 950 l 350 1026 z m 290 176 l 229 336 l 201 393 l 174 413 l 188 429 l 175 469 l 157 515 l 156 532 l 201 651 l 192 674 l 211 679 l 288 881 l 296 854 l 328 769 l 353 754 l 340 738 l 394 597 l 411 550 l 422 515 l 354 349 l 356 324 l 357 324 l 340 307 l 296 161 z m 424 1072 l 446 1097 l 443 1124 l 399 1154 l 357 1190 l 324 1228 l 278 1232 l 244 1200 l 140 1101 l 158 1058 l 232 1058 l 249 1099 l 247 1099 l 274 1133 l 282 1140 l 285 1139 l 329 1097 l 340 1092 l 339 1086 l 372 1047 z "},"õ":{"ha":578,"x_min":0,"x_max":0,"o":"m 288 1024 l 275 1022 l 224 1022 l 221 1013 l 213 971 l 207 963 l 132 775 l 139 760 l 114 742 l 39 560 l 28 553 l 31 465 l 64 394 l 114 276 l 156 190 l 171 190 l 167 167 l 215 46 l 217 0 l 343 -1 l 346 14 l 363 58 l 438 236 l 469 303 l 471 325 l 482 339 l 550 476 l 554 553 l 507 656 l 469 739 l 456 739 l 449 776 l 378 950 l 350 1026 z m 290 176 l 229 336 l 201 393 l 174 413 l 188 429 l 175 469 l 157 515 l 156 532 l 201 651 l 192 674 l 211 679 l 288 881 l 296 854 l 328 769 l 353 754 l 340 738 l 394 597 l 411 550 l 422 515 l 354 349 l 356 324 l 357 324 l 340 307 l 296 161 z m 388 1074 l 464 1183 l 450 1210 l 392 1210 l 383 1185 l 363 1160 b 351 1157 358 1158 353 1157 l 265 1217 l 210 1217 l 185 1190 l 121 1115 l 135 1082 l 197 1082 l 201 1119 l 218 1136 b 235 1133 221 1135 231 1133 l 331 1068 z "},"ö":{"ha":578,"x_min":0,"x_max":0,"o":"m 288 1024 l 275 1022 l 224 1022 l 221 1013 l 213 971 l 207 963 l 132 775 l 139 760 l 114 742 l 39 560 l 28 553 l 31 465 l 64 394 l 114 276 l 156 190 l 171 190 l 167 167 l 215 46 l 217 0 l 343 -1 l 346 14 l 363 58 l 438 236 l 469 303 l 471 325 l 482 339 l 550 476 l 554 553 l 507 656 l 469 739 l 456 739 l 449 776 l 378 950 l 350 1026 z m 290 176 l 229 336 l 201 393 l 174 413 l 188 429 l 175 469 l 157 515 l 156 532 l 201 651 l 192 674 l 211 679 l 288 881 l 296 854 l 328 769 l 353 754 l 340 738 l 394 597 l 411 550 l 422 515 l 354 349 l 356 324 l 357 324 l 340 307 l 296 161 z m 269 1158 l 221 1204 l 194 1206 l 136 1144 l 135 1119 l 164 1096 l 189 1078 l 197 1065 l 215 1060 l 243 1092 l 285 1131 z m 310 1115 l 354 1067 l 386 1064 l 446 1119 l 449 1147 l 418 1176 l 396 1200 l 371 1207 l 339 1169 l 339 1172 l 299 1135 z "},"÷":{"ha":528,"x_min":0,"x_max":0,"o":"m 351 742 l 288 807 l 257 806 l 188 736 l 185 701 l 244 640 l 281 628 l 296 657 l 314 656 l 325 671 l 361 717 z m 347 325 l 294 381 l 256 383 l 186 313 l 183 281 l 215 257 l 247 214 l 283 210 l 360 289 z m 111 563 l 75 567 l 56 568 l 32 565 l 24 489 l 28 443 l 47 438 l 85 440 l 115 442 l 321 447 l 479 439 l 503 454 l 504 551 l 486 569 l 446 565 l 274 558 l 235 544 l 203 560 z "},"ø":{"ha":578,"x_min":0,"x_max":0,"o":"m 288 1025 l 275 1024 l 224 1024 l 221 1014 l 213 972 l 207 964 l 132 776 l 139 761 l 114 743 l 39 561 l 28 554 l 31 467 l 64 396 l 114 278 l 121 264 l 79 188 l 75 179 l 67 168 l 49 128 l 93 92 l 113 88 l 138 140 l 142 161 l 160 192 l 171 192 l 167 168 l 215 47 l 217 1 l 343 0 l 346 15 l 363 60 l 438 238 l 469 304 l 471 326 l 482 340 l 550 478 l 554 554 l 507 657 l 469 740 l 456 740 l 449 778 l 447 779 l 503 883 l 499 892 l 514 903 l 521 921 l 458 964 l 435 914 l 418 878 l 413 865 l 378 951 l 350 1028 z m 297 618 l 246 504 l 236 488 l 199 417 l 190 401 l 174 414 l 188 431 l 175 471 l 157 517 l 156 533 l 201 653 l 192 675 l 211 681 l 288 882 l 296 856 l 347 721 l 315 651 z m 290 178 l 229 336 l 246 369 l 297 478 l 346 568 l 376 633 l 378 639 l 394 599 l 411 551 l 422 517 l 354 350 l 356 325 l 357 325 l 340 308 l 296 163 z "},"ù":{"ha":646,"x_min":0,"x_max":0,"o":"m 110 242 l 124 226 l 104 201 l 100 136 l 101 67 l 185 -6 l 272 -7 l 317 17 l 422 71 l 425 61 l 436 -14 l 571 8 l 551 117 l 543 279 l 546 588 l 539 628 l 525 642 l 539 665 l 540 685 l 543 761 l 553 851 l 539 867 l 554 875 l 558 950 l 550 1018 l 486 1019 l 417 1018 l 414 919 l 419 744 l 419 629 l 428 460 l 424 283 l 418 193 l 304 144 l 258 128 l 247 129 l 232 142 l 231 163 l 221 325 l 231 489 l 228 593 l 226 644 l 225 692 l 235 744 l 221 775 l 219 800 l 233 850 l 238 894 l 239 1018 l 114 1021 l 96 969 l 104 746 l 111 703 l 100 674 l 99 575 l 108 424 z m 288 1089 l 308 1060 l 321 1051 l 375 1067 l 404 1088 l 369 1131 l 315 1210 l 294 1229 l 219 1200 l 193 1179 l 233 1139 z "},"ú":{"ha":646,"x_min":0,"x_max":0,"o":"m 110 242 l 124 226 l 104 201 l 100 136 l 101 67 l 185 -6 l 272 -7 l 317 17 l 422 71 l 425 61 l 436 -14 l 571 8 l 551 117 l 543 279 l 546 588 l 539 628 l 525 642 l 539 665 l 540 685 l 543 761 l 553 851 l 539 867 l 554 875 l 558 950 l 550 1018 l 486 1019 l 417 1018 l 414 919 l 419 744 l 419 629 l 428 460 l 424 283 l 418 193 l 304 144 l 258 128 l 247 129 l 232 142 l 231 163 l 221 325 l 231 489 l 228 593 l 226 644 l 225 692 l 235 744 l 221 775 l 219 800 l 233 850 l 238 894 l 239 1018 l 114 1021 l 96 969 l 104 746 l 111 703 l 100 674 l 99 575 l 108 424 z m 425 1122 l 482 1179 l 458 1200 l 369 1229 l 349 1201 l 299 1131 l 260 1079 l 285 1063 l 350 1046 l 375 1072 l 375 1097 z "},"û":{"ha":646,"x_min":0,"x_max":0,"o":"m 110 242 l 124 226 l 104 201 l 100 136 l 101 67 l 185 -6 l 272 -7 l 317 17 l 422 71 l 425 61 l 436 -14 l 571 8 l 551 117 l 543 279 l 546 588 l 539 628 l 525 642 l 539 665 l 540 685 l 543 761 l 553 851 l 539 867 l 554 875 l 558 950 l 550 1018 l 486 1019 l 417 1018 l 414 919 l 419 744 l 419 629 l 428 460 l 424 283 l 418 193 l 304 144 l 258 128 l 247 129 l 232 142 l 231 163 l 221 325 l 231 489 l 228 593 l 226 644 l 225 692 l 235 744 l 221 775 l 219 800 l 233 850 l 238 894 l 239 1018 l 114 1021 l 96 969 l 104 746 l 111 703 l 100 674 l 99 575 l 108 424 z m 460 1072 l 482 1097 l 479 1124 l 435 1154 l 393 1190 l 360 1228 l 314 1232 l 281 1200 l 176 1101 l 194 1058 l 268 1058 l 285 1099 l 283 1099 l 310 1133 l 318 1140 l 321 1139 l 365 1097 l 376 1092 l 375 1086 l 408 1047 z "},"ü":{"ha":646,"x_min":0,"x_max":0,"o":"m 110 242 l 124 226 l 104 201 l 100 136 l 101 67 l 185 -6 l 272 -7 l 317 17 l 422 71 l 425 61 l 436 -14 l 571 8 l 551 117 l 543 279 l 546 588 l 539 628 l 525 642 l 539 665 l 540 685 l 543 761 l 553 851 l 539 867 l 554 875 l 558 950 l 550 1018 l 486 1019 l 417 1018 l 414 919 l 419 744 l 419 629 l 428 460 l 424 283 l 418 193 l 304 144 l 258 128 l 247 129 l 232 142 l 231 163 l 221 325 l 231 489 l 228 593 l 226 644 l 225 692 l 235 744 l 221 775 l 219 800 l 233 850 l 238 894 l 239 1018 l 114 1021 l 96 969 l 104 746 l 111 703 l 100 674 l 99 575 l 108 424 z m 306 1158 l 257 1204 l 231 1206 l 172 1144 l 171 1119 l 200 1096 l 225 1078 l 233 1065 l 251 1060 l 279 1092 l 321 1131 z m 346 1115 l 390 1067 l 422 1064 l 482 1119 l 485 1147 l 454 1176 l 432 1200 l 407 1207 l 375 1169 l 375 1172 l 335 1135 z "},"ý":{"ha":556,"x_min":0,"x_max":0,"o":"m 310 -4 l 350 24 l 340 114 l 342 174 l 336 197 l 342 297 l 325 311 l 340 353 l 339 393 l 343 408 l 342 449 l 382 561 l 436 719 l 457 781 l 478 824 l 488 843 l 472 856 l 504 869 l 543 969 l 500 1000 l 471 1010 l 408 1028 l 396 960 l 379 919 l 356 825 l 335 779 l 314 697 l 289 610 l 283 603 l 268 653 l 253 675 l 257 686 l 246 736 l 219 790 l 190 894 l 179 928 l 179 951 l 151 1026 l 106 1015 l 29 992 l 26 947 l 58 890 l 85 879 l 76 835 l 100 771 l 119 724 l 119 725 l 174 588 l 203 503 l 217 436 l 214 376 l 219 197 l 233 179 l 217 146 l 207 78 l 204 -1 z m 381 1122 l 438 1179 l 414 1200 l 325 1229 l 304 1201 l 254 1131 l 215 1079 l 240 1063 l 306 1046 l 331 1072 l 331 1097 z "},"þ":{"ha":504,"x_min":0,"x_max":0,"o":"m 371 375 l 422 415 l 467 458 l 500 482 l 501 572 l 399 651 l 360 681 l 322 694 l 321 713 l 246 781 l 201 822 l 201 885 l 208 919 l 213 1014 l 133 1021 l 69 1015 l 75 956 l 93 935 l 76 918 l 82 693 l 88 490 l 107 454 l 86 451 l 85 281 l 88 147 l 64 0 l 147 -7 l 210 -4 l 204 92 l 203 133 l 199 171 l 207 213 l 276 282 z m 203 371 l 199 565 l 203 660 l 313 569 l 338 540 l 365 518 l 318 472 l 276 431 l 276 414 l 260 414 l 221 376 l 203 365 z "},"ÿ":{"ha":556,"x_min":0,"x_max":0,"o":"m 310 -4 l 350 24 l 340 114 l 342 174 l 336 197 l 342 297 l 325 311 l 340 353 l 339 393 l 343 408 l 342 449 l 382 561 l 436 719 l 457 781 l 478 824 l 488 843 l 472 856 l 504 869 l 543 969 l 500 1000 l 471 1010 l 408 1028 l 396 960 l 379 919 l 356 825 l 335 779 l 314 697 l 289 610 l 283 603 l 268 653 l 253 675 l 257 686 l 246 736 l 219 790 l 190 894 l 179 928 l 179 951 l 151 1026 l 106 1015 l 29 992 l 26 947 l 58 890 l 85 879 l 76 835 l 100 771 l 119 724 l 119 725 l 174 588 l 203 503 l 217 436 l 214 376 l 219 197 l 233 179 l 217 146 l 207 78 l 204 -1 z m 261 1158 l 213 1204 l 186 1206 l 128 1144 l 126 1119 l 156 1096 l 181 1078 l 189 1065 l 207 1060 l 235 1092 l 276 1131 z m 301 1115 l 346 1067 l 378 1064 l 438 1119 l 440 1147 l 410 1176 l 388 1200 l 363 1207 l 331 1169 l 331 1172 l 290 1135 z "},"ı":{"ha":336,"x_min":0,"x_max":0,"o":"m 115 604 l 111 528 l 107 485 l 107 225 l 107 175 l 124 151 l 107 124 l 88 0 l 151 -1 l 181 -3 l 242 17 l 243 68 l 240 94 l 238 115 l 238 500 l 222 510 l 235 539 l 232 574 l 226 628 l 231 699 l 235 881 l 242 915 l 249 1017 l 158 1022 l 93 1018 l 100 949 l 113 942 l 101 917 l 106 639 z "},"Ł":{"ha":461,"x_min":0,"x_max":0,"o":"m 338 125 l 232 122 l 232 163 l 226 274 l 228 275 l 224 368 l 221 450 l 204 468 l 210 476 l 281 507 l 379 539 l 397 565 l 364 653 l 333 657 l 296 633 l 221 599 l 228 701 l 232 860 l 238 907 l 239 997 l 204 1029 l 158 1018 l 86 1018 l 96 867 l 118 860 l 100 836 l 101 539 l 67 525 l 33 504 l 11 500 l -14 486 l 8 421 l 26 386 l 50 393 l 90 415 l 103 422 l 103 393 l 93 154 l 106 119 l 88 94 l 90 0 l 153 -3 l 214 8 l 226 0 l 286 0 l 306 1 l 411 -6 l 432 21 l 438 108 l 433 138 l 368 135 z "},"ł":{"ha":461,"x_min":0,"x_max":0,"o":"m 338 125 l 232 122 l 232 163 l 226 274 l 228 275 l 224 368 l 221 450 l 204 468 l 210 476 l 281 507 l 379 539 l 397 565 l 364 653 l 333 657 l 296 633 l 221 599 l 228 701 l 232 860 l 238 907 l 239 997 l 204 1029 l 158 1018 l 86 1018 l 96 867 l 118 860 l 100 836 l 101 539 l 67 525 l 33 504 l 11 500 l -14 486 l 8 421 l 26 386 l 50 393 l 90 415 l 103 422 l 103 393 l 93 154 l 106 119 l 88 94 l 90 0 l 153 -3 l 214 8 l 226 0 l 286 0 l 306 1 l 411 -6 l 432 21 l 438 108 l 433 138 l 368 135 z "},"ˇ":{"ha":365,"x_min":0,"x_max":0,"o":"m 50 1207 l 28 1181 l 31 1153 l 76 1122 l 75 1122 l 114 1086 l 147 1050 l 200 1042 l 233 1078 l 338 1178 l 313 1219 l 240 1219 l 229 1179 l 203 1144 l 192 1138 l 188 1140 l 139 1188 l 108 1232 z "},"˙":{"ha":221,"x_min":0,"x_max":0,"o":"m 193 1154 l 161 1185 l 158 1185 l 151 1182 l 129 1221 l 99 1222 l 67 1189 l 29 1154 l 28 1126 l 75 1089 l 76 1089 l 76 1088 l 94 1061 l 119 1060 l 193 1128 z "},"˚":{"ha":329,"x_min":0,"x_max":0,"o":"m 26 1144 l 28 1121 l 31 1101 l 97 1039 l 97 1040 l 119 1010 l 146 982 l 185 988 l 239 1053 l 301 1103 l 300 1142 l 247 1193 l 236 1201 l 235 1204 l 185 1261 l 140 1261 l 118 1228 l 103 1210 l 93 1196 l 93 1197 z m 135 1154 l 149 1167 l 163 1176 l 194 1146 l 219 1115 l 171 1064 l 140 1090 l 115 1129 l 131 1144 z "},"ᚠ":{"ha":668,"x_min":0,"x_max":0,"o":"m 231 992 l 219 1019 l 161 1018 l 93 1011 l 89 958 l 97 892 l 93 574 l 100 493 l 93 425 l 93 378 l 90 264 l 90 165 l 86 136 l 86 138 l 78 6 l 124 -7 l 224 8 l 217 129 l 217 193 l 214 213 l 210 290 l 210 424 l 254 438 l 407 513 l 547 663 l 547 671 l 574 701 l 626 840 l 639 936 l 654 988 l 557 1013 l 521 1000 l 517 888 l 514 860 l 492 778 l 454 725 l 436 700 l 367 626 l 294 582 l 217 550 l 207 546 l 207 603 l 236 613 l 304 647 l 379 722 l 369 739 l 389 746 l 438 867 l 450 947 l 464 1004 l 371 1022 l 335 1008 l 335 915 l 333 886 l 310 817 l 289 782 l 290 783 l 272 764 l 274 765 l 250 747 l 207 729 l 214 768 l 214 804 l 215 868 l 215 876 l 222 913 z "},"ᚡ":{"ha":696,"x_min":0,"x_max":0,"o":"m 222 992 l 217 1019 l 161 1018 l 93 1011 l 89 958 l 97 892 l 93 574 l 100 493 l 93 425 l 93 378 l 90 264 l 90 165 l 86 136 l 86 138 l 78 6 l 124 -7 l 224 8 l 217 129 l 217 193 l 214 213 l 210 290 l 210 417 l 254 432 l 407 503 l 575 654 l 575 663 l 601 693 l 654 840 l 667 936 l 678 988 l 585 1013 l 550 1000 l 550 888 l 551 860 l 528 778 l 488 725 l 465 692 l 396 626 l 294 567 l 217 544 l 207 540 l 207 601 l 236 611 l 318 635 l 425 722 l 422 731 l 439 746 l 492 867 l 500 947 l 506 1004 l 422 1022 l 385 1008 l 388 911 l 386 886 l 358 811 l 332 776 l 333 778 l 264 721 l 207 714 l 214 763 l 214 799 l 213 868 l 213 876 l 218 911 z m 378 925 l 346 958 l 344 958 l 321 990 l 289 992 l 272 974 l 263 961 l 222 926 l 219 899 l 258 861 l 283 832 l 310 831 l 343 865 l 378 901 z "},"ᚢ":{"ha":596,"x_min":0,"x_max":0,"o":"m 211 732 l 208 803 l 275 689 l 296 675 l 293 654 l 321 592 l 343 536 l 386 433 l 403 251 l 404 190 l 404 8 l 439 -3 l 553 13 l 538 90 l 540 107 l 526 292 l 476 553 l 442 589 l 443 608 l 336 833 l 268 936 l 207 1022 l 164 1021 l 83 1015 l 86 950 l 93 888 l 90 561 l 97 468 l 90 425 l 90 376 l 88 263 l 88 164 l 83 136 l 83 138 l 74 6 l 119 -7 l 219 3 l 214 129 l 214 192 l 197 210 l 210 232 l 208 260 l 200 463 l 200 611 z "},"ᚣ":{"ha":599,"x_min":0,"x_max":0,"o":"m 211 732 l 208 803 l 275 689 l 296 675 l 293 654 l 321 592 l 343 536 l 386 433 l 406 251 l 407 190 l 407 8 l 442 -3 l 553 13 l 538 90 l 540 107 l 526 292 l 476 553 l 442 589 l 443 608 l 336 833 l 268 936 l 207 1022 l 163 1021 l 82 1015 l 85 950 l 90 888 l 90 561 l 97 468 l 90 425 l 90 376 l 88 263 l 88 164 l 83 136 l 83 138 l 74 6 l 119 -7 l 217 3 l 211 129 l 211 192 l 194 210 l 207 232 l 206 260 l 200 463 l 200 611 z m 258 78 l 253 7 l 269 -3 l 339 -4 l 363 10 l 354 85 l 357 175 l 361 340 l 357 364 l 258 365 l 253 329 l 258 215 z "},"ᚤ":{"ha":596,"x_min":0,"x_max":0,"o":"m 211 732 l 208 803 l 275 689 l 296 675 l 293 654 l 321 592 l 343 536 l 386 433 l 406 251 l 407 190 l 407 8 l 442 -3 l 553 13 l 538 90 l 540 107 l 526 292 l 476 553 l 442 589 l 443 608 l 336 833 l 268 936 l 207 1022 l 163 1021 l 82 1015 l 85 950 l 90 888 l 90 561 l 97 468 l 90 425 l 90 376 l 88 263 l 88 164 l 83 136 l 83 138 l 74 6 l 119 -7 l 217 3 l 211 129 l 211 192 l 194 210 l 207 232 l 206 260 l 200 463 l 200 611 z m 385 311 l 360 336 l 344 336 l 332 360 l 313 389 l 293 390 l 258 350 l 215 310 l 213 288 l 261 243 l 272 239 l 275 224 l 289 210 l 304 207 l 343 253 l 385 292 z "},"ᚥ":{"ha":626,"x_min":0,"x_max":0,"o":"m 211 732 l 208 803 l 303 689 l 324 675 l 321 654 l 353 592 l 375 536 l 417 433 l 456 251 l 458 190 l 460 8 l 494 -3 l 603 13 l 588 90 l 590 107 l 576 292 l 508 553 l 474 589 l 475 608 l 364 833 l 268 936 l 207 1022 l 163 1021 l 82 1015 l 85 950 l 90 888 l 90 561 l 97 468 l 90 425 l 90 376 l 88 263 l 88 164 l 83 136 l 83 138 l 74 6 l 119 -7 l 217 3 l 211 129 l 211 192 l 194 210 l 207 232 l 206 260 l 200 463 l 200 478 b 239 426 213 460 226 442 b 268 360 249 404 260 383 l 283 233 l 281 11 l 328 -4 l 407 1 l 400 204 l 385 264 l 374 378 l 293 544 l 201 664 z "},"ᚦ":{"ha":499,"x_min":0,"x_max":0,"o":"m 364 375 l 418 415 l 465 460 l 463 458 l 496 482 l 497 572 l 399 651 l 360 681 l 322 694 l 321 713 l 246 781 l 201 822 l 201 885 l 208 919 l 213 1014 l 133 1021 l 69 1015 l 75 956 l 93 935 l 76 918 l 82 693 l 88 490 l 107 454 l 86 451 l 85 281 l 88 147 l 64 0 l 147 -7 l 210 -4 l 204 92 l 203 133 l 199 171 l 207 213 l 276 282 z m 203 368 l 199 565 l 203 660 l 313 569 l 338 540 l 365 518 l 318 472 l 319 474 l 221 374 l 203 363 z "},"ᚧ":{"ha":518,"x_min":0,"x_max":0,"o":"m 378 375 l 432 415 l 479 460 l 476 458 l 510 482 l 511 572 l 413 651 l 374 681 l 336 694 l 335 713 l 246 781 l 201 822 l 201 885 l 208 919 l 213 1014 l 133 1021 l 69 1015 l 78 956 l 85 693 l 90 490 l 110 454 l 89 451 l 88 281 l 88 147 l 64 0 l 147 -7 l 210 -4 l 204 92 l 203 133 l 199 171 l 207 213 l 276 282 z m 203 368 l 199 565 l 203 660 l 326 569 l 351 540 l 379 518 l 332 472 l 333 474 l 221 374 l 203 363 z m 324 524 l 306 540 l 294 540 l 286 558 l 272 578 l 260 579 l 235 551 l 204 522 l 203 507 l 236 475 l 244 472 l 246 461 l 256 453 l 267 450 l 294 482 l 324 510 z "},"ᚨ":{"ha":508,"x_min":0,"x_max":0,"o":"m 96 536 l 94 419 l 94 261 l 100 232 l 89 135 l 89 0 l 189 -6 l 232 -3 l 232 67 l 215 83 l 228 97 l 225 178 l 217 250 l 219 435 l 218 549 l 218 583 l 231 578 l 322 518 l 407 475 l 438 528 l 467 590 l 386 632 l 357 642 l 288 672 l 226 715 l 226 724 l 221 757 l 224 868 l 293 836 l 322 819 l 375 779 l 440 742 l 454 788 l 469 817 l 474 828 l 486 872 l 421 900 l 399 889 l 385 919 l 357 938 l 282 968 l 267 988 l 244 996 l 172 1038 l 138 1024 l 83 1010 l 89 911 l 107 871 l 96 831 l 96 796 l 100 636 l 100 596 l 113 581 z "},"ᚩ":{"ha":507,"x_min":0,"x_max":0,"o":"m 261 800 l 294 764 l 382 767 l 449 869 l 513 958 l 467 992 l 399 1019 l 360 939 l 325 888 l 301 914 l 279 938 l 260 936 l 253 965 l 221 1006 l 190 1038 l 151 1022 l 88 1011 l 92 925 b 104 882 94 913 100 896 l 97 839 l 94 804 l 97 646 l 97 600 l 110 589 l 93 547 l 92 456 l 92 260 l 96 231 l 86 133 l 85 83 l 85 0 l 189 -6 l 231 -3 l 229 68 l 215 83 l 228 96 l 225 179 l 218 254 l 215 443 l 217 558 l 218 576 l 236 557 l 292 499 l 375 494 l 442 594 l 510 681 l 463 715 l 401 746 l 360 669 l 328 625 l 307 642 l 239 710 l 225 724 l 222 758 l 222 844 z "},"ᚪ":{"ha":515,"x_min":0,"x_max":0,"o":"m 93 542 l 92 451 l 92 257 l 96 228 l 88 132 l 86 82 l 86 0 l 189 -6 l 231 -3 l 229 68 l 211 82 l 231 94 l 224 176 l 217 251 l 214 439 l 215 557 l 218 594 l 233 589 l 317 535 l 401 485 l 429 535 l 458 596 l 388 638 l 356 651 l 338 639 l 329 664 l 283 688 l 222 725 l 222 732 l 219 761 l 221 864 l 263 826 l 294 788 l 382 783 l 447 878 l 513 967 l 465 1000 l 400 1026 l 357 949 l 328 911 l 310 925 l 285 947 l 197 1033 l 161 1019 l 88 1010 l 92 917 l 101 874 l 96 832 l 93 797 l 96 639 l 96 594 l 110 583 z "},"ᚫ":{"ha":499,"x_min":0,"x_max":0,"o":"m 90 543 l 89 450 l 89 257 l 92 228 l 85 132 l 82 82 l 82 0 l 183 -6 l 225 -3 l 225 68 l 211 82 l 225 94 l 218 175 l 213 247 l 211 465 l 213 561 l 208 593 l 226 583 l 224 585 l 314 526 l 393 478 l 425 526 l 458 589 l 379 633 l 343 631 l 333 653 l 276 681 l 217 719 l 217 729 l 213 761 l 214 874 l 285 835 l 311 815 l 375 768 l 413 743 l 438 779 l 461 804 l 476 860 l 415 892 l 372 908 l 350 924 l 274 967 l 264 979 l 243 994 l 175 1042 l 132 1022 l 79 1011 l 85 914 l 99 874 l 92 835 l 90 799 l 92 643 l 92 599 l 106 586 z "},"ᚬ":{"ha":481,"x_min":0,"x_max":0,"o":"m 179 479 l 122 506 l 85 533 l 32 550 l 11 507 l 4 494 l -21 453 l 13 421 l 49 408 l 82 401 l 179 356 l 179 118 l 161 0 l 221 -1 l 251 -3 l 308 13 l 311 64 l 307 88 l 304 111 l 304 296 l 382 251 l 440 253 l 478 360 l 304 425 l 304 500 l 303 508 l 301 532 l 300 551 l 310 549 l 324 538 l 397 494 l 449 481 l 501 579 l 440 611 l 401 625 l 360 642 l 294 669 l 297 707 l 301 883 l 307 913 l 313 1010 l 225 1026 l 165 1013 l 172 950 l 175 733 l 121 760 l 61 799 l 21 744 l 15 729 l -6 685 l 38 663 l 64 650 l 106 628 l 188 600 l 182 529 z "},"ᚭ":{"ha":433,"x_min":0,"x_max":0,"o":"m 113 465 l 94 454 l 94 356 l 94 118 l 76 0 l 136 -1 l 167 -3 l 224 13 l 226 92 l 222 115 l 219 139 l 218 363 l 314 296 l 361 263 l 411 371 l 219 490 l 217 589 l 215 608 l 225 606 l 239 594 l 338 521 l 390 492 l 443 596 l 382 629 l 342 649 l 275 690 l 210 728 l 213 756 l 217 883 l 222 913 l 228 1010 l 140 1026 l 81 1013 l 88 950 l 90 733 l 103 600 l 97 529 z "},"ᚮ":{"ha":436,"x_min":0,"x_max":0,"o":"m 333 529 l 328 600 l 340 733 l 343 950 l 350 1011 l 290 1025 l 206 1013 l 208 913 l 214 883 l 218 756 l 221 728 l 156 690 l 89 649 l 49 629 l -12 596 l 40 492 l 93 521 l 192 594 l 206 606 l 215 608 l 214 589 l 211 490 l 19 371 l 69 263 l 117 296 l 213 363 l 211 139 l 204 92 l 204 10 l 261 -6 l 294 -1 l 354 0 l 336 118 l 336 356 l 336 454 l 318 465 z "},"ᚯ":{"ha":493,"x_min":0,"x_max":0,"o":"m 306 529 l 300 600 l 382 628 l 424 650 l 450 663 l 493 685 l 472 729 l 467 744 l 426 799 l 367 760 l 313 733 l 315 950 l 322 1013 l 263 1026 l 175 1010 l 181 913 l 186 883 l 190 707 l 193 669 l 128 642 l 86 625 l 47 611 l -14 579 l 39 481 l 90 494 l 164 538 l 178 549 l 188 551 l 186 532 l 185 508 l 183 500 l 183 425 l 10 360 l 47 253 l 106 251 l 183 296 l 183 111 l 181 88 l 176 64 l 179 13 l 236 -3 l 267 -1 l 326 0 l 308 118 l 308 356 l 406 401 l 439 408 l 475 421 l 508 453 l 483 494 l 476 507 l 456 550 l 403 533 l 365 506 l 308 479 z "},"ᚰ":{"ha":494,"x_min":0,"x_max":0,"o":"m 306 529 l 300 600 l 382 628 l 424 650 l 450 663 l 493 685 l 472 729 l 467 744 l 426 799 l 367 760 l 313 733 l 315 950 l 322 1013 l 263 1026 l 175 1010 l 181 913 l 186 883 l 190 707 l 193 669 l 128 639 l 86 622 l 47 608 l -14 576 l 39 478 l 90 492 l 164 538 l 178 549 l 188 551 l 186 532 l 185 508 l 183 500 l 183 425 l 10 353 l 47 246 l 106 244 l 183 296 l 183 111 l 181 88 l 176 64 l 179 13 l 236 -3 l 267 -1 l 326 0 l 308 118 l 308 356 l 308 479 z "},"ᚱ":{"ha":568,"x_min":0,"x_max":0,"o":"m 231 428 l 286 315 l 299 283 l 350 186 l 367 178 l 365 154 l 414 43 l 447 -11 l 560 51 l 561 92 l 515 140 l 490 193 l 490 192 l 471 232 l 463 236 l 463 254 l 407 349 b 378 382 397 363 389 369 l 378 406 b 343 465 369 422 353 446 l 382 518 l 406 547 l 450 600 l 514 678 l 524 761 l 457 822 b 432 817 456 822 433 815 l 424 851 l 203 1043 l 93 999 l 99 879 l 106 614 l 94 586 l 97 514 l 103 351 l 103 297 l 115 279 l 94 225 l 86 4 l 178 -4 l 233 18 l 232 133 l 228 146 l 224 285 l 222 436 z m 225 558 l 219 682 l 217 697 l 214 706 l 208 731 l 219 757 l 219 771 l 222 878 l 350 751 l 360 744 l 388 710 l 372 690 b 301 599 354 665 321 622 l 232 513 l 222 507 z "},"ᚲ":{"ha":360,"x_min":0,"x_max":0,"o":"m 85 603 l 88 582 l 63 583 l 0 525 l 0 449 l 26 435 l 106 361 l 111 361 l 144 318 l 188 297 l 188 290 l 196 265 l 251 207 l 311 249 l 344 313 l 289 353 l 218 414 l 207 422 l 139 492 l 201 551 l 243 594 l 274 615 l 344 679 l 319 728 l 250 769 l 188 703 l 122 638 z "},"ᚳ":{"ha":432,"x_min":0,"x_max":0,"o":"m 92 310 l 85 128 l 85 -1 l 183 -3 l 224 0 l 224 64 l 218 81 l 222 97 l 221 149 l 301 56 l 367 -14 l 415 33 l 454 86 l 388 135 l 372 124 l 360 160 l 283 235 l 285 235 l 219 304 l 215 515 b 217 888 215 607 217 793 l 222 919 l 228 1021 l 142 1022 l 85 1017 l 89 954 l 93 754 l 94 685 l 111 649 l 92 635 l 92 599 l 94 410 l 94 369 l 110 354 z "},"ᚴ":{"ha":579,"x_min":0,"x_max":0,"o":"m 225 1010 l 201 1024 l 157 1019 l 85 1021 l 81 963 l 89 896 l 88 597 l 89 503 l 106 496 l 86 447 l 88 379 l 88 165 l 83 138 l 92 128 l 72 6 l 129 -4 l 224 4 l 215 129 l 215 193 l 213 214 l 207 292 l 207 472 l 225 476 l 363 546 l 476 692 b 464 703 476 693 465 699 l 496 721 l 542 854 l 551 953 l 556 1018 l 463 1022 l 421 1014 l 421 965 l 438 938 l 421 907 b 424 878 421 897 424 886 b 400 799 415 849 407 825 l 374 750 l 354 725 l 304 657 l 207 589 l 207 635 l 213 739 l 213 801 l 214 872 l 199 879 l 218 915 z "},"ᚵ":{"ha":594,"x_min":0,"x_max":0,"o":"m 414 911 l 381 949 l 372 946 l 342 985 l 313 986 l 293 965 l 275 944 l 233 908 l 233 882 l 279 838 l 307 804 l 333 803 l 371 843 l 413 883 z m 225 1010 l 201 1024 l 157 1019 l 85 1021 l 81 963 l 89 896 l 88 597 l 89 503 l 106 496 l 86 447 l 88 379 l 88 165 l 83 138 l 92 128 l 72 6 l 129 -4 l 224 4 l 215 129 l 215 193 l 213 214 l 207 292 l 207 472 l 225 476 l 363 546 l 489 692 l 476 703 l 508 721 l 553 854 l 563 953 l 567 1018 l 474 1022 l 432 1014 l 432 965 l 449 938 l 432 907 l 435 878 l 411 799 l 385 750 l 365 725 l 304 657 l 207 589 l 207 635 l 213 739 l 213 801 l 214 872 l 192 879 l 218 914 z "},"ᚶ":{"ha":608,"x_min":0,"x_max":0,"o":"m 225 1010 l 201 1024 l 157 1019 l 85 1021 l 81 963 l 89 896 l 88 646 l 63 628 l 19 564 l 14 504 l 43 446 l 86 419 l 88 379 l 88 165 l 83 138 l 92 128 l 72 6 l 129 -4 l 224 4 l 215 129 l 215 193 l 213 214 l 207 292 l 207 414 l 254 446 l 276 494 l 363 546 l 476 692 l 464 703 l 496 721 l 542 854 l 551 953 l 556 1018 l 463 1022 l 421 1014 l 421 965 l 438 938 l 421 907 l 424 878 l 400 799 l 374 750 l 354 725 l 304 657 l 243 613 l 225 639 l 207 649 l 213 739 l 213 801 l 214 872 l 199 879 l 218 915 z "},"ᚷ":{"ha":576,"x_min":0,"x_max":0,"o":"m 56 103 l 26 26 l 111 -1 l 161 -10 l 183 36 l 224 175 l 224 174 l 250 258 l 249 257 l 288 394 l 364 165 l 363 153 l 396 64 l 396 43 l 428 -17 l 550 21 l 540 88 l 532 97 l 504 99 l 522 113 l 475 229 l 461 247 l 424 364 l 386 469 l 364 540 l 381 585 l 381 582 l 442 721 l 442 719 l 492 839 l 481 863 l 503 878 l 558 992 l 468 1032 l 454 1032 l 414 1029 l 389 919 l 397 913 l 385 906 l 349 810 l 335 764 l 300 675 l 296 658 l 275 718 l 258 761 l 253 775 l 242 832 l 211 901 l 213 896 l 172 1035 l 97 1022 l 35 989 l 101 829 l 132 828 l 111 804 l 172 668 l 172 669 l 188 628 l 194 617 l 204 594 l 225 551 l 178 424 l 181 413 l 146 333 l 121 271 l 97 210 l 101 178 l 82 171 z "},"ᚸ":{"ha":569,"x_min":0,"x_max":0,"o":"m 56 103 l 26 26 l 111 -1 l 161 -10 l 183 36 l 224 175 l 224 174 l 250 258 l 249 257 l 288 388 l 364 165 l 363 153 l 396 64 l 396 43 l 428 -17 l 550 21 l 540 88 l 532 97 l 504 99 l 522 113 l 475 229 l 461 247 l 424 363 l 429 368 l 456 406 l 463 407 l 538 483 l 538 482 l 554 497 l 554 560 l 503 614 l 481 628 l 482 636 l 449 668 l 428 690 l 442 721 l 442 719 l 492 839 l 481 863 l 503 878 l 558 992 l 468 1032 l 454 1032 l 414 1029 l 389 919 l 397 913 l 385 906 l 350 810 l 336 764 l 300 678 l 296 674 l 276 721 l 258 761 l 253 775 l 242 832 l 211 901 l 213 896 l 172 1035 l 97 1022 l 35 989 l 101 829 l 132 828 l 111 804 l 156 703 l 125 668 l 92 636 l 92 628 l 72 614 l 19 560 l 19 497 l 35 482 l 35 483 l 110 407 l 117 407 l 144 369 l 156 357 l 146 333 l 121 271 l 97 210 l 101 178 l 82 171 z m 139 531 l 201 590 b 203 593 201 590 203 592 l 229 547 l 197 471 z m 436 531 l 383 478 l 364 540 l 379 582 b 436 531 396 565 422 544 z "},"ᚹ":{"ha":519,"x_min":0,"x_max":0,"o":"m 415 535 l 460 578 l 503 631 l 506 726 l 361 879 l 332 889 l 326 913 l 201 1042 l 157 1025 l 90 996 l 93 903 l 100 846 l 100 618 l 97 611 l 96 264 l 113 246 l 100 203 l 85 4 l 165 -4 l 235 0 l 226 172 l 204 192 l 226 225 l 224 321 l 236 335 l 329 440 z m 225 629 l 210 657 l 224 700 l 222 767 l 224 865 l 304 775 l 317 767 l 326 747 l 386 681 l 364 649 l 350 614 l 335 618 l 265 536 l 225 493 z "},"ᚺ":{"ha":651,"x_min":0,"x_max":0,"o":"m 546 422 l 556 579 l 550 715 l 560 801 l 564 893 l 560 921 l 569 1007 l 536 1029 l 417 1014 l 422 914 l 429 829 l 446 803 l 431 782 l 436 699 l 424 564 l 421 565 l 363 586 l 340 578 l 328 593 l 271 618 l 244 631 l 229 638 l 224 675 l 228 801 l 231 926 l 238 982 l 217 1022 l 165 1021 l 86 1018 l 90 949 l 99 869 l 99 871 l 100 818 l 114 800 l 101 754 l 108 629 l 104 567 l 101 539 l 99 290 l 96 113 l 86 78 l 83 1 l 135 -1 l 215 -1 l 233 47 l 224 203 l 210 215 l 231 240 l 228 451 l 232 471 l 231 496 l 311 478 l 313 478 l 421 432 l 428 190 l 429 186 l 421 113 l 417 50 l 418 -1 l 475 -4 l 563 4 l 558 92 l 536 124 l 556 144 l 558 232 z "},"ᚻ":{"ha":663,"x_min":0,"x_max":0,"o":"m 546 422 l 556 579 l 550 715 l 560 801 l 564 893 l 560 921 l 569 1007 l 536 1029 l 417 1014 l 422 914 l 429 829 l 446 803 l 431 782 l 436 699 l 433 638 l 335 675 l 256 721 l 225 731 l 228 801 l 231 926 l 238 982 l 217 1022 l 165 1021 l 86 1018 l 90 949 l 99 869 l 99 871 l 100 818 l 114 800 l 101 754 l 108 629 l 104 567 l 101 539 l 99 290 l 96 113 l 86 78 l 83 1 l 135 -1 l 215 -1 l 233 47 l 224 203 l 210 215 l 231 240 l 228 318 l 232 338 l 231 363 l 311 344 l 313 344 l 421 299 l 428 190 l 429 186 l 421 113 l 417 50 l 418 -1 l 475 -4 l 563 4 l 558 92 l 536 124 l 556 144 l 558 232 z m 321 574 l 428 521 l 424 428 l 421 429 l 363 450 l 340 442 l 328 457 l 271 481 l 244 493 l 229 503 l 225 606 z "},"ᚼ":{"ha":485,"x_min":0,"x_max":0,"o":"m 7 658 l -11 607 l 135 533 l 122 531 l 82 506 l 39 492 l -17 456 l 40 354 l 92 375 l 181 443 l 188 447 l 183 315 l 183 113 l 194 86 l 175 65 l 176 7 l 235 -3 l 267 -1 l 321 0 l 307 115 l 307 290 l 300 440 l 361 396 l 436 350 l 481 410 l 501 460 b 396 515 474 472 424 501 l 354 538 l 385 556 l 419 569 l 451 582 l 497 607 l 474 651 l 475 651 l 469 668 l 425 719 l 369 681 l 304 638 b 304 740 304 692 304 688 l 314 957 l 322 1018 l 268 1029 l 178 1026 l 181 925 l 200 911 l 188 875 l 190 625 l 183 629 l 54 721 z "},"ᚽ":{"ha":328,"x_min":0,"x_max":0,"o":"m 289 557 l 247 593 l 229 610 l 224 615 l 222 638 l 222 706 l 225 890 l 232 926 l 238 1019 l 151 1025 l 90 1022 l 96 982 l 119 964 l 97 938 l 106 667 l 107 650 l 107 614 l 94 603 l 35 553 l 35 504 l 107 442 l 107 342 l 119 331 l 107 310 l 106 119 l 94 0 l 147 -1 l 175 -3 l 239 6 l 236 65 l 217 88 l 229 113 l 225 443 l 236 457 l 289 508 z "},"ᚾ":{"ha":440,"x_min":0,"x_max":0,"o":"m 104 674 l 61 708 l 31 710 l 10 681 l -15 639 l -25 603 l 22 576 l 60 564 l 161 499 l 167 497 l 167 483 l 164 360 l 185 357 l 164 332 l 164 118 l 153 0 l 208 -1 l 236 -6 l 294 10 l 297 65 l 290 118 l 288 429 l 333 394 l 335 396 l 386 356 l 419 361 l 465 461 l 411 492 l 397 486 l 390 501 l 344 524 l 286 557 l 283 635 l 285 706 l 288 893 l 279 928 l 294 949 l 297 1017 l 213 1026 l 151 1015 l 160 950 l 161 926 l 165 647 l 167 631 l 106 672 z "},"ᚿ":{"ha":375,"x_min":0,"x_max":0,"o":"m 103 511 l 103 497 l 100 374 l 121 371 l 100 346 l 100 118 l 89 0 l 144 -1 l 172 -6 l 231 10 l 233 65 l 226 118 l 224 443 l 269 408 l 271 410 l 322 369 l 356 375 l 401 475 l 347 506 l 333 500 l 326 515 l 281 538 l 222 571 l 219 649 l 221 719 l 224 893 l 215 928 l 231 949 l 233 1017 l 149 1026 l 88 1015 l 96 950 l 97 926 l 101 661 l 103 644 z "},"ᛀ":{"ha":440,"x_min":0,"x_max":0,"o":"m 104 674 l 61 708 l 31 710 l 10 681 l -15 639 l -25 603 l 22 576 l 60 564 l 78 551 l 72 504 l 119 431 l 165 410 l 164 360 l 185 357 l 164 332 l 164 118 l 153 0 l 208 -1 l 236 -6 l 294 10 l 297 65 l 290 118 l 288 410 l 303 417 l 333 394 l 335 396 l 386 356 l 419 361 l 465 461 l 411 492 l 397 486 l 390 501 l 360 515 l 360 560 l 328 632 l 322 632 l 322 639 l 283 657 l 285 706 l 288 893 l 279 928 l 294 949 l 297 1017 l 213 1026 l 151 1015 l 160 950 l 161 926 l 164 671 l 136 651 l 106 672 z "},"ᛁ":{"ha":339,"x_min":0,"x_max":0,"o":"m 117 604 l 113 528 l 108 485 l 108 225 l 108 175 l 125 151 l 108 124 l 89 0 l 153 -1 l 182 -3 l 243 17 l 244 68 l 242 94 l 239 115 l 239 500 l 224 510 l 236 539 l 233 574 l 228 628 l 232 699 l 236 881 l 243 915 l 250 1017 l 160 1022 l 94 1018 l 101 949 l 114 942 l 103 917 l 107 639 z "},"ᛂ":{"ha":328,"x_min":0,"x_max":0,"o":"m 289 557 l 247 593 l 229 610 l 224 615 l 222 638 l 222 706 l 225 890 l 232 926 l 238 1019 l 151 1025 l 90 1022 l 96 982 l 119 964 l 97 938 l 106 667 l 107 650 l 107 614 l 94 603 l 35 553 l 35 504 l 107 442 l 107 342 l 119 331 l 107 310 l 106 119 l 94 0 l 147 -1 l 175 -3 l 239 6 l 236 65 l 217 88 l 229 113 l 225 443 l 236 457 l 289 508 z "},"ᛃ":{"ha":585,"x_min":0,"x_max":0,"o":"m 501 467 l 511 482 l 510 503 l 557 510 l 589 535 l 589 614 l 514 671 l 493 685 l 483 689 l 440 726 l 379 786 l 376 794 l 317 851 l 289 847 l 221 774 l 238 731 l 281 703 l 300 697 l 357 649 l 379 638 l 443 576 l 381 508 l 301 444 l 286 417 l 226 381 l 286 328 l 338 288 l 378 339 l 406 378 l 454 428 l 454 426 z m 82 488 l 57 468 l 26 438 l -10 421 l -11 365 l -10 339 l 57 290 l 76 261 l 104 261 l 114 254 l 138 232 l 232 146 l 254 113 l 286 111 l 372 206 l 314 243 l 279 257 l 232 303 l 136 388 l 197 446 l 294 519 l 353 561 l 283 628 l 239 665 l 190 607 l 181 590 l 186 567 l 164 565 l 121 525 z "},"ᛄ":{"ha":436,"x_min":0,"x_max":0,"o":"m 351 644 l 271 703 l 275 854 l 250 888 l 281 918 l 285 1015 l 200 1025 l 140 1013 l 149 950 l 151 694 l 89 644 l 57 622 l 64 607 l 32 603 l -22 557 l -22 467 l -7 451 l 71 388 l 86 394 l 108 351 l 158 317 l 157 318 l 158 318 l 158 118 l 143 0 l 196 -1 l 224 -3 l 281 13 l 282 142 l 260 161 l 278 188 l 279 325 l 310 343 l 339 385 l 361 381 l 456 463 l 456 567 l 407 606 l 389 606 l 390 626 z m 156 456 l 82 510 l 157 560 l 157 490 z m 349 514 l 274 461 l 274 490 l 274 563 z "},"ᛅ":{"ha":440,"x_min":0,"x_max":0,"o":"m 335 672 l 274 631 l 275 647 l 279 926 l 281 950 l 289 1015 l 228 1026 l 143 1017 l 146 949 l 161 928 l 153 893 l 156 706 l 157 635 l 154 557 l 96 524 l 50 501 l 43 486 l 29 492 l -25 461 l 21 361 l 54 356 l 106 396 l 107 394 l 153 429 l 150 118 l 143 65 l 146 10 l 204 -6 l 232 -1 l 288 0 l 276 118 l 276 332 l 256 357 l 276 360 l 274 483 l 274 497 l 279 499 l 381 564 l 418 576 l 465 603 l 456 639 l 431 681 l 410 710 l 379 708 l 336 674 z "},"ᛆ":{"ha":403,"x_min":0,"x_max":0,"o":"m 289 644 l 290 661 l 294 926 l 296 950 l 304 1015 l 243 1026 l 158 1017 l 161 949 l 176 928 l 168 893 l 171 719 l 172 649 l 169 571 l 111 538 l 65 515 l 58 500 l 44 506 l -10 475 l 36 375 l 69 369 l 121 410 l 122 408 l 168 443 l 165 118 l 158 65 l 161 10 l 219 -6 l 247 -1 l 303 0 l 292 118 l 292 346 l 271 371 l 292 374 l 289 497 l 289 511 z "},"ᛇ":{"ha":475,"x_min":0,"x_max":0,"o":"m 293 563 l 293 678 l 274 700 l 290 719 l 297 757 b 297 865 297 790 297 829 l 347 833 l 414 767 l 468 833 l 488 879 l 414 925 l 357 958 l 340 979 l 317 985 l 242 1038 l 204 1014 l 160 1001 l 167 908 b 178 867 169 894 174 879 l 171 797 l 172 606 l 185 589 l 178 363 l 174 290 l 179 250 b 176 143 179 215 178 179 l 150 163 l 78 225 l 40 247 l 3 185 l -22 139 l 65 81 l 89 86 l 106 54 l 138 29 b 158 22 143 28 153 24 l 228 -25 l 314 18 l 297 143 l 306 217 l 299 404 l 290 417 l 297 449 z "},"ᛈ":{"ha":488,"x_min":0,"x_max":0,"o":"m 89 553 l 88 440 l 88 251 l 104 224 l 88 200 l 83 94 l 83 63 l 82 11 l 133 1 l 182 -17 l 242 44 l 268 72 l 307 108 l 360 56 l 417 -17 l 497 67 l 490 96 l 424 146 l 390 186 l 353 229 l 272 229 l 213 164 l 211 244 l 215 453 l 214 564 l 217 715 l 193 733 l 213 761 l 215 853 l 243 828 l 285 786 l 368 785 l 399 824 l 429 875 l 476 925 l 503 971 l 410 1033 l 353 956 l 318 906 l 290 931 l 239 981 l 179 1033 l 133 1019 l 81 1006 l 85 914 l 100 871 l 89 804 l 92 649 l 92 604 l 104 593 z "},"ᛉ":{"ha":567,"x_min":0,"x_max":0,"o":"m 238 567 l 219 551 l 219 478 l 219 399 l 242 383 l 219 356 l 219 122 l 206 8 l 257 -1 l 296 -3 l 353 11 l 354 67 l 349 103 l 333 119 l 346 144 l 346 496 l 338 593 l 342 633 l 342 647 l 367 682 l 590 925 l 551 978 l 488 1011 l 408 911 l 422 893 l 388 876 l 342 814 l 342 874 l 346 928 l 353 1015 l 269 1029 l 213 1017 l 217 960 l 217 964 l 222 825 l 188 868 l 129 946 l 113 953 l 97 982 l 68 1007 l -21 918 l 8 886 l 94 799 l 111 794 l 119 765 l 182 696 l 217 656 l 217 604 z "},"ᛊ":{"ha":444,"x_min":0,"x_max":0,"o":"m 129 850 l 129 829 l 93 829 l 31 776 l 31 681 l 51 669 l 143 601 l 161 597 l 268 518 l 204 476 l 174 451 l 119 408 l 124 385 l 92 389 l 35 342 l 35 236 l 60 221 l 129 165 l 165 143 l 197 106 l 251 67 l 332 -19 l 396 22 l 436 89 l 375 133 l 282 204 l 264 192 l 251 218 l 169 289 l 247 353 l 306 403 l 353 439 l 400 469 l 399 593 l 376 597 l 307 631 l 265 660 l 228 689 l 167 736 l 240 792 l 299 844 l 299 843 l 344 865 l 429 928 l 408 981 l 340 1039 l 261 965 l 174 893 z "},"ᛋ":{"ha":617,"x_min":0,"x_max":0,"o":"m 319 606 l 268 561 l 210 515 l 213 743 l 190 760 l 213 781 l 214 950 l 225 1011 l 167 1024 l 74 1019 l 79 929 l 86 760 l 89 476 l 85 343 l 188 333 l 289 438 l 357 493 l 406 532 l 404 464 l 426 436 l 403 399 l 401 136 l 424 111 l 401 74 l 390 13 l 447 1 l 543 4 l 538 107 l 532 143 l 531 279 l 532 356 l 528 572 l 531 704 l 426 721 z "},"ᛌ":{"ha":289,"x_min":0,"x_max":0,"o":"m 207 532 l 207 576 l 207 617 b 206 781 207 669 206 726 l 208 881 l 192 900 l 211 914 l 217 1017 l 163 1028 l 71 1022 l 76 910 l 82 875 l 83 785 l 83 674 l 79 611 l 76 606 l 74 539 l 128 524 z "},"ᛍ":{"ha":294,"x_min":0,"x_max":0,"o":"m 260 553 l 214 594 l 211 594 l 211 619 b 210 781 211 672 210 726 l 213 881 l 196 900 l 215 914 l 221 1017 l 167 1028 l 75 1022 l 81 910 l 86 875 l 88 785 l 88 679 l 99 663 l 88 650 l 83 614 l 81 601 l 24 550 l 24 510 l 86 449 l 86 444 l 122 404 l 164 401 l 208 458 l 261 508 z "},"ᛎ":{"ha":481,"x_min":0,"x_max":0,"o":"m 457 660 l 476 676 l 499 701 l 468 743 l 411 796 l 368 742 l 368 729 l 349 717 l 328 688 l 301 660 l 301 681 l 299 757 l 299 826 l 304 906 l 307 1014 l 260 1019 l 175 1018 l 185 869 l 203 835 l 182 818 l 181 788 l 183 674 l 183 661 l 143 703 l 135 708 l 75 789 l 40 775 l 0 729 l -17 693 l 100 590 l 190 489 l 288 485 l 403 614 z "},"ᛏ":{"ha":519,"x_min":0,"x_max":0,"o":"m 418 900 l 303 1028 l 204 1024 l 115 919 l -4 814 l 7 772 l 47 728 l 82 717 l 151 803 l 158 808 l 199 850 l 199 838 l 193 726 l 197 696 l 218 681 l 200 644 l 190 547 l 193 426 l 190 239 l 207 238 l 192 217 l 182 110 l 179 6 l 240 -4 l 288 -6 l 329 14 l 322 90 l 300 126 l 318 147 l 317 429 l 319 501 l 319 608 l 314 688 l 314 757 l 317 831 l 317 854 l 343 824 l 364 794 l 385 793 l 383 772 l 429 715 l 486 765 l 517 807 l 492 832 l 472 849 z "},"ᛐ":{"ha":429,"x_min":0,"x_max":0,"o":"m 325 985 l 322 1024 l 206 1021 l 115 919 l -4 818 l 7 776 l 47 731 l 82 717 l 150 803 l 158 808 l 199 847 l 199 835 l 193 726 l 197 696 l 218 681 l 200 644 l 190 547 l 193 426 l 190 239 l 207 238 l 192 217 l 182 110 l 179 6 l 240 -4 l 288 -6 l 329 14 l 322 90 l 300 126 l 318 147 l 317 429 l 319 501 l 319 608 l 314 688 l 314 757 l 317 831 l 317 851 z "},"ᛑ":{"ha":429,"x_min":0,"x_max":0,"o":"m 388 519 l 347 557 l 322 578 l 319 579 l 319 608 l 314 688 l 314 757 l 317 831 l 317 851 l 325 985 l 322 1024 l 206 1021 l 115 919 l -4 818 l 7 776 l 47 731 l 82 717 l 150 803 l 158 808 l 199 847 l 199 835 l 193 726 l 197 696 l 218 681 l 200 644 l 194 586 l 188 579 l 115 517 l 113 483 l 192 411 l 193 410 l 190 239 l 207 238 l 192 217 l 182 110 l 179 6 l 240 -4 l 288 -6 l 329 14 l 322 90 l 300 126 l 318 147 l 317 422 l 321 428 l 388 489 z "},"ᛒ":{"ha":544,"x_min":0,"x_max":0,"o":"m 319 63 l 368 101 l 408 151 l 465 192 l 519 247 l 521 311 l 519 340 l 374 479 l 358 493 l 338 511 l 328 519 l 397 600 l 479 689 l 489 771 l 483 799 l 389 874 l 206 1036 l 89 1003 l 92 924 l 96 903 l 110 889 l 94 847 l 96 688 l 101 539 l 93 475 l 93 267 l 99 201 l 88 13 l 164 -1 l 222 -19 z m 233 468 l 296 413 l 329 378 l 349 360 l 399 297 l 346 239 l 329 228 l 292 196 l 221 121 l 222 206 l 208 219 l 221 231 l 221 476 z m 213 681 l 217 753 l 215 875 l 310 792 l 321 790 l 328 774 l 371 735 l 369 735 l 321 682 l 315 647 l 294 644 l 226 571 l 215 563 z "},"ᛓ":{"ha":507,"x_min":0,"x_max":0,"o":"m 111 425 l 97 411 l 96 372 l 94 217 l 99 186 l 101 151 l 89 110 l 83 7 l 142 -7 l 233 8 l 232 110 l 218 222 l 215 290 l 217 408 l 264 447 l 281 469 l 389 558 l 417 583 l 504 657 l 425 753 l 388 714 l 329 654 l 324 633 l 283 613 l 214 547 l 210 649 l 213 665 l 213 672 l 285 736 l 283 735 l 383 829 l 413 857 l 496 928 l 468 969 l 410 1018 l 336 938 l 318 897 l 292 894 l 215 813 l 215 842 l 221 860 l 221 956 l 222 1018 l 182 1021 l 79 1013 l 81 946 l 83 900 l 90 833 l 114 792 l 90 764 l 90 576 l 92 467 z "},"ᛔ":{"ha":544,"x_min":0,"x_max":0,"o":"m 319 63 l 368 101 l 408 151 l 465 192 l 519 247 l 521 311 l 519 340 l 374 476 l 338 508 l 328 517 l 414 600 l 503 689 l 500 772 l 499 800 l 397 874 l 206 1035 l 89 1001 l 92 922 l 96 901 l 110 888 l 94 846 l 96 688 l 101 539 l 93 475 l 93 267 l 99 201 l 88 13 l 164 -1 l 222 -19 z m 296 410 l 329 375 l 349 360 l 399 297 l 346 239 l 329 228 l 292 196 l 221 121 l 222 206 l 208 219 l 221 231 l 221 467 z m 215 565 l 213 681 l 217 753 l 215 875 l 315 796 l 326 794 l 333 778 l 393 735 l 392 735 l 340 682 l 335 647 l 303 644 l 215 554 z m 351 313 l 333 332 l 321 332 l 311 350 l 296 372 l 282 374 l 256 343 l 221 313 l 219 296 l 257 261 l 265 258 l 267 247 l 278 236 l 290 235 l 319 269 l 351 299 z m 349 736 l 331 756 l 318 756 l 308 774 l 293 796 l 279 797 l 253 767 l 218 736 l 217 719 l 254 685 l 263 682 l 264 671 l 275 660 l 288 658 l 317 693 l 349 722 z "},"ᛕ":{"ha":581,"x_min":0,"x_max":0,"o":"m 82 1014 l 97 915 l 94 804 l 101 629 l 114 554 l 106 254 l 106 246 l 103 224 l 119 204 l 96 149 l 97 143 l 93 142 l 92 -3 l 165 -4 l 239 -1 l 240 69 l 235 96 l 233 111 l 232 179 l 226 246 l 226 474 l 282 358 l 281 356 l 328 279 l 321 261 l 394 96 l 435 -7 l 469 -8 l 569 47 l 529 138 l 510 142 l 517 161 l 469 240 l 421 347 l 339 535 l 332 546 l 432 736 l 428 740 l 432 747 l 517 888 l 557 961 l 514 994 l 429 1028 l 386 926 l 392 892 l 353 853 l 329 793 l 274 660 l 250 622 l 229 568 l 225 557 l 225 599 l 222 665 l 236 1010 l 183 1028 z "},"ᛖ":{"ha":685,"x_min":0,"x_max":0,"o":"m 258 901 l 196 1028 l 144 1021 l 85 1017 l 86 939 l 88 925 l 100 907 l 101 900 l 90 881 l 94 813 l 99 744 l 97 619 l 119 604 l 97 581 l 89 199 l 89 163 l 89 135 l 101 101 l 101 103 l 83 50 l 94 -3 l 225 0 l 225 60 l 222 264 l 213 461 l 222 485 l 222 676 l 221 678 l 221 679 l 224 772 l 253 715 l 263 693 l 268 682 l 301 617 l 339 615 l 389 625 l 408 675 l 426 708 l 426 722 l 450 753 l 463 775 l 468 724 l 458 421 l 464 357 l 479 343 l 463 318 l 463 169 l 453 78 l 457 18 l 490 -3 l 606 3 l 597 90 l 594 135 l 585 211 l 592 299 l 581 746 l 567 765 l 583 797 l 593 1003 l 556 1019 l 488 1032 l 415 911 l 426 888 l 406 881 l 361 800 l 338 764 l 336 765 z "},"ᛗ":{"ha":683,"x_min":0,"x_max":0,"o":"m 258 913 l 190 1028 l 144 1021 l 85 1017 l 86 939 l 88 925 l 100 907 l 101 900 l 90 881 l 99 744 l 97 619 l 119 604 l 97 581 l 89 199 l 89 135 l 101 101 l 83 50 l 94 -3 l 225 0 l 225 60 l 222 264 l 215 440 l 274 524 l 272 539 l 293 551 l 340 619 l 411 519 l 458 453 l 464 357 l 479 343 l 463 318 l 463 169 l 453 78 l 457 18 l 490 -3 l 606 3 l 597 90 l 594 135 l 585 211 l 592 299 l 581 746 l 567 765 l 583 797 l 593 1003 l 556 1019 l 490 1031 l 415 919 l 426 896 l 406 889 l 361 839 l 338 803 l 336 804 z m 404 719 l 449 781 l 465 804 l 467 750 l 463 615 l 399 708 z m 222 699 l 221 700 l 221 701 l 224 794 l 286 707 l 222 621 z "},"ᛘ":{"ha":651,"x_min":0,"x_max":0,"o":"m 394 1010 l 365 1022 l 331 1021 l 261 1022 l 258 964 l 265 904 l 264 733 l 233 753 l 201 774 l 194 792 l 164 839 l 151 893 l 150 918 l 151 1006 l 113 1021 l 11 1007 l 17 947 l 31 868 l 67 776 l 97 758 l 82 744 l 183 642 l 251 608 l 265 606 l 272 492 l 265 425 l 265 378 l 263 264 l 265 165 l 285 144 l 260 126 l 249 10 l 308 -10 l 397 8 l 389 129 l 389 193 l 386 213 l 381 290 l 375 606 l 408 617 l 408 615 l 482 642 l 576 747 l 564 760 l 579 771 l 622 865 l 632 943 l 642 1003 l 543 1021 l 501 1010 l 501 915 l 500 890 l 479 838 l 449 790 l 442 771 l 421 753 l 376 731 l 382 794 l 382 826 l 382 876 l 378 881 l 365 892 l 389 922 z "},"ᛙ":{"ha":357,"x_min":0,"x_max":0,"o":"m 8 871 l 7 856 l 10 839 l 121 747 l 121 728 l 121 724 l 119 674 l 140 658 l 122 622 l 113 547 l 115 426 l 113 239 l 129 238 l 114 217 l 104 110 l 101 6 l 163 -4 l 210 -6 l 251 14 l 244 90 l 222 126 l 240 147 l 239 429 l 242 501 l 242 608 l 236 688 l 236 726 l 254 744 l 256 768 l 268 765 l 344 843 l 344 878 l 275 940 l 256 956 l 254 967 l 225 999 l 225 1001 l 222 1001 l 201 1025 l 147 1024 l 113 982 l 96 958 l 90 938 l 67 929 z "},"ᛚ":{"ha":431,"x_min":0,"x_max":0,"o":"m 108 851 l 108 831 l 111 757 l 111 688 l 106 608 l 106 501 l 108 429 l 107 147 l 125 126 l 103 90 l 96 14 l 138 -6 l 185 -4 l 246 6 l 243 110 l 233 217 l 218 238 l 235 239 l 232 426 l 235 547 l 225 644 l 207 681 l 228 696 l 232 721 l 226 829 l 226 842 l 267 803 l 275 797 l 343 717 l 378 731 l 419 775 l 432 815 l 310 919 l 219 1026 l 103 1019 l 100 981 z "},"ᛛ":{"ha":432,"x_min":0,"x_max":0,"o":"m 38 489 l 104 428 l 108 422 l 107 147 l 125 126 l 103 90 l 96 14 l 138 -6 l 185 -4 l 246 6 l 243 110 l 233 217 l 218 238 l 235 239 l 232 410 l 233 411 l 313 483 l 310 517 l 238 579 l 231 586 l 225 644 l 207 681 l 228 696 l 232 726 l 226 833 l 226 846 l 267 807 l 275 801 l 343 717 l 378 731 l 419 775 l 432 815 l 310 922 l 219 1026 l 103 1021 l 100 982 l 108 851 l 108 831 l 111 757 l 111 688 l 106 608 l 106 579 l 103 578 l 78 557 l 38 519 z "},"ᛜ":{"ha":581,"x_min":0,"x_max":0,"o":"m 290 799 l 275 794 l 244 804 l 147 674 l 153 650 l 114 642 l 74 601 l 10 535 l 6 471 l 54 421 l 99 369 l 149 333 l 188 276 l 221 240 l 221 208 l 335 197 l 408 299 l 436 336 l 492 394 l 563 468 l 567 538 l 510 593 l 457 647 l 397 733 l 374 754 l 347 799 z m 221 421 l 192 451 l 146 507 l 142 513 l 182 556 l 286 671 l 314 639 l 325 632 l 429 506 l 375 432 l 374 410 l 354 414 l 292 342 l 268 367 z "},"ᛝ":{"ha":567,"x_min":0,"x_max":0,"o":"m 92 404 l 165 331 l 213 276 l 125 185 l 114 172 l 118 158 l 85 143 l 43 103 l 29 86 l 17 42 l 111 -22 l 153 24 l 258 158 l 275 182 l 279 189 l 363 89 l 386 78 l 386 58 l 446 -22 l 482 3 l 499 10 l 549 69 l 525 104 l 426 204 l 353 279 l 406 338 l 442 376 l 436 390 l 469 406 l 540 472 l 536 568 l 482 610 l 414 681 l 353 744 l 429 818 l 454 864 l 475 867 l 507 896 l 553 965 l 457 1039 l 400 982 l 399 969 l 301 842 l 286 828 l 225 908 l 203 913 l 214 926 l 175 979 l 129 1036 l 96 1013 l 83 1013 l 28 958 l 53 915 l 108 865 l 213 747 l 168 697 l 114 638 l 100 621 l 28 550 l 33 454 z m 301 635 l 322 633 l 319 617 l 376 560 l 414 518 l 393 494 l 343 431 l 343 432 l 285 369 l 268 389 l 233 429 l 196 469 l 158 515 l 172 535 l 219 586 l 281 661 z "},"ᛞ":{"ha":776,"x_min":0,"x_max":0,"o":"m 540 61 l 578 -11 l 614 0 l 700 7 l 692 99 l 689 256 l 681 415 l 668 438 l 683 449 l 692 829 l 676 860 l 696 871 l 697 950 l 699 1015 l 665 1015 l 665 1024 l 586 1025 l 531 914 l 474 792 l 476 771 l 447 743 l 388 628 l 333 725 l 307 782 l 293 786 l 299 808 l 242 917 l 206 981 l 207 979 l 179 1028 l 124 1017 l 71 1006 l 72 881 l 78 863 l 78 826 l 85 463 l 92 410 l 85 157 l 106 131 l 83 118 l 78 6 l 158 0 l 196 -21 l 238 61 l 276 143 l 307 221 l 389 396 l 408 343 l 438 282 l 497 150 z m 576 622 l 567 519 l 571 385 l 575 244 l 575 242 l 567 267 l 507 390 l 469 461 l 446 511 l 461 544 l 488 594 l 514 636 l 569 761 l 569 653 z m 204 644 l 204 760 l 286 588 l 315 543 l 329 510 l 269 389 l 244 332 l 221 281 l 199 229 l 199 247 l 207 519 l 194 629 z "},"ᛟ":{"ha":613,"x_min":0,"x_max":0,"o":"m 578 744 l 458 890 l 424 876 l 438 907 l 401 964 l 353 1026 l 310 1017 l 258 1017 l 233 974 l 190 908 l 42 739 l 35 654 l 75 615 l 139 539 l 235 406 l 228 393 l 179 322 l 189 297 l 161 293 l 104 206 l 47 131 l 6 68 l 54 18 l 132 -6 l 190 107 l 200 138 l 296 288 l 292 281 l 308 301 l 394 175 l 417 172 l 403 150 l 496 -15 l 578 38 l 606 82 l 532 181 l 476 253 l 456 279 l 410 360 l 379 403 l 389 415 l 425 468 l 533 607 l 578 657 l 578 706 z m 189 725 l 189 742 l 206 742 l 272 836 l 314 881 l 356 831 l 432 724 l 454 699 l 428 661 l 399 613 l 338 538 l 313 506 l 253 582 l 232 581 l 240 596 l 167 701 z "},"ᛠ":{"ha":650,"x_min":0,"x_max":0,"o":"m 251 843 l 261 833 l 260 799 l 263 646 l 263 600 l 278 589 l 258 547 l 257 456 l 257 260 l 261 231 l 251 133 l 250 83 l 250 0 l 354 -6 l 396 -3 l 394 68 l 375 83 l 393 100 l 390 179 l 383 254 l 381 443 l 382 558 l 383 576 l 388 756 l 388 842 l 426 797 l 460 764 l 547 767 l 614 869 l 678 958 l 632 992 l 564 1019 l 525 939 l 490 888 l 467 914 l 444 938 l 425 933 l 418 963 l 388 1003 l 364 1032 l 325 1021 l 267 1025 l 256 1008 l 256 1007 l 222 964 l 172 913 l 149 886 l 125 936 l 100 943 l 110 961 l 82 1018 l 17 988 l -29 954 l 29 868 l 93 764 l 179 763 l 213 799 z "},"ᛡ":{"ha":485,"x_min":0,"x_max":0,"o":"m 7 658 l -11 607 l 135 533 l 122 531 l 82 506 l 39 492 l -17 456 l 40 354 l 92 375 l 181 443 l 188 447 l 183 315 l 183 113 l 194 86 l 175 65 l 176 7 l 235 -3 l 267 -1 l 321 0 l 307 115 l 307 290 l 300 440 l 361 396 l 436 350 l 481 410 l 501 460 b 396 515 474 472 424 501 l 354 538 l 385 556 l 419 569 l 451 582 l 497 607 l 474 651 l 475 651 l 469 668 l 425 719 l 369 681 l 304 638 b 304 740 304 692 304 688 l 314 957 l 322 1018 l 268 1029 l 178 1026 l 181 925 l 200 911 l 188 875 l 190 625 l 183 629 l 54 721 z "},"ᛢ":{"ha":657,"x_min":0,"x_max":0,"o":"m 217 221 l 189 256 l 97 246 l 35 142 l -24 56 l 21 22 l 86 -8 l 117 49 l 107 67 l 132 74 l 167 124 l 176 110 l 226 56 l 260 13 l 260 11 l 271 -6 l 331 1 l 396 8 l 394 68 l 378 81 l 378 86 l 393 100 l 390 169 l 392 178 l 383 254 l 381 443 l 382 558 l 383 576 l 388 758 l 388 844 l 426 800 l 460 764 l 547 767 l 613 869 l 674 960 l 628 993 l 563 1021 l 524 940 l 490 888 l 467 914 l 444 938 l 425 936 l 418 965 l 388 1006 l 363 1035 l 325 1025 l 263 1014 l 251 1008 l 260 801 l 263 646 l 263 600 l 278 589 l 258 547 l 257 456 l 257 260 l 261 231 l 256 176 z "},"ᛣ":{"ha":571,"x_min":0,"x_max":0,"o":"m 217 421 l 217 374 l 182 333 l 119 261 l 111 232 l 94 228 l 11 136 l -18 104 l 71 15 l 100 40 l 115 69 l 132 76 l 188 158 l 222 201 l 217 58 l 217 63 l 213 6 l 269 -7 l 353 7 l 346 94 l 342 153 l 342 213 l 388 150 l 422 133 l 408 115 l 485 11 l 549 44 l 588 97 l 367 347 l 342 382 l 342 396 l 338 432 l 346 526 l 346 882 l 333 907 l 349 924 l 354 957 l 353 1013 l 296 1026 l 258 1025 l 207 1015 l 219 904 l 219 671 l 242 643 l 219 628 l 219 544 l 219 471 l 238 456 z "},"ᛤ":{"ha":625,"x_min":0,"x_max":0,"o":"m 54 104 l 24 29 l 108 1 l 154 -10 l 176 36 l 224 175 l 224 174 l 264 286 l 261 222 l 261 172 l 275 149 l 261 121 l 250 -3 l 314 1 l 388 3 l 389 65 l 383 113 l 379 288 l 422 165 l 421 153 l 458 67 l 458 46 l 490 -14 l 608 24 l 599 90 l 590 100 l 565 101 l 581 115 l 533 229 l 519 247 l 474 363 l 511 406 l 518 407 l 593 483 l 593 482 l 610 497 l 610 560 l 558 614 l 536 628 l 538 636 l 504 668 l 483 690 l 497 721 l 497 719 l 547 839 l 536 863 l 560 874 l 611 983 l 528 1021 l 514 1021 l 474 1022 l 446 915 l 454 908 l 442 901 l 396 801 l 379 740 l 379 881 l 386 915 l 390 1019 l 314 1025 l 251 1021 l 258 949 l 271 942 l 260 917 l 269 743 l 218 894 l 165 1026 l 96 1015 l 35 985 l 107 829 l 138 828 l 117 804 l 169 703 l 138 668 l 93 624 l 74 610 l 19 560 l 19 497 l 35 482 l 35 483 l 113 408 l 119 408 l 156 369 l 167 357 l 157 333 l 124 271 l 101 210 l 108 178 l 86 171 z m 139 531 l 201 600 b 203 603 201 600 203 601 l 244 532 l 208 461 z m 493 531 l 438 465 l 400 526 l 436 594 z "},"ᛥ":{"ha":676,"x_min":0,"x_max":0,"o":"m 335 214 l 336 215 l 361 181 l 403 131 l 424 126 l 413 104 l 490 -3 l 557 8 l 594 24 l 588 221 l 571 251 l 585 269 l 583 488 l 588 758 l 574 776 l 590 807 l 600 1004 l 563 1019 l 497 1031 l 419 924 l 431 901 l 410 894 l 364 847 l 339 813 l 338 814 l 260 918 l 190 1028 l 143 1021 l 83 1017 l 85 943 l 86 929 l 99 913 l 100 906 l 89 886 l 97 757 l 96 636 l 118 622 l 96 599 l 100 474 l 94 271 l 93 142 l 104 122 l 90 99 l 89 85 l 86 11 l 149 7 l 190 0 l 258 107 z m 275 544 l 274 560 l 294 571 l 342 636 l 414 540 l 432 515 l 411 488 l 339 392 l 292 457 l 271 468 l 272 483 l 249 511 z m 407 732 l 454 790 l 474 814 l 475 761 l 471 632 l 401 722 z m 399 306 l 468 396 l 471 267 l 469 214 l 447 238 l 404 296 z m 217 390 l 285 307 l 218 224 l 215 313 l 215 314 l 217 315 z m 219 713 l 218 714 l 218 715 l 221 804 l 288 721 l 219 638 z "},"ᛦ":{"ha":660,"x_min":0,"x_max":0,"o":"m 394 96 l 371 126 l 383 138 l 388 142 l 388 192 l 388 224 l 382 288 l 426 265 l 447 247 l 454 228 l 485 181 l 506 128 l 507 103 l 507 8 l 549 -3 l 647 15 l 638 75 l 628 153 l 585 247 l 569 258 l 582 271 l 488 376 l 414 403 l 414 401 l 381 413 l 386 728 l 392 806 l 394 825 l 394 889 l 403 1018 l 314 1031 l 254 1019 l 265 892 l 290 874 l 271 853 l 268 754 l 271 640 l 271 593 l 278 526 l 271 413 l 257 410 l 189 376 l 88 274 l 103 260 l 72 242 l 36 150 l 22 71 l 17 11 l 118 -3 l 157 13 l 156 100 l 157 125 l 169 179 l 200 226 l 207 244 l 239 265 l 269 285 l 271 114 l 264 54 l 267 -4 l 336 -3 l 371 -4 l 400 8 z "},"ᛧ":{"ha":289,"x_min":0,"x_max":0,"o":"m 128 508 l 74 493 l 75 426 l 78 421 l 83 358 l 83 242 l 82 151 l 76 117 l 71 4 l 163 -1 l 217 10 l 211 113 l 192 126 l 208 146 l 206 246 l 210 415 l 210 456 l 210 500 z "},"ᛨ":{"ha":511,"x_min":0,"x_max":0,"o":"m 472 165 l 492 182 l 517 207 l 486 249 l 429 300 l 383 246 l 343 193 l 317 165 l 317 186 l 315 260 l 315 332 l 315 411 l 314 604 l 296 628 l 314 640 l 314 757 l 317 831 l 317 851 l 343 824 l 364 794 l 383 788 l 383 775 l 429 721 l 486 774 l 517 813 l 492 838 l 418 900 l 301 1025 l 207 1021 l 115 919 l -4 818 l 7 776 l 47 733 l 82 719 l 150 804 l 160 810 l 200 849 l 200 836 l 200 726 l 200 696 l 200 644 l 204 532 l 200 375 l 221 339 l 204 324 l 197 293 l 199 182 l 199 169 l 158 208 l 150 214 l 82 300 l 47 286 l 7 243 l -12 208 l 93 118 l 128 117 l 131 79 l 203 -1 l 303 -3 l 418 119 z "},"ᛩ":{"ha":519,"x_min":0,"x_max":0,"o":"m 193 440 l 286 335 l 299 321 l 296 225 l 318 192 l 296 172 l 288 0 l 357 -4 l 438 4 l 422 203 l 410 246 l 426 264 l 425 611 l 422 618 l 422 846 l 429 903 l 432 996 l 365 1025 l 321 1042 l 196 913 l 190 889 l 161 879 l 17 726 l 19 631 l 63 578 l 107 535 z m 297 493 l 257 536 l 188 618 l 172 614 l 158 649 l 136 681 l 196 747 l 206 767 l 218 775 l 299 865 l 300 767 l 299 700 l 313 657 l 297 629 z "},"ᛪ":{"ha":631,"x_min":0,"x_max":0,"o":"m 99 811 l 44 821 l 0 818 l 1 749 l -1 694 l 47 693 l 103 703 l 104 703 l 106 493 l 138 463 l 104 447 l 100 339 l 204 329 l 304 433 l 371 490 l 417 528 l 417 460 l 432 429 l 415 394 l 414 332 l 357 340 l 313 338 l 314 269 l 311 215 l 364 214 l 414 222 l 414 71 l 404 11 l 460 0 l 551 4 l 544 106 l 538 142 l 536 218 l 596 214 l 636 222 l 635 308 l 621 346 l 551 333 l 538 333 l 538 351 l 535 565 l 536 696 l 438 711 l 329 600 l 282 554 l 224 508 l 226 699 l 279 690 l 324 714 l 324 789 l 310 824 l 233 814 l 222 814 l 229 951 l 239 1014 l 185 1022 l 93 1019 l 96 915 l 113 899 l 97 882 l 101 811 z "},"᛫":{"ha":292,"x_min":0,"x_max":0,"o":"m 29 519 l 28 497 l 33 481 l 81 444 l 81 440 l 111 406 l 132 382 l 167 388 l 211 433 l 211 436 l 261 488 l 261 525 l 217 565 l 201 563 l 206 578 l 167 621 l 126 621 l 106 592 l 99 590 l 78 564 l 74 564 z "},"᛬":{"ha":301,"x_min":0,"x_max":0,"o":"m 35 671 l 33 650 l 39 633 l 88 597 l 88 593 l 118 558 l 139 535 l 171 540 l 215 586 l 215 589 l 267 640 l 267 678 l 224 715 l 211 717 l 214 724 l 171 774 l 131 774 b 110 744 126 768 115 751 l 79 714 z m 35 375 l 33 358 l 39 340 l 88 300 l 88 296 l 115 261 l 139 238 l 171 242 l 215 289 l 215 292 l 268 342 l 268 381 l 217 424 l 217 425 l 172 476 l 132 476 l 110 446 l 100 432 l 88 418 b 88 413 88 417 88 414 l 82 415 z "},"᛭":{"ha":499,"x_min":0,"x_max":0,"o":"m 190 563 l 138 568 l 119 551 l 104 574 l 76 583 l 19 588 l 4 551 l 7 447 l 53 446 l 114 457 l 182 464 l 200 463 l 183 344 l 194 331 l 178 313 l 172 282 l 186 243 l 256 239 l 321 256 l 321 315 l 313 347 l 296 464 l 363 456 l 436 444 l 485 460 l 494 518 l 485 589 l 399 581 l 351 567 l 286 556 l 300 594 l 321 697 l 322 786 l 269 792 l 188 788 l 174 740 l 192 631 l 197 624 l 203 560 z "},"ᛮ":{"ha":543,"x_min":0,"x_max":0,"o":"m 214 851 l 214 831 l 217 757 l 217 703 l 208 707 l 118 606 l 0 501 l 13 467 l 54 422 l 89 408 l 153 489 l 161 494 l 201 533 l 211 542 l 211 501 l 214 429 l 213 147 l 231 126 l 208 90 l 201 14 l 243 -6 l 290 -4 l 351 6 l 349 110 l 339 217 l 324 238 l 340 239 l 338 426 l 340 547 l 331 644 l 313 681 l 333 696 l 338 726 l 332 835 l 332 847 l 372 808 l 381 803 l 449 717 l 483 731 l 525 775 l 538 815 l 415 919 l 325 1021 l 208 1024 l 206 985 z "},"ᛯ":{"ha":664,"x_min":0,"x_max":0,"o":"m 401 1006 l 372 1018 l 336 1017 l 263 1018 l 260 960 l 267 900 l 267 729 l 236 749 l 203 769 l 199 788 l 168 835 l 156 889 l 154 914 l 156 1001 l 117 1017 l 14 1003 l 19 943 l 35 864 l 68 772 l 99 754 l 83 740 l 186 639 l 253 604 l 267 601 l 268 500 l 263 433 l 263 411 l 254 410 l 186 376 l 85 274 l 100 260 l 69 242 l 36 150 l 22 71 l 17 11 l 122 -3 l 161 13 l 160 100 l 161 125 l 174 179 l 200 226 l 204 244 l 236 265 l 267 285 l 265 114 l 258 54 l 261 -4 l 338 -3 l 372 -4 l 401 8 l 396 96 l 372 126 l 385 138 l 389 142 l 389 224 l 382 288 l 426 265 l 447 247 l 453 228 l 482 181 l 497 143 l 518 131 l 504 106 l 504 11 l 546 0 l 644 18 l 635 78 l 626 156 l 583 247 l 568 258 l 572 272 l 488 374 l 414 400 l 414 399 l 382 413 l 383 563 l 379 563 l 382 601 l 414 613 l 482 638 l 579 743 l 567 756 l 582 767 l 626 861 l 636 939 l 646 999 l 546 1017 l 503 1006 l 503 911 l 503 886 l 482 833 l 453 786 l 446 767 l 426 749 l 382 726 l 388 790 l 389 872 l 385 876 l 372 888 l 396 918 z "},"ᛰ":{"ha":553,"x_min":0,"x_max":0,"o":"m 340 799 l 342 888 l 349 924 l 353 1019 l 267 1026 l 207 1014 l 214 946 l 229 932 l 214 919 l 217 806 l 203 788 l 113 676 l 121 664 l 101 667 l 15 568 l -1 553 l -1 485 l 44 439 l 94 382 l 129 342 l 150 339 l 147 325 l 204 256 l 221 225 l 221 119 l 208 1 l 263 -3 l 292 -4 l 350 3 l 351 63 l 344 94 l 328 119 l 344 131 l 344 243 l 350 254 l 425 351 l 476 407 l 551 486 l 556 558 l 496 617 l 463 661 l 438 661 l 438 685 l 356 779 z m 226 601 l 225 529 l 221 485 l 221 411 l 213 421 l 171 465 l 174 463 l 133 513 l 124 529 l 171 588 l 174 596 l 179 599 l 221 643 z m 392 565 l 415 542 l 422 538 l 428 518 l 365 436 l 363 426 l 339 406 l 338 500 l 338 539 l 336 578 l 335 639 z "},"⁄":{"ha":539,"x_min":0,"x_max":0,"o":"m 376 635 l 428 756 l 426 751 l 525 914 l 513 929 l 535 936 l 553 965 l 553 997 l 451 1032 l 426 978 l 396 904 l 342 757 l 311 707 l 229 535 l 215 511 l 167 406 l 168 406 l 79 199 l 85 181 l 65 163 l 29 108 l 11 89 l -15 32 l 64 -15 l 99 -1 l 113 25 l 138 100 l 138 99 l 182 206 l 181 206 l 310 494 l 310 493 z "},"−":{"ha":528,"x_min":0,"x_max":0,"o":"m 111 563 l 75 567 l 56 568 l 32 565 l 24 489 l 28 443 l 47 438 l 85 440 l 115 442 l 321 447 l 479 439 l 503 454 l 504 551 l 486 569 l 446 565 l 274 558 l 235 544 l 203 560 z "},"ﬁ":{"ha":819,"x_min":0,"x_max":0,"o":"m 100 397 l 96 256 l 114 231 l 94 171 l 88 7 l 186 -3 l 242 0 l 242 68 l 235 88 l 238 131 l 232 189 l 228 250 l 229 367 l 225 425 l 225 451 l 333 449 l 340 453 l 363 443 l 410 443 l 421 489 l 425 524 l 417 582 l 328 576 l 308 576 l 228 574 l 225 746 l 204 767 l 221 776 l 224 844 l 228 894 l 238 894 l 257 899 l 306 901 l 388 888 l 442 889 l 454 951 l 454 1022 l 306 1021 l 290 1004 l 254 1018 l 161 1021 l 90 1019 l 94 932 l 92 864 l 100 839 l 100 831 l 106 592 l 103 581 l 103 549 z m 599 604 l 594 528 l 590 485 l 590 225 l 590 175 l 607 151 l 590 124 l 571 0 l 635 -1 l 664 -3 l 725 17 l 726 68 l 724 94 l 721 115 l 721 500 l 706 510 l 718 539 l 715 574 l 710 628 l 714 699 l 718 881 l 725 915 l 732 1017 l 642 1022 l 576 1018 l 583 949 l 596 942 l 585 917 l 589 639 z "},"ﬂ":{"ha":944,"x_min":0,"x_max":0,"o":"m 821 125 l 715 122 l 715 163 l 710 260 l 711 261 l 707 357 l 704 442 l 688 460 l 703 483 l 703 551 l 711 704 l 715 860 l 721 907 l 722 997 l 688 1029 l 642 1018 l 569 1018 l 579 867 l 601 860 l 583 836 l 586 383 l 576 154 l 589 119 l 571 94 l 574 0 l 636 -3 l 697 8 l 710 0 l 769 0 l 789 1 l 894 -6 l 915 21 l 921 108 l 917 138 l 851 135 z m 100 397 l 96 256 l 114 231 l 94 171 l 88 7 l 186 -3 l 242 0 l 242 68 l 235 88 l 238 131 l 232 189 l 228 250 l 229 367 l 225 425 l 225 451 l 333 449 l 340 453 l 363 443 l 410 443 l 421 489 l 425 524 l 417 582 l 328 576 l 308 576 l 228 574 l 225 746 l 204 767 l 221 776 l 224 844 l 228 894 l 238 894 l 257 899 l 306 901 l 388 888 l 442 889 l 454 951 l 454 1022 l 306 1021 l 290 1004 l 254 1018 l 161 1021 l 90 1019 l 94 932 l 92 864 l 100 839 l 100 831 l 106 592 l 103 581 l 103 549 z "},"˘":{"ha":356,"x_min":0,"x_max":0,"o":"m 69 1201 l 36 1203 l 33 1182 l 49 1167 l 35 1149 l 50 1122 l 74 1082 l 136 1057 l 204 1054 l 229 1063 l 239 1079 l 275 1079 l 317 1131 l 328 1169 l 325 1189 l 322 1203 l 225 1199 l 226 1172 l 218 1149 l 196 1136 l 165 1136 l 147 1150 l 140 1178 l 139 1200 l 117 1207 z "},"":{"ha":214,"x_min":0,"x_max":0,"o":"m 192 -96 l 160 -71 l 149 -56 l 115 -25 l 100 -24 l 64 -65 l 38 -96 l 40 -117 l 81 -144 l 71 -162 l 47 -183 l 31 -197 l 24 -211 l 85 -247 l 97 -233 l 126 -201 l 118 -194 l 139 -183 l 163 -154 l 190 -117 l 193 -111 z "},"˝":{"ha":414,"x_min":0,"x_max":0,"o":"m 328 1126 l 386 1199 l 360 1211 l 267 1222 l 250 1201 l 221 1126 l 196 1071 l 214 1057 l 267 1050 l 292 1082 l 283 1101 z m 174 1140 l 207 1201 l 179 1211 l 90 1221 l 78 1194 l 53 1126 l 28 1069 l 54 1056 l 107 1050 l 122 1067 l 133 1094 z "},"˛":{"ha":240,"x_min":0,"x_max":0,"o":"m 213 -108 l 208 -93 l 157 -89 l 110 -72 l 113 -65 l 119 -58 l 164 -24 l 185 -1 l 188 17 l 167 31 l 153 28 l 129 49 l 111 40 l 44 -54 l 28 -75 l 32 -93 l 42 -136 l 44 -146 l 129 -169 l 165 -186 l 188 -174 z "},"¯":{"ha":385,"x_min":0,"x_max":0,"o":"m 122 1189 l 93 1193 l 76 1197 l 54 1199 l 42 1133 l 28 1103 l 44 1082 l 86 1085 l 104 1101 l 132 1089 l 236 1093 l 318 1086 l 342 1101 l 357 1185 l 340 1200 l 296 1192 l 189 1185 z "},"Ş":{"ha":438,"x_min":0,"x_max":0,"o":"m 199 247 l 201 232 l 163 214 l 139 174 b 103 119 126 154 117 139 l 76 96 l 56 44 l 124 1 l 107 -12 l 101 -61 l 140 -92 l 167 -115 l 165 -115 l 138 -139 l 94 -167 l 113 -208 l 131 -228 l 160 -228 l 197 -190 l 211 -175 l 249 -143 l 260 -103 l 226 -72 l 185 -35 l 174 -21 l 207 19 l 222 64 l 221 58 b 235 88 225 67 229 78 l 290 163 l 365 254 l 415 336 l 413 444 l 375 472 l 246 593 l 224 607 l 197 644 l 171 676 l 213 732 l 215 742 l 229 761 l 308 854 l 321 879 l 357 915 l 394 971 l 313 1036 l 271 1040 l 238 985 b 239 968 236 981 242 974 l 211 950 l 175 901 l 178 886 l 107 804 l 39 707 l 40 619 l 107 554 l 214 456 l 242 443 l 289 386 z "},"Ă":{"ha":590,"x_min":0,"x_max":0,"o":"m 388 285 l 399 239 l 411 231 l 400 217 l 406 178 l 424 3 l 447 -10 l 465 -10 l 568 24 l 553 83 l 532 106 l 540 117 l 526 204 l 492 333 l 492 353 l 425 688 l 408 700 l 418 725 l 374 938 l 368 951 l 364 963 l 365 1011 l 342 1022 l 228 1017 l 214 929 l 201 871 l 192 815 l 207 794 l 182 765 l 140 579 l 140 554 l 132 525 l 128 499 l 100 328 l 101 300 l 86 285 l 72 197 l 35 28 l 83 -3 l 169 -11 l 185 82 l 175 121 l 188 136 l 203 235 l 231 246 l 243 251 l 336 274 l 364 293 l 365 293 l 385 296 z m 260 603 l 253 625 l 267 632 l 294 801 l 315 654 l 321 629 l 326 557 l 354 407 l 315 397 l 225 369 l 226 379 l 243 469 l 242 468 z m 182 1201 l 149 1203 l 146 1182 l 161 1167 l 147 1149 l 163 1122 l 186 1082 l 249 1057 l 317 1054 l 342 1063 l 351 1079 l 388 1079 l 429 1131 l 440 1169 l 438 1189 l 435 1203 l 338 1199 l 339 1172 l 331 1149 l 308 1136 l 278 1136 l 260 1150 l 253 1178 l 251 1200 l 229 1207 z "},"Ā":{"ha":590,"x_min":0,"x_max":0,"o":"m 388 285 l 399 239 l 411 231 l 400 217 l 406 178 l 424 3 l 447 -10 l 465 -10 l 568 24 l 553 83 l 532 106 l 540 117 l 526 204 l 492 333 l 492 353 l 425 688 l 408 700 l 418 725 l 374 938 l 368 951 l 364 963 l 365 1011 l 342 1022 l 228 1017 l 214 929 l 201 871 l 192 815 l 207 794 l 182 765 l 140 579 l 140 554 l 132 525 l 128 499 l 100 328 l 101 300 l 86 285 l 72 197 l 35 28 l 83 -3 l 169 -11 l 185 82 l 175 121 l 188 136 l 203 235 l 231 246 l 243 251 l 336 274 l 364 293 l 365 293 l 385 296 z m 260 603 l 253 625 l 267 632 l 294 801 l 315 654 l 321 629 l 326 557 l 354 407 l 315 397 l 225 369 l 226 379 l 243 469 l 242 468 z m 224 1189 l 194 1193 l 178 1197 l 156 1199 l 143 1133 l 129 1103 l 146 1082 l 188 1085 l 206 1101 l 233 1089 l 338 1093 l 419 1086 l 443 1101 l 458 1185 l 442 1200 l 397 1192 l 290 1185 z "},"c":{"ha":431,"x_min":0,"x_max":0,"o":"m 44 411 l 94 321 l 158 261 l 147 236 l 253 72 l 256 56 l 303 -18 l 350 13 l 422 72 l 390 124 l 318 218 l 254 326 l 203 406 l 190 433 l 171 453 l 157 479 l 136 519 l 154 553 l 181 600 l 226 672 l 310 796 l 317 833 l 340 849 l 379 903 l 418 972 l 314 1042 l 265 985 l 264 974 l 186 846 l 186 840 l 151 785 l 151 751 l 101 703 l 11 550 l 13 461 z "},"g":{"ha":521,"x_min":0,"x_max":0,"o":"m 326 576 l 328 461 l 333 444 l 336 433 l 328 214 l 326 206 l 279 308 l 257 306 l 256 349 l 174 483 l 149 524 l 167 551 l 199 613 l 253 701 l 358 850 l 357 869 l 406 911 l 438 965 l 401 999 l 386 1010 l 333 1040 l 268 950 l 271 935 l 197 846 l 183 808 l 78 647 l 51 597 l 44 588 l 24 574 l 21 471 l 88 369 l 129 313 l 161 251 l 163 250 l 231 128 l 279 54 l 296 21 l 314 -15 l 446 -1 l 444 61 l 432 81 l 444 89 l 451 433 l 447 442 l 464 540 l 447 582 z "},"h":{"ha":651,"x_min":0,"x_max":0,"o":"m 94 232 l 97 144 l 117 124 l 94 97 l 90 4 l 178 -4 l 235 -1 l 236 50 l 232 113 l 224 186 l 225 190 l 232 432 l 340 478 l 342 478 l 422 496 l 421 471 l 425 451 l 422 238 l 443 215 l 429 203 l 419 47 l 438 -1 l 518 -1 l 569 1 l 567 78 l 557 113 l 554 290 l 551 539 l 549 567 l 544 629 l 551 760 l 539 800 l 553 818 l 554 871 l 554 869 l 563 949 l 567 1018 l 488 1021 l 436 1022 l 415 982 l 422 926 l 425 801 l 429 675 l 424 638 l 408 631 l 382 618 l 325 593 l 313 578 l 290 586 l 232 565 l 229 564 l 217 699 l 222 790 l 207 803 l 224 829 l 231 914 l 236 1014 l 117 1029 l 83 1007 l 93 921 l 89 893 l 93 801 l 103 715 l 97 579 l 107 422 z "},"j":{"ha":388,"x_min":0,"x_max":0,"o":"m 165 601 l 158 525 l 160 439 l 161 419 l 161 365 l 156 214 l 158 201 l 138 172 l 76 132 l 15 107 l 15 35 l 92 -22 l 194 61 l 193 89 l 231 94 l 275 133 l 297 172 l 281 411 l 269 453 l 285 464 l 279 851 l 296 974 l 278 1022 l 146 1019 l 146 942 l 171 928 l 153 906 l 157 671 z "},"k":{"ha":581,"x_min":0,"x_max":0,"o":"m 82 1014 l 97 915 l 94 804 l 101 629 l 114 554 l 106 254 l 106 246 l 103 224 l 119 204 l 96 149 l 97 143 l 93 142 l 92 -3 l 165 -4 l 239 -1 l 240 69 l 235 96 l 233 111 l 232 179 l 226 246 l 226 474 l 282 358 l 281 356 l 328 279 l 321 261 l 394 96 l 435 -7 l 469 -8 l 569 47 l 529 138 l 510 142 l 517 161 l 469 240 l 421 347 l 339 535 l 332 546 l 432 736 l 428 740 l 432 747 l 517 888 l 557 961 l 514 994 l 429 1028 l 386 926 l 392 892 l 353 853 l 329 793 l 274 660 l 250 622 l 229 568 l 225 557 l 225 599 l 222 665 l 236 1010 l 183 1028 z "},"l":{"ha":461,"x_min":0,"x_max":0,"o":"m 338 125 l 232 122 l 232 163 l 226 260 l 228 261 l 224 357 l 221 442 l 204 460 l 219 483 l 219 551 l 228 704 l 232 860 l 238 907 l 240 997 l 204 1029 l 158 1018 l 86 1018 l 96 867 l 118 860 l 100 836 l 103 383 l 93 154 l 106 119 l 88 94 l 90 0 l 153 -3 l 214 8 l 226 0 l 286 0 l 306 1 l 411 -6 l 432 21 l 438 108 l 433 138 l 368 135 z "},"r":{"ha":568,"x_min":0,"x_max":0,"o":"m 231 428 l 286 315 l 299 283 l 350 186 l 367 178 l 365 154 l 414 43 l 447 -11 l 560 51 l 561 92 l 515 140 l 490 193 l 490 192 l 471 232 l 463 236 l 463 254 l 407 349 b 378 382 397 363 389 369 l 378 406 b 343 465 369 422 353 446 l 382 518 l 406 547 l 450 600 l 514 678 l 524 761 l 457 822 b 432 817 456 822 433 815 l 424 851 l 203 1043 l 93 999 l 99 879 l 106 614 l 94 586 l 97 514 l 103 351 l 103 297 l 115 279 l 94 225 l 86 4 l 178 -4 l 233 18 l 232 133 l 228 146 l 224 285 l 222 436 z m 225 558 l 219 682 l 217 697 l 214 706 l 208 731 l 219 757 l 219 771 l 222 878 l 350 751 l 360 744 l 388 710 l 372 690 b 301 599 354 665 321 622 l 232 513 l 222 507 z "},"s":{"ha":438,"x_min":0,"x_max":0,"o":"m 199 247 l 201 232 l 163 214 b 139 174 154 200 147 188 b 103 119 126 154 117 139 l 76 96 l 56 44 l 169 -26 l 207 19 l 222 64 l 221 58 b 235 88 225 67 229 78 l 290 163 l 365 254 l 415 336 l 413 444 l 375 472 l 246 593 l 224 607 l 197 644 l 171 676 l 213 732 l 215 742 l 229 761 l 308 854 l 321 879 l 357 915 l 394 971 l 313 1036 l 271 1040 l 238 985 b 239 968 236 981 242 974 l 211 950 l 175 901 l 178 886 l 107 804 l 39 707 l 40 619 l 107 554 l 214 456 l 242 443 l 289 386 z "},"t":{"ha":483,"x_min":0,"x_max":0,"o":"m 336 1019 l 272 1015 b 214 1017 253 1015 235 1015 b 182 1007 203 1017 190 1007 l 156 1018 l 21 1025 l 17 911 l 33 894 l 118 897 b 140 901 122 897 131 899 l 147 908 l 178 904 l 186 847 l 181 758 l 189 693 l 182 410 l 175 214 l 188 200 l 167 113 l 167 6 l 240 -6 l 279 1 l 319 24 l 308 122 l 308 383 l 292 410 l 293 411 l 306 494 l 304 601 l 304 625 b 303 658 304 635 303 647 b 301 714 301 667 301 701 l 304 817 l 299 847 l 307 906 l 350 906 l 392 903 l 406 899 l 468 899 l 472 964 l 464 1022 z "},"w":{"ha":707,"x_min":0,"x_max":0,"o":"m 488 274 l 486 264 l 436 514 l 428 529 l 428 567 l 418 596 l 354 608 l 300 600 l 228 268 l 215 661 l 215 660 l 211 782 l 200 858 l 218 1010 l 175 1031 l 129 1022 l 132 1024 l 63 1018 l 74 833 l 82 824 l 93 507 l 110 493 l 104 467 l 110 339 l 119 111 l 124 68 l 124 4 l 194 -6 l 203 -6 l 260 -4 l 260 39 l 303 181 l 303 201 l 358 390 l 404 197 l 426 190 l 419 151 b 444 57 429 115 435 94 l 451 -4 l 515 -3 l 588 0 l 588 90 b 589 94 588 92 589 94 l 603 269 l 606 313 l 592 329 l 607 351 l 633 750 l 622 763 l 633 782 l 650 1004 l 608 1024 l 510 1026 l 507 949 l 515 825 l 515 774 l 508 760 b 497 540 506 692 500 608 z "},"Ą":{"ha":590,"x_min":0,"x_max":0,"o":"m 388 285 l 399 239 l 411 231 l 400 217 l 406 178 l 424 3 l 435 -3 l 400 -54 l 383 -75 l 388 -93 l 397 -136 l 400 -146 l 485 -169 l 521 -186 l 543 -174 l 568 -108 l 564 -93 l 513 -89 l 465 -72 l 468 -65 l 475 -58 l 519 -24 l 564 22 l 568 24 l 553 83 l 532 106 l 540 117 l 526 204 l 492 333 l 492 353 l 425 688 l 408 700 l 418 725 l 374 938 l 368 951 l 364 963 l 365 1011 l 342 1022 l 228 1017 l 214 929 l 201 871 l 192 815 l 207 794 l 182 765 l 140 579 l 140 554 l 132 525 l 128 499 l 100 328 l 101 300 l 86 285 l 72 197 l 35 28 l 83 -3 l 169 -11 l 185 82 l 175 121 l 188 136 l 203 235 l 231 246 l 243 251 l 336 274 l 364 293 l 365 293 l 385 296 z m 260 603 l 253 625 l 267 632 l 294 801 l 315 654 l 321 629 l 326 557 l 354 407 l 315 397 l 225 369 l 226 379 l 243 469 l 242 468 z "},"Ǽ":{"ha":757,"x_min":0,"x_max":0,"o":"m 707 894 l 714 969 l 713 1022 l 590 1021 l 540 1017 l 521 1021 l 439 1021 l 393 1017 l 339 1018 l 311 924 l 292 865 l 272 801 l 286 797 l 257 769 l 199 590 l 185 561 l 183 524 l 168 499 l 111 326 l 110 317 l 119 303 l 92 283 l 68 203 l -1 32 l 49 0 l 133 -15 l 160 56 l 165 107 l 172 128 l 208 235 l 203 235 l 208 236 l 244 242 l 288 249 l 379 263 l 381 254 l 381 249 l 375 221 l 372 158 l 378 131 l 369 104 l 364 50 l 374 0 l 476 -1 l 490 4 l 490 6 l 543 6 l 608 -3 l 701 -4 l 724 21 l 728 128 l 675 129 l 636 119 l 538 118 l 522 118 l 503 122 l 507 122 l 504 250 l 499 256 l 489 256 l 507 283 l 496 317 l 504 460 l 608 456 l 678 453 l 686 506 l 686 569 l 657 575 l 553 568 l 525 568 l 499 569 l 494 639 l 494 667 l 493 701 l 492 701 l 503 718 l 500 843 l 501 879 l 501 907 l 507 906 l 521 906 l 589 903 l 610 913 l 647 894 z m 240 349 l 246 372 l 272 461 l 324 600 l 324 606 l 322 613 l 321 613 l 338 632 l 376 788 l 376 593 l 372 540 l 382 394 l 378 386 l 378 369 l 239 343 z m 533 1118 l 590 1175 l 567 1196 l 478 1225 l 457 1197 l 407 1126 l 368 1075 l 393 1058 l 458 1042 l 483 1068 l 483 1093 z "},"Ć":{"ha":431,"x_min":0,"x_max":0,"o":"m 44 411 l 94 321 l 158 261 l 147 236 l 253 72 l 256 56 l 303 -18 l 350 13 l 422 72 l 390 124 l 318 218 l 254 326 l 203 406 l 190 433 l 171 453 l 157 479 l 136 519 l 154 553 l 181 600 l 226 672 l 310 796 l 317 833 l 340 849 l 379 903 l 418 972 l 314 1042 l 265 985 l 264 974 l 186 846 l 186 840 l 151 785 l 151 751 l 101 703 l 11 550 l 13 461 z m 428 1122 l 485 1179 l 461 1200 l 372 1229 l 351 1201 l 301 1131 l 263 1079 l 288 1063 l 353 1046 l 378 1072 l 378 1097 z "},"Č":{"ha":431,"x_min":0,"x_max":0,"o":"m 44 411 l 94 321 l 158 261 l 147 236 l 253 72 l 256 56 l 303 -18 l 350 13 l 422 72 l 390 124 l 318 218 l 254 326 l 203 406 l 190 433 l 171 453 l 157 479 l 136 519 l 154 553 l 181 600 l 226 672 l 310 796 l 317 833 l 340 849 l 379 903 l 418 972 l 314 1042 l 265 985 l 264 974 l 186 846 l 186 840 l 151 785 l 151 751 l 101 703 l 11 550 l 13 461 z m 206 1207 l 183 1181 l 186 1153 l 232 1122 l 231 1122 l 269 1086 l 303 1050 l 356 1042 l 389 1078 l 493 1178 l 468 1219 l 396 1219 l 385 1179 l 358 1144 l 347 1138 l 343 1140 l 294 1188 l 264 1232 z "},"Ĉ":{"ha":431,"x_min":0,"x_max":0,"o":"m 44 411 l 94 321 l 158 261 l 147 236 l 253 72 l 256 56 l 303 -18 l 350 13 l 422 72 l 390 124 l 318 218 l 254 326 l 203 406 l 190 433 l 171 453 l 157 479 l 136 519 l 154 553 l 181 600 l 226 672 l 310 796 l 317 833 l 340 849 l 379 903 l 418 972 l 314 1042 l 265 985 l 264 974 l 186 846 l 186 840 l 151 785 l 151 751 l 101 703 l 11 550 l 13 461 z m 463 1072 l 485 1097 l 482 1124 l 438 1154 l 396 1190 l 363 1228 l 317 1232 l 283 1200 l 179 1101 l 197 1058 l 271 1058 l 288 1099 l 286 1099 l 313 1133 l 321 1140 l 324 1139 l 368 1097 l 379 1092 l 378 1086 l 411 1047 z "},"Ċ":{"ha":431,"x_min":0,"x_max":0,"o":"m 44 411 l 94 321 l 158 261 l 147 236 l 253 72 l 256 56 l 303 -18 l 350 13 l 422 72 l 390 124 l 318 218 l 254 326 l 203 406 l 190 433 l 171 453 l 157 479 l 136 519 l 154 553 l 181 600 l 226 672 l 310 796 l 317 833 l 340 849 l 379 903 l 418 972 l 314 1042 l 265 985 l 264 974 l 186 846 l 186 840 l 151 785 l 151 751 l 101 703 l 11 550 l 13 461 z m 417 1154 l 385 1185 l 382 1185 l 375 1182 l 353 1221 l 322 1222 l 290 1189 l 253 1154 l 251 1126 l 299 1089 l 300 1089 l 300 1088 l 318 1061 l 343 1060 l 417 1128 z "},"Ď":{"ha":550,"x_min":0,"x_max":0,"o":"m 324 132 l 372 231 l 515 450 l 540 492 l 539 593 l 514 625 l 515 622 l 410 763 l 374 826 l 325 875 l 310 921 l 224 1039 l 150 1017 l 90 999 l 92 947 l 96 875 l 110 857 l 96 831 l 97 467 l 106 413 l 97 101 l 97 103 l 94 10 l 185 -3 l 231 -15 z m 221 651 l 217 853 l 225 843 l 363 622 l 390 600 l 396 567 l 421 529 l 396 489 l 350 413 l 292 300 l 303 288 l 278 275 l 217 176 l 215 174 l 217 249 l 222 524 l 200 589 z m 126 1207 l 104 1181 l 107 1153 l 153 1122 l 151 1122 l 190 1086 l 224 1050 l 276 1042 l 310 1078 l 414 1178 l 389 1219 l 317 1219 l 306 1179 l 279 1144 l 268 1138 l 264 1140 l 215 1188 l 185 1232 z "},"Đ":{"ha":550,"x_min":0,"x_max":0,"o":"m 324 132 l 372 231 l 515 450 l 540 492 l 539 593 l 514 625 l 515 622 l 410 763 l 374 829 l 325 878 l 310 924 l 224 1042 l 150 1019 l 90 1001 l 92 950 l 96 878 l 110 860 l 96 833 l 96 568 l 67 567 l 47 568 l 24 568 l 13 497 l 14 453 l 33 447 l 68 450 l 100 450 l 106 413 l 97 101 l 97 103 l 94 10 l 185 -3 l 231 -15 z m 221 651 l 217 856 l 225 846 l 363 622 l 390 600 l 396 567 l 421 529 l 396 489 l 350 413 l 292 300 l 303 288 l 278 275 l 217 176 l 215 174 l 217 249 l 221 454 l 297 450 l 321 465 l 322 554 l 304 572 l 264 569 l 207 568 l 200 589 z "},"Ĕ":{"ha":503,"x_min":0,"x_max":0,"o":"m 443 890 l 446 968 l 444 1022 l 307 1021 l 253 1010 l 233 1021 l 154 1021 l 89 1013 l 96 914 l 111 896 l 96 872 l 97 801 l 96 693 l 96 590 l 92 539 l 103 401 l 97 390 l 99 315 l 99 283 l 111 267 l 94 231 l 93 167 l 94 151 l 86 57 l 93 0 l 197 -1 l 208 6 l 257 6 l 336 -3 l 428 -4 l 460 10 l 465 61 l 468 131 l 399 132 l 364 121 l 253 119 l 242 122 l 229 125 l 226 260 l 225 263 l 229 275 l 221 315 l 226 458 l 249 458 l 336 456 l 404 453 l 407 510 l 415 551 l 397 586 l 326 579 l 272 576 l 221 579 l 218 633 l 204 644 l 219 669 l 226 711 l 226 849 l 229 883 l 229 899 l 242 899 l 318 896 l 340 900 l 344 901 l 378 890 z m 171 1201 l 138 1203 l 135 1182 l 150 1167 l 136 1149 l 151 1122 l 175 1082 l 238 1057 l 306 1054 l 331 1063 l 340 1079 l 376 1079 l 418 1131 l 429 1169 l 426 1189 l 424 1203 l 326 1199 l 328 1172 l 319 1149 l 297 1136 l 267 1136 l 249 1150 l 242 1178 l 240 1200 l 218 1207 z "},"Ě":{"ha":503,"x_min":0,"x_max":0,"o":"m 443 890 l 446 968 l 444 1022 l 307 1021 l 253 1010 l 233 1021 l 154 1021 l 89 1013 l 96 914 l 111 896 l 96 872 l 97 801 l 96 693 l 96 590 l 92 539 l 103 401 l 97 390 l 99 315 l 99 283 l 111 267 l 94 231 l 93 167 l 94 151 l 86 57 l 93 0 l 197 -1 l 208 6 l 257 6 l 336 -3 l 428 -4 l 460 10 l 465 61 l 468 131 l 399 132 l 364 121 l 253 119 l 242 122 l 229 125 l 226 260 l 225 263 l 229 275 l 221 315 l 226 458 l 249 458 l 336 456 l 404 453 l 407 510 l 415 551 l 397 586 l 326 579 l 272 576 l 221 579 l 218 633 l 204 644 l 219 669 l 226 711 l 226 849 l 229 883 l 229 899 l 242 899 l 318 896 l 340 900 l 344 901 l 378 890 z m 160 1207 l 138 1181 l 140 1153 l 186 1122 l 185 1122 l 224 1086 l 257 1050 l 310 1042 l 343 1078 l 447 1178 l 422 1219 l 350 1219 l 339 1179 l 313 1144 l 301 1138 l 297 1140 l 249 1188 l 218 1232 z "},"Ė":{"ha":503,"x_min":0,"x_max":0,"o":"m 443 890 l 446 968 l 444 1022 l 307 1021 l 253 1010 l 233 1021 l 154 1021 l 89 1013 l 96 914 l 111 896 l 96 872 l 97 801 l 96 693 l 96 590 l 92 539 l 103 401 l 97 390 l 99 315 l 99 283 l 111 267 l 94 231 l 93 167 l 94 151 l 86 57 l 93 0 l 197 -1 l 208 6 l 257 6 l 336 -3 l 428 -4 l 460 10 l 465 61 l 468 131 l 399 132 l 364 121 l 253 119 l 242 122 l 229 125 l 226 260 l 225 263 l 229 275 l 221 315 l 226 458 l 249 458 l 336 456 l 404 453 l 407 510 l 415 551 l 397 586 l 326 579 l 272 576 l 221 579 l 218 633 l 204 644 l 219 669 l 226 711 l 226 849 l 229 883 l 229 899 l 242 899 l 318 896 l 340 900 l 344 901 l 378 890 z m 371 1154 l 339 1185 l 336 1185 l 329 1182 l 307 1221 l 276 1222 l 244 1189 l 207 1154 l 206 1126 l 253 1089 l 254 1089 l 254 1088 l 272 1061 l 297 1060 l 371 1128 z "},"Ē":{"ha":503,"x_min":0,"x_max":0,"o":"m 443 890 l 446 968 l 444 1022 l 307 1021 l 253 1010 l 233 1021 l 154 1021 l 89 1013 l 96 914 l 111 896 l 96 872 l 97 801 l 96 693 l 96 590 l 92 539 l 103 401 l 97 390 l 99 315 l 99 283 l 111 267 l 94 231 l 93 167 l 94 151 l 86 57 l 93 0 l 197 -1 l 208 6 l 257 6 l 336 -3 l 428 -4 l 460 10 l 465 61 l 468 131 l 399 132 l 364 121 l 253 119 l 242 122 l 229 125 l 226 260 l 225 263 l 229 275 l 221 315 l 226 458 l 249 458 l 336 456 l 404 453 l 407 510 l 415 551 l 397 586 l 326 579 l 272 576 l 221 579 l 218 633 l 204 644 l 219 669 l 226 711 l 226 849 l 229 883 l 229 899 l 242 899 l 318 896 l 340 900 l 344 901 l 378 890 z m 213 1189 l 183 1193 l 167 1197 l 144 1199 l 132 1133 l 118 1103 l 135 1082 l 176 1085 l 194 1101 l 222 1089 l 326 1093 l 408 1086 l 432 1101 l 447 1185 l 431 1200 l 386 1192 l 279 1185 z "},"Ę":{"ha":503,"x_min":0,"x_max":0,"o":"m 443 890 l 446 968 l 444 1022 l 307 1021 l 253 1010 l 233 1021 l 154 1021 l 89 1013 l 96 914 l 111 896 l 96 872 l 97 801 l 96 693 l 96 590 l 92 539 l 103 401 l 97 390 l 99 315 l 99 283 l 111 267 l 94 231 l 93 167 l 94 151 l 86 57 l 93 0 l 197 -1 l 208 6 l 257 6 l 336 -3 l 300 -54 l 283 -75 l 288 -93 l 297 -136 l 300 -146 l 385 -169 l 421 -186 l 443 -174 l 468 -108 l 464 -93 l 413 -89 l 365 -72 l 368 -65 l 375 -58 l 419 -24 l 440 -1 l 440 1 l 460 10 l 465 61 l 468 131 l 399 132 l 364 121 l 253 119 l 242 122 l 229 125 l 226 260 l 225 263 l 229 275 l 221 315 l 226 458 l 249 458 l 336 456 l 404 453 l 407 510 l 415 551 l 397 586 l 326 579 l 272 576 l 221 579 l 218 633 l 204 644 l 219 669 l 226 711 l 226 849 l 229 883 l 229 899 l 242 899 l 318 896 l 340 900 l 344 901 l 378 890 z "},"Ğ":{"ha":521,"x_min":0,"x_max":0,"o":"m 326 576 l 328 461 l 333 444 l 336 433 l 328 214 l 326 206 l 279 308 l 257 306 l 256 349 l 174 483 l 149 524 l 167 551 l 199 613 l 253 701 l 358 850 l 357 869 l 406 911 l 438 965 l 401 999 l 386 1010 l 333 1040 l 268 950 l 271 935 l 197 846 l 183 808 l 78 647 l 51 597 l 44 588 l 24 574 l 21 471 l 88 369 l 129 313 l 161 251 l 163 250 l 231 128 l 279 54 l 296 21 l 314 -15 l 446 -1 l 444 61 l 432 81 l 444 89 l 451 433 l 447 442 l 464 540 l 447 582 z m 235 1201 l 201 1203 l 199 1182 l 214 1167 l 200 1149 l 215 1122 l 239 1082 l 301 1057 l 369 1054 l 394 1063 l 404 1079 l 440 1079 l 482 1131 l 493 1169 l 490 1189 l 488 1203 l 390 1199 l 392 1172 l 383 1149 l 361 1136 l 331 1136 l 313 1150 l 306 1178 l 304 1200 l 282 1207 z "},"Ĝ":{"ha":521,"x_min":0,"x_max":0,"o":"m 326 576 l 328 461 l 333 444 l 336 433 l 328 214 l 326 206 l 279 308 l 257 306 l 256 349 l 174 483 l 149 524 l 167 551 l 199 613 l 253 701 l 358 850 l 357 869 l 406 911 l 438 965 l 401 999 l 386 1010 l 333 1040 l 268 950 l 271 935 l 197 846 l 183 808 l 78 647 l 51 597 l 44 588 l 24 574 l 21 471 l 88 369 l 129 313 l 161 251 l 163 250 l 231 128 l 279 54 l 296 21 l 314 -15 l 446 -1 l 444 61 l 432 81 l 444 89 l 451 433 l 447 442 l 464 540 l 447 582 z m 481 1072 l 503 1097 l 500 1124 l 456 1154 l 414 1190 l 381 1228 l 335 1232 l 301 1200 l 197 1101 l 215 1058 l 289 1058 l 306 1099 l 304 1099 l 331 1133 l 339 1140 l 342 1139 l 386 1097 l 397 1092 l 396 1086 l 429 1047 z "},"Ģ":{"ha":521,"x_min":0,"x_max":0,"o":"m 326 576 l 328 461 l 333 444 l 336 433 l 328 214 l 326 206 l 279 308 l 257 306 l 256 349 l 174 483 l 149 524 l 167 551 l 199 613 l 253 701 l 358 850 l 357 869 l 406 911 l 438 965 l 401 999 l 386 1010 l 333 1040 l 268 950 l 271 935 l 197 846 l 183 808 l 78 647 l 51 597 l 44 588 l 24 574 l 21 471 l 88 369 l 129 313 l 161 251 l 163 250 l 231 128 l 279 54 l 296 21 l 314 -15 l 446 -1 l 444 61 l 432 81 l 444 89 l 451 433 l 447 442 l 464 540 l 447 582 z m 440 -96 l 408 -71 l 397 -56 l 364 -25 l 349 -24 l 313 -65 l 286 -96 l 289 -117 l 329 -144 l 319 -162 l 296 -183 l 279 -197 l 272 -211 l 333 -247 l 346 -233 l 375 -201 l 367 -194 l 388 -183 l 411 -154 l 439 -117 l 442 -111 z "},"Ġ":{"ha":521,"x_min":0,"x_max":0,"o":"m 326 576 l 328 461 l 333 444 l 336 433 l 328 214 l 326 206 l 279 308 l 257 306 l 256 349 l 174 483 l 149 524 l 167 551 l 199 613 l 253 701 l 358 850 l 357 869 l 406 911 l 438 965 l 401 999 l 386 1010 l 333 1040 l 268 950 l 271 935 l 197 846 l 183 808 l 78 647 l 51 597 l 44 588 l 24 574 l 21 471 l 88 369 l 129 313 l 161 251 l 163 250 l 231 128 l 279 54 l 296 21 l 314 -15 l 446 -1 l 444 61 l 432 81 l 444 89 l 451 433 l 447 442 l 464 540 l 447 582 z m 435 1154 l 403 1185 l 400 1185 l 393 1182 l 371 1221 l 340 1222 l 308 1189 l 271 1154 l 269 1126 l 317 1089 l 318 1089 l 318 1088 l 336 1061 l 361 1060 l 435 1128 z "},"Ħ":{"ha":651,"x_min":0,"x_max":0,"o":"m 94 232 l 97 144 l 117 124 l 94 97 l 90 4 l 178 -4 l 235 -1 l 236 50 l 232 113 l 224 186 l 225 190 l 232 432 l 340 478 l 342 478 l 422 496 l 421 471 l 425 451 l 422 238 l 443 215 l 429 203 l 419 47 l 438 -1 l 518 -1 l 569 1 l 567 78 l 557 113 l 554 290 l 551 539 l 549 567 l 544 629 l 550 750 l 597 746 l 621 761 l 636 831 l 619 846 l 575 838 l 553 836 l 554 869 l 563 949 l 567 1018 l 488 1021 l 436 1022 l 415 982 l 422 926 l 424 835 l 224 831 l 231 914 l 236 1014 l 117 1029 l 83 1007 l 93 921 l 89 893 l 92 836 l 75 839 l 58 843 l 36 844 l 24 793 l 10 763 l 26 742 l 68 744 l 86 750 l 99 749 l 103 715 l 97 579 l 107 422 z m 429 675 l 424 638 l 408 631 l 382 618 l 325 593 l 313 578 l 290 586 l 232 565 l 229 564 l 217 699 l 219 750 l 426 751 z "},"Ĥ":{"ha":651,"x_min":0,"x_max":0,"o":"m 94 232 l 97 144 l 117 124 l 94 97 l 90 4 l 178 -4 l 235 -1 l 236 50 l 232 113 l 224 186 l 225 190 l 232 432 l 340 478 l 342 478 l 422 496 l 421 471 l 425 451 l 422 238 l 443 215 l 429 203 l 419 47 l 438 -1 l 518 -1 l 569 1 l 567 78 l 557 113 l 554 290 l 551 539 l 549 567 l 544 629 l 551 760 l 539 800 l 553 818 l 554 871 l 554 869 l 563 949 l 567 1018 l 488 1021 l 436 1022 l 415 982 l 422 926 l 425 801 l 429 675 l 424 638 l 408 631 l 382 618 l 325 593 l 313 578 l 290 586 l 232 565 l 229 564 l 217 699 l 222 790 l 207 803 l 224 829 l 231 914 l 236 1014 l 117 1029 l 83 1007 l 93 921 l 89 893 l 93 801 l 103 715 l 97 579 l 107 422 z m 463 1072 l 485 1097 l 482 1124 l 438 1154 l 396 1190 l 363 1228 l 317 1232 l 283 1200 l 179 1101 l 197 1058 l 271 1058 l 288 1099 l 286 1099 l 313 1133 l 321 1140 l 324 1139 l 368 1097 l 379 1092 l 378 1086 l 411 1047 z "},"Ĭ":{"ha":336,"x_min":0,"x_max":0,"o":"m 115 604 l 111 528 l 107 485 l 107 225 l 107 175 l 124 151 l 107 124 l 88 0 l 151 -1 l 181 -3 l 242 17 l 243 68 l 240 94 l 238 115 l 238 500 l 222 510 l 235 539 l 232 574 l 226 628 l 231 699 l 235 881 l 242 915 l 249 1017 l 158 1022 l 93 1018 l 100 949 l 113 942 l 101 917 l 106 639 z m 63 1201 l 29 1203 l 26 1182 l 42 1167 l 28 1149 l 43 1122 l 67 1082 l 129 1057 l 197 1054 l 222 1063 l 232 1079 l 268 1079 l 310 1131 l 321 1169 l 318 1189 l 315 1203 l 218 1199 l 219 1172 l 211 1149 l 189 1136 l 158 1136 l 140 1150 l 133 1178 l 132 1200 l 110 1207 z "},"İ":{"ha":336,"x_min":0,"x_max":0,"o":"m 115 604 l 111 528 l 107 485 l 107 225 l 107 175 l 124 151 l 107 124 l 88 0 l 151 -1 l 181 -3 l 242 17 l 243 68 l 240 94 l 238 115 l 238 500 l 222 510 l 235 539 l 232 574 l 226 628 l 231 699 l 235 881 l 242 915 l 249 1017 l 158 1022 l 93 1018 l 100 949 l 113 942 l 101 917 l 106 639 z m 263 1154 l 231 1185 l 228 1185 l 221 1182 l 199 1221 l 168 1222 l 136 1189 l 99 1154 l 97 1126 l 144 1089 l 146 1089 l 146 1088 l 164 1061 l 189 1060 l 263 1128 z "},"Ī":{"ha":336,"x_min":0,"x_max":0,"o":"m 115 604 l 111 528 l 107 485 l 107 225 l 107 175 l 124 151 l 107 124 l 88 0 l 151 -1 l 181 -3 l 242 17 l 243 68 l 240 94 l 238 115 l 238 500 l 222 510 l 235 539 l 232 574 l 226 628 l 231 699 l 235 881 l 242 915 l 249 1017 l 158 1022 l 93 1018 l 100 949 l 113 942 l 101 917 l 106 639 z m 104 1189 l 75 1193 l 58 1197 l 36 1199 l 24 1133 l 10 1103 l 26 1082 l 68 1085 l 86 1101 l 114 1089 l 218 1093 l 300 1086 l 324 1101 l 339 1185 l 322 1200 l 278 1192 l 171 1185 z "},"Į":{"ha":336,"x_min":0,"x_max":0,"o":"m 249 -108 l 244 -93 l 193 -89 l 146 -72 l 149 -65 l 156 -58 l 200 -24 l 222 -1 l 243 15 l 243 68 l 238 115 l 238 500 l 222 510 l 235 539 l 232 574 l 226 628 l 231 699 l 235 881 l 242 915 l 249 1017 l 158 1022 l 93 1018 l 100 949 l 113 942 l 101 917 l 106 639 l 115 604 l 111 528 l 107 485 l 107 175 l 124 151 l 107 124 l 88 0 l 118 0 l 81 -54 l 64 -75 l 68 -93 l 78 -136 l 81 -146 l 165 -169 l 201 -186 l 224 -174 z "},"Ĩ":{"ha":336,"x_min":0,"x_max":0,"o":"m 115 604 l 111 528 l 107 485 l 107 225 l 107 175 l 124 151 l 107 124 l 88 0 l 151 -1 l 181 -3 l 242 17 l 243 68 l 240 94 l 238 115 l 238 500 l 222 510 l 235 539 l 232 574 l 226 628 l 231 699 l 235 881 l 242 915 l 249 1017 l 158 1022 l 93 1018 l 100 949 l 113 942 l 101 917 l 106 639 z m 272 1074 l 349 1183 l 335 1210 l 276 1210 l 268 1185 l 247 1160 b 236 1157 243 1158 238 1157 l 150 1217 l 94 1217 l 69 1190 l 6 1115 l 19 1082 l 82 1082 l 86 1119 l 103 1136 b 119 1133 106 1135 115 1133 l 215 1068 z "},"Ĳ":{"ha":724,"x_min":0,"x_max":0,"o":"m 115 604 l 111 528 l 107 485 l 107 225 l 107 175 l 124 151 l 107 124 l 88 0 l 151 -1 l 181 -3 l 242 17 l 243 68 l 240 94 l 238 115 l 238 500 l 222 510 l 235 539 l 232 574 l 226 628 l 231 699 l 235 881 l 242 915 l 249 1017 l 158 1022 l 93 1018 l 100 949 l 113 942 l 101 917 l 106 639 z m 501 601 l 494 525 l 496 439 l 497 419 l 497 365 l 492 214 l 494 201 l 474 172 l 413 132 l 351 107 l 351 35 l 428 -22 l 531 61 l 529 89 l 567 94 l 611 133 l 633 172 l 617 411 l 606 453 l 621 464 l 615 851 l 632 974 l 614 1022 l 482 1019 l 482 942 l 507 928 l 489 906 l 493 671 z "},"Ĵ":{"ha":388,"x_min":0,"x_max":0,"o":"m 165 601 l 158 525 l 160 439 l 161 419 l 161 365 l 156 214 l 158 201 l 138 172 l 76 132 l 15 107 l 15 35 l 92 -22 l 194 61 l 193 89 l 231 94 l 275 133 l 297 172 l 281 411 l 269 453 l 285 464 l 279 851 l 296 974 l 278 1022 l 146 1019 l 146 942 l 171 928 l 153 906 l 157 671 z m 344 1074 l 367 1099 l 364 1125 l 319 1156 l 278 1192 l 244 1229 l 199 1233 l 165 1201 l 61 1103 l 79 1060 l 153 1060 l 169 1100 l 168 1100 l 194 1135 l 203 1142 l 206 1140 l 250 1099 l 261 1093 l 260 1088 l 293 1049 z "}}}
